  0
SECTION
  2
HEADER
  9
$ACADVER
  1
AC1014
  9
$HANDSEED
  5
FFFF
  9
$MEASUREMENT
 70
     1
  0
ENDSEC
  0
SECTION
  2
TABLES
  0
TABLE
  2
VPORT
  5
8
330
0
100
AcDbSymbolTable
 70
     4
  0
VPORT
  5
2E
330
8
100
AcDbSymbolTableRecord
100
AcDbViewportTableRecord
  2
*ACTIVE
 70
     0
 10
0.0
 20
0.0
 11
1.0
 21
1.0
 12
210.0
 22
148.5
 13
0.0
 23
0.0
 14
10.0
 24
10.0
 15
10.0
 25
10.0
 16
0.0
 26
0.0
 36
1.0
 17
0.0
 27
0.0
 37
0.0
 40
341.0
 41
1.24
 42
50.0
 43
0.0
 44
0.0
 50
0.0
 51
0.0
 71
     0
 72
   100
 73
     1
 74
     3
 75
     0
 76
     0
 77
     0
 78
     0
  0
ENDTAB
  0
TABLE
  2
LTYPE
  5
5
330
0
100
AcDbSymbolTable
 70
     1
  0
LTYPE
  5
14
330
5
100
AcDbSymbolTableRecord
100
AcDbLinetypeTableRecord
  2
BYBLOCK
 70
     0
  3

 72
    65
 73
     0
 40
0.0
  0
LTYPE
  5
15
330
5
100
AcDbSymbolTableRecord
100
AcDbLinetypeTableRecord
  2
BYLAYER
 70
     0
  3

 72
    65
 73
     0
 40
0.0
  0
LTYPE
  5
16
330
5
100
AcDbSymbolTableRecord
100
AcDbLinetypeTableRecord
  2
CONTINUOUS
 70
     0
  3
Solid line
 72
    65
 73
     0
 40
0.0
  0
ENDTAB
  0
TABLE
  2
LAYER
  5
2
100
AcDbSymbolTable
 70
3
  0
LAYER
  5
50
100
AcDbSymbolTableRecord
100
AcDbLayerTableRecord
  2
0
 70
0
  6
CONTINUOUS
  0
LAYER
  5
51
100
AcDbSymbolTableRecord
100
AcDbLayerTableRecord
  2
area_engraving
 70
0
  6
CONTINUOUS
  0
LAYER
  5
52
100
AcDbSymbolTableRecord
100
AcDbLayerTableRecord
  2
cutting
 70
0
  6
CONTINUOUS
  0
ENDTAB
  0
TABLE
  2
STYLE
  5
3
330
0
100
AcDbSymbolTable
 70
     1
  0
STYLE
  5
11
330
3
100
AcDbSymbolTableRecord
100
AcDbTextStyleTableRecord
  2
STANDARD
 70
     0
 40
0.0
 41
1.0
 50
0.0
 71
     0
 42
2.5
  3
txt
  4

  0
ENDTAB
  0
TABLE
  2
VIEW
  5
6
330
0
100
AcDbSymbolTable
 70
     0
  0
ENDTAB
  0
TABLE
  2
UCS
  5
7
330
0
100
AcDbSymbolTable
 70
     0
  0
ENDTAB
  0
TABLE
  2
APPID
  5
9
330
0
100
AcDbSymbolTable
 70
     2
  0
APPID
  5
12
330
9
100
AcDbSymbolTableRecord
100
AcDbRegAppTableRecord
  2
ACAD
 70
     0
  0
ENDTAB
  0
TABLE
  2
DIMSTYLE
  5
A
330
0
100
AcDbSymbolTable
 70
     1
  0
DIMSTYLE
105
27
330
A
100
AcDbSymbolTableRecord
100
AcDbDimStyleTableRecord
  2
ISO-25
 70
     0
  3

  4

  5

  6

  7

 40
1.0
 41
2.5
 42
0.625
 43
3.75
 44
1.25
 45
0.0
 46
0.0
 47
0.0
 48
0.0
140
2.5
141
2.5
142
0.0
143
0.03937007874016
144
1.0
145
0.0
146
1.0
147
0.625
 71
     0
 72
     0
 73
     0
 74
     0
 75
     0
 76
     0
 77
     1
 78
     8
170
     0
171
     3
172
     1
173
     0
174
     0
175
     0
176
     0
177
     0
178
     0
270
     2
271
     2
272
     2
273
     2
274
     3
340
11
275
     0
280
     0
281
     0
282
     0
283
     0
284
     8
285
     0
286
     0
287
     3
288
     0
  0
ENDTAB
  0
TABLE
  2
BLOCK_RECORD
  5
1
330
0
100
AcDbSymbolTable
 70
     1
  0
BLOCK_RECORD
  5
1F
330
1
100
AcDbSymbolTableRecord
100
AcDbBlockTableRecord
  2
*MODEL_SPACE
  0
BLOCK_RECORD
  5
1B
330
1
100
AcDbSymbolTableRecord
100
AcDbBlockTableRecord
  2
*PAPER_SPACE
  0
ENDTAB
  0
ENDSEC
  0
SECTION
  2
BLOCKS
  0
BLOCK
  5
20
330
1F
100
AcDbEntity
  8
0
100
AcDbBlockBegin
  2
*MODEL_SPACE
 70
     0
 10
0.0
 20
0.0
 30
0.0
  3
*MODEL_SPACE
  1

  0
ENDBLK
  5
21
330
1F
100
AcDbEntity
  8
0
100
AcDbBlockEnd
  0
BLOCK
  5
1C
330
1B
100
AcDbEntity
 67
     1
  8
0
100
AcDbBlockBegin
  2
*PAPER_SPACE
  1

  0
ENDBLK
  5
1D
330
1B
100
AcDbEntity
 67
     1
  8
0
100
AcDbBlockEnd
  0
ENDSEC
  0
SECTION
  2
ENTITIES
  0
LWPOLYLINE
  5
100
100
AcDbEntity
  8
area_engraving
 62
6
100
AcDbPolyline
 90
15
 70
1
 10
38.583798
 20
45.605562
 30
0.0
 10
38.001715
 20
45.605562
 30
0.0
 10
38.001715
 20
49.066311
 30
0.0
 10
38.573215
 20
49.066311
 30
0.0
 10
38.573215
 20
50.907810
 30
0.0
 10
36.699966
 20
50.907810
 30
0.0
 10
36.699966
 20
52.939809
 30
0.0
 10
38.573215
 20
52.939809
 30
0.0
 10
39.811465
 20
52.939809
 30
0.0
 10
41.684714
 20
52.939809
 30
0.0
 10
41.684714
 20
50.907810
 30
0.0
 10
39.843215
 20
50.907810
 30
0.0
 10
39.843215
 20
49.066311
 30
0.0
 10
39.843215
 20
47.637561
 30
0.0
 10
39.843215
 20
45.605562
 30
0.0
  0
LWPOLYLINE
  5
101
100
AcDbEntity
  8
area_engraving
 62
6
100
AcDbPolyline
 90
14
 70
1
 10
45.018458
 20
49.320310
 30
0.0
 10
45.018458
 20
45.605562
 30
0.0
 10
42.616042
 20
45.605562
 30
0.0
 10
42.616042
 20
53.289059
 30
0.0
 10
44.298791
 20
53.289059
 30
0.0
 10
44.298791
 20
50.622060
 30
0.0
 10
46.743541
 20
50.622060
 30
0.0
 10
47.537291
 20
49.860060
 30
0.0
 10
47.537291
 20
46.526311
 30
0.0
 10
47.537291
 20
45.605562
 30
0.0
 10
46.743541
 20
45.605562
 30
0.0
 10
46.235541
 20
45.605562
 30
0.0
 10
46.235541
 20
46.526311
 30
0.0
 10
46.235541
 20
49.320310
 30
0.0
  0
LWPOLYLINE
  5
102
100
AcDbEntity
  8
area_engraving
 62
6
100
AcDbPolyline
 90
12
 70
1
 10
48.405118
 20
46.843811
 30
0.0
 10
48.405118
 20
50.854893
 30
0.0
 10
49.230618
 20
51.585143
 30
0.0
 10
52.691367
 20
51.585143
 30
0.0
 10
53.516867
 20
50.696143
 30
0.0
 10
53.516867
 20
48.537144
 30
0.0
 10
52.119867
 20
48.537144
 30
0.0
 10
49.929118
 20
48.537144
 30
0.0
 10
49.929118
 20
47.267144
 30
0.0
 10
53.389867
 20
47.267144
 30
0.0
 10
53.389867
 20
45.605562
 30
0.0
 10
49.516368
 20
45.605562
 30
0.0
  0
LWPOLYLINE
  5
103
100
AcDbEntity
  8
area_engraving
 62
6
100
AcDbPolyline
 90
4
 70
1
 10
49.929118
 20
50.092894
 30
0.0
 10
49.929118
 20
49.394394
 30
0.0
 10
52.119867
 20
49.394394
 30
0.0
 10
52.119867
 20
50.092894
 30
0.0
  0
LWPOLYLINE
  5
104
100
AcDbEntity
  8
area_engraving
 62
6
100
AcDbPolyline
 90
17
 70
1
 10
55.252517
 20
45.605562
 30
0.0
 10
54.257684
 20
45.605562
 30
0.0
 10
54.257684
 20
51.606310
 30
0.0
 10
55.802850
 20
51.606310
 30
0.0
 10
55.802850
 20
50.981893
 30
0.0
 10
56.416684
 20
51.606310
 30
0.0
 10
58.279350
 20
51.606310
 30
0.0
 10
59.496433
 20
50.145810
 30
0.0
 10
59.496433
 20
48.748811
 30
0.0
 10
58.279350
 20
48.748811
 30
0.0
 10
58.279350
 20
50.145810
 30
0.0
 10
56.437850
 20
50.145810
 30
0.0
 10
56.437850
 20
48.452477
 30
0.0
 10
56.437850
 20
48.018561
 30
0.0
 10
56.437850
 20
47.066061
 30
0.0
 10
56.437850
 20
45.605562
 30
0.0
 10
55.802850
 20
45.605562
 30
0.0
  0
LWPOLYLINE
  5
105
100
AcDbEntity
  8
area_engraving
 62
6
100
AcDbPolyline
 90
17
 70
1
 10
62.893668
 20
50.293977
 30
0.0
 10
62.893668
 20
45.605562
 30
0.0
 10
60.491252
 20
45.605562
 30
0.0
 10
60.491252
 20
51.595727
 30
0.0
 10
62.174002
 20
51.595727
 30
0.0
 10
66.460251
 20
51.595727
 30
0.0
 10
67.254001
 20
50.833727
 30
0.0
 10
67.254001
 20
47.499978
 30
0.0
 10
67.254001
 20
45.605562
 30
0.0
 10
66.460251
 20
45.605562
 30
0.0
 10
65.952251
 20
45.605562
 30
0.0
 10
65.952251
 20
47.499978
 30
0.0
 10
65.952251
 20
50.293977
 30
0.0
 10
64.904501
 20
50.293977
 30
0.0
 10
64.904501
 20
45.605562
 30
0.0
 10
63.930835
 20
45.605562
 30
0.0
 10
63.930835
 20
50.293977
 30
0.0
  0
LWPOLYLINE
  5
106
100
AcDbEntity
  8
area_engraving
 62
6
100
AcDbPolyline
 90
8
 70
1
 10
73.233580
 20
50.452727
 30
0.0
 10
73.233580
 20
46.642728
 30
0.0
 10
72.408080
 20
45.605562
 30
0.0
 10
69.042581
 20
45.605562
 30
0.0
 10
68.121831
 20
46.674478
 30
0.0
 10
68.121831
 20
50.558560
 30
0.0
 10
69.275414
 20
51.585143
 30
0.0
 10
72.344580
 20
51.585143
 30
0.0
  0
LWPOLYLINE
  5
107
100
AcDbEntity
  8
area_engraving
 62
6
100
AcDbPolyline
 90
7
 70
1
 10
70.513664
 20
47.097811
 30
0.0
 10
71.709580
 20
47.097811
 30
0.0
 10
71.709580
 20
48.653561
 30
0.0
 10
71.709580
 20
49.923560
 30
0.0
 10
69.518831
 20
49.923560
 30
0.0
 10
69.518831
 20
48.219644
 30
0.0
 10
70.513664
 20
48.219644
 30
0.0
  0
LWPOLYLINE
  5
108
100
AcDbEntity
  8
area_engraving
 62
6
100
AcDbPolyline
 90
16
 70
1
 10
79.139062
 20
45.605562
 30
0.0
 10
75.085647
 20
45.605562
 30
0.0
 10
74.101397
 20
46.462811
 30
0.0
 10
74.101397
 20
50.315144
 30
0.0
 10
75.371396
 20
51.606310
 30
0.0
 10
77.996062
 20
51.606310
 30
0.0
 10
79.213145
 20
51.606310
 30
0.0
 10
79.213145
 20
50.145810
 30
0.0
 10
79.213145
 20
48.748811
 30
0.0
 10
77.996062
 20
48.748811
 30
0.0
 10
77.996062
 20
50.145810
 30
0.0
 10
75.921730
 20
50.145810
 30
0.0
 10
75.921730
 20
48.452477
 30
0.0
 10
75.921730
 20
48.018561
 30
0.0
 10
75.921730
 20
47.066061
 30
0.0
 10
79.139062
 20
47.066061
 30
0.0
  0
LWPOLYLINE
  5
109
100
AcDbEntity
  8
area_engraving
 62
6
100
AcDbPolyline
 90
14
 70
1
 10
82.546881
 20
49.320310
 30
0.0
 10
82.546881
 20
45.605562
 30
0.0
 10
80.144465
 20
45.605562
 30
0.0
 10
80.144465
 20
53.289059
 30
0.0
 10
81.827215
 20
53.289059
 30
0.0
 10
81.827215
 20
50.622060
 30
0.0
 10
84.271964
 20
50.622060
 30
0.0
 10
85.065714
 20
49.860060
 30
0.0
 10
85.065714
 20
46.526311
 30
0.0
 10
85.065714
 20
45.605562
 30
0.0
 10
84.271964
 20
45.605562
 30
0.0
 10
83.763964
 20
45.605562
 30
0.0
 10
83.763964
 20
46.526311
 30
0.0
 10
83.763964
 20
49.320310
 30
0.0
  0
LWPOLYLINE
  5
10a
100
AcDbEntity
  8
area_engraving
 62
6
100
AcDbPolyline
 90
17
 70
1
 10
86.833125
 20
45.605562
 30
0.0
 10
85.838292
 20
45.605562
 30
0.0
 10
85.838292
 20
51.606310
 30
0.0
 10
87.383458
 20
51.606310
 30
0.0
 10
87.383458
 20
50.981893
 30
0.0
 10
87.997291
 20
51.606310
 30
0.0
 10
89.859957
 20
51.606310
 30
0.0
 10
91.077040
 20
50.145810
 30
0.0
 10
91.077040
 20
48.748811
 30
0.0
 10
89.859957
 20
48.748811
 30
0.0
 10
89.859957
 20
50.145810
 30
0.0
 10
88.018458
 20
50.145810
 30
0.0
 10
88.018458
 20
48.452477
 30
0.0
 10
88.018458
 20
48.018561
 30
0.0
 10
88.018458
 20
47.066061
 30
0.0
 10
88.018458
 20
45.605562
 30
0.0
 10
87.383458
 20
45.605562
 30
0.0
  0
LWPOLYLINE
  5
10b
100
AcDbEntity
  8
area_engraving
 62
6
100
AcDbPolyline
 90
8
 70
1
 10
97.056611
 20
50.452727
 30
0.0
 10
97.056611
 20
46.642728
 30
0.0
 10
96.231111
 20
45.605562
 30
0.0
 10
92.865612
 20
45.605562
 30
0.0
 10
91.944863
 20
46.674478
 30
0.0
 10
91.944863
 20
50.558560
 30
0.0
 10
93.098446
 20
51.585143
 30
0.0
 10
96.167612
 20
51.585143
 30
0.0
  0
LWPOLYLINE
  5
10c
100
AcDbEntity
  8
area_engraving
 62
6
100
AcDbPolyline
 90
7
 70
1
 10
94.336695
 20
47.097811
 30
0.0
 10
95.532612
 20
47.097811
 30
0.0
 10
95.532612
 20
48.653561
 30
0.0
 10
95.532612
 20
49.923560
 30
0.0
 10
93.341862
 20
49.923560
 30
0.0
 10
93.341862
 20
48.219644
 30
0.0
 10
94.336695
 20
48.219644
 30
0.0
  0
LWPOLYLINE
  5
10d
100
AcDbEntity
  8
area_engraving
 62
6
100
AcDbPolyline
 90
17
 70
1
 10
100.422092
 20
50.293977
 30
0.0
 10
100.422092
 20
45.605562
 30
0.0
 10
98.019676
 20
45.605562
 30
0.0
 10
98.019676
 20
51.595727
 30
0.0
 10
99.702425
 20
51.595727
 30
0.0
 10
103.988674
 20
51.595727
 30
0.0
 10
104.782424
 20
50.833727
 30
0.0
 10
104.782424
 20
47.499978
 30
0.0
 10
104.782424
 20
45.605562
 30
0.0
 10
103.988674
 20
45.605562
 30
0.0
 10
103.480674
 20
45.605562
 30
0.0
 10
103.480674
 20
47.499978
 30
0.0
 10
103.480674
 20
50.293977
 30
0.0
 10
102.432925
 20
50.293977
 30
0.0
 10
102.432925
 20
45.605562
 30
0.0
 10
101.459258
 20
45.605562
 30
0.0
 10
101.459258
 20
50.293977
 30
0.0
  0
LWPOLYLINE
  5
10e
100
AcDbEntity
  8
area_engraving
 62
6
100
AcDbPolyline
 90
4
 70
1
 10
106.063010
 20
53.320809
 30
0.0
 10
107.142509
 20
53.320809
 30
0.0
 10
107.142509
 20
52.093143
 30
0.0
 10
106.063010
 20
52.093143
 30
0.0
  0
LWPOLYLINE
  5
10f
100
AcDbEntity
  8
area_engraving
 62
6
100
AcDbPolyline
 90
7
 70
1
 10
105.618510
 20
50.145810
 30
0.0
 10
105.618510
 20
51.606310
 30
0.0
 10
106.168843
 20
51.606310
 30
0.0
 10
107.153093
 20
51.606310
 30
0.0
 10
107.153093
 20
50.749060
 30
0.0
 10
107.153093
 20
45.605562
 30
0.0
 10
105.618510
 20
45.605562
 30
0.0
  0
LWPOLYLINE
  5
110
100
AcDbEntity
  8
area_engraving
 62
6
100
AcDbPolyline
 90
16
 70
1
 10
112.920986
 20
45.605562
 30
0.0
 10
108.867571
 20
45.605562
 30
0.0
 10
107.883321
 20
46.462811
 30
0.0
 10
107.883321
 20
50.315144
 30
0.0
 10
109.153321
 20
51.606310
 30
0.0
 10
111.777987
 20
51.606310
 30
0.0
 10
112.995070
 20
51.606310
 30
0.0
 10
112.995070
 20
50.145810
 30
0.0
 10
112.995070
 20
48.748811
 30
0.0
 10
111.777987
 20
48.748811
 30
0.0
 10
111.777987
 20
50.145810
 30
0.0
 10
109.703654
 20
50.145810
 30
0.0
 10
109.703654
 20
48.452477
 30
0.0
 10
109.703654
 20
48.018561
 30
0.0
 10
109.703654
 20
47.066061
 30
0.0
 10
112.920986
 20
47.066061
 30
0.0
  0
LWPOLYLINE
  5
111
100
AcDbEntity
  8
area_engraving
 62
6
100
AcDbPolyline
 90
14
 70
1
 10
68.407578
 20
31.950594
 30
0.0
 10
64.565829
 20
31.950594
 30
0.0
 10
63.549830
 20
32.934833
 30
0.0
 10
63.549830
 20
38.522832
 30
0.0
 10
64.565829
 20
39.189582
 30
0.0
 10
67.074079
 20
39.189582
 30
0.0
 10
68.407578
 20
39.189582
 30
0.0
 10
68.407578
 20
37.570332
 30
0.0
 10
68.407578
 20
36.459082
 30
0.0
 10
67.074079
 20
36.459082
 30
0.0
 10
67.074079
 20
37.570332
 30
0.0
 10
65.391329
 20
37.570332
 30
0.0
 10
65.391329
 20
33.569833
 30
0.0
 10
68.407578
 20
33.569833
 30
0.0
  0
LWPOLYLINE
  5
112
100
AcDbEntity
  8
area_engraving
 62
6
100
AcDbPolyline
 90
10
 70
1
 10
70.227906
 20
31.950594
 30
0.0
 10
70.227906
 20
33.982583
 30
0.0
 10
70.227906
 20
35.718249
 30
0.0
 10
69.307156
 20
35.718249
 30
0.0
 10
69.307156
 20
39.284832
 30
0.0
 10
70.227906
 20
39.284832
 30
0.0
 10
71.497905
 20
39.284832
 30
0.0
 10
71.497905
 20
33.982583
 30
0.0
 10
71.497905
 20
31.950594
 30
0.0
 10
70.259656
 20
31.950594
 30
0.0
  0
LWPOLYLINE
  5
113
100
AcDbEntity
  8
area_engraving
 62
6
100
AcDbPolyline
 90
8
 70
1
 10
77.435135
 20
36.797749
 30
0.0
 10
77.435135
 20
32.987750
 30
0.0
 10
76.609636
 20
31.950594
 30
0.0
 10
73.244136
 20
31.950594
 30
0.0
 10
72.323387
 20
33.019500
 30
0.0
 10
72.323387
 20
36.903582
 30
0.0
 10
73.476970
 20
37.930165
 30
0.0
 10
76.546136
 20
37.930165
 30
0.0
  0
LWPOLYLINE
  5
114
100
AcDbEntity
  8
area_engraving
 62
6
100
AcDbPolyline
 90
7
 70
1
 10
74.715219
 20
33.442833
 30
0.0
 10
75.911136
 20
33.442833
 30
0.0
 10
75.911136
 20
34.998583
 30
0.0
 10
75.911136
 20
36.268582
 30
0.0
 10
73.720386
 20
36.268582
 30
0.0
 10
73.720386
 20
34.564666
 30
0.0
 10
74.715219
 20
34.564666
 30
0.0
  0
LWPOLYLINE
  5
115
100
AcDbEntity
  8
area_engraving
 62
6
100
AcDbPolyline
 90
16
 70
1
 10
83.340618
 20
31.950594
 30
0.0
 10
79.287202
 20
31.950594
 30
0.0
 10
78.302953
 20
32.807833
 30
0.0
 10
78.302953
 20
36.660166
 30
0.0
 10
79.572952
 20
37.951332
 30
0.0
 10
82.197618
 20
37.951332
 30
0.0
 10
83.414701
 20
37.951332
 30
0.0
 10
83.414701
 20
36.490832
 30
0.0
 10
83.414701
 20
35.093833
 30
0.0
 10
82.197618
 20
35.093833
 30
0.0
 10
82.197618
 20
36.490832
 30
0.0
 10
80.123285
 20
36.490832
 30
0.0
 10
80.123285
 20
34.797499
 30
0.0
 10
80.123285
 20
34.363583
 30
0.0
 10
80.123285
 20
33.411083
 30
0.0
 10
83.340618
 20
33.411083
 30
0.0
  0
SPLINE
  5
116
100
AcDbEntity
  8
cutting
 62
5
100
AcDbSpline
 70
8
 71
3
 72
8
 73
4
 74
0
 40
0
 40
0
 40
0
 40
0
 40
1
 40
1
 40
1
 40
1
 10
122.565237
 20
84.586626
 30
0.0
 10
122.564910
 20
84.023716
 30
0.0
 10
122.865032
 20
83.503425
 30
0.0
 10
123.352473
 20
83.221876
 30
0.0
  0
SPLINE
  5
117
100
AcDbEntity
  8
cutting
 62
5
100
AcDbSpline
 70
8
 71
3
 72
8
 73
4
 74
0
 40
0
 40
0
 40
0
 40
0
 40
1
 40
1
 40
1
 40
1
 10
123.352473
 20
83.221876
 30
0.0
 10
123.839913
 20
82.940326
 30
0.0
 10
124.440559
 20
82.940326
 30
0.0
 10
124.927999
 20
83.221876
 30
0.0
  0
SPLINE
  5
118
100
AcDbEntity
  8
cutting
 62
5
100
AcDbSpline
 70
8
 71
3
 72
8
 73
4
 74
0
 40
0
 40
0
 40
0
 40
0
 40
1
 40
1
 40
1
 40
1
 10
124.927999
 20
83.221876
 30
0.0
 10
125.415440
 20
83.503425
 30
0.0
 10
125.715562
 20
84.023716
 30
0.0
 10
125.715235
 20
84.586626
 30
0.0
  0
SPLINE
  5
119
100
AcDbEntity
  8
cutting
 62
5
100
AcDbSpline
 70
8
 71
3
 72
8
 73
4
 74
0
 40
0
 40
0
 40
0
 40
0
 40
1
 40
1
 40
1
 40
1
 10
125.715235
 20
84.586626
 30
0.0
 10
125.715562
 20
85.149537
 30
0.0
 10
125.415440
 20
85.669827
 30
0.0
 10
124.927999
 20
85.951377
 30
0.0
  0
SPLINE
  5
11a
100
AcDbEntity
  8
cutting
 62
5
100
AcDbSpline
 70
8
 71
3
 72
8
 73
4
 74
0
 40
0
 40
0
 40
0
 40
0
 40
1
 40
1
 40
1
 40
1
 10
124.927999
 20
85.951377
 30
0.0
 10
124.440559
 20
86.232926
 30
0.0
 10
123.839913
 20
86.232926
 30
0.0
 10
123.352473
 20
85.951377
 30
0.0
  0
SPLINE
  5
11b
100
AcDbEntity
  8
cutting
 62
5
100
AcDbSpline
 70
8
 71
3
 72
8
 73
4
 74
0
 40
0
 40
0
 40
0
 40
0
 40
1
 40
1
 40
1
 40
1
 10
123.352473
 20
85.951377
 30
0.0
 10
122.865032
 20
85.669827
 30
0.0
 10
122.564910
 20
85.149537
 30
0.0
 10
122.565237
 20
84.586626
 30
0.0
  0
LWPOLYLINE
  5
11c
100
AcDbEntity
  8
area_engraving
 62
6
100
AcDbPolyline
 90
18
 70
1
 10
86.028770
 20
31.950594
 30
0.0
 10
84.377771
 20
31.950594
 30
0.0
 10
84.377771
 20
39.602331
 30
0.0
 10
86.600270
 20
39.602331
 30
0.0
 10
86.600270
 20
35.951082
 30
0.0
 10
88.092520
 20
35.951082
 30
0.0
 10
88.092520
 20
37.919582
 30
0.0
 10
89.489519
 20
37.919582
 30
0.0
 10
89.489519
 20
35.178499
 30
0.0
 10
88.727520
 20
34.363583
 30
0.0
 10
88.314770
 20
34.363583
 30
0.0
 10
88.314770
 20
31.580178
 30
0.0
 10
89.436603
 20
31.580178
 30
0.0
 10
89.436603
 20
30.151428
 30
0.0
 10
87.584520
 20
30.151428
 30
0.0
 10
86.949520
 20
30.691178
 30
0.0
 10
86.949520
 20
34.363583
 30
0.0
 10
86.028770
 20
34.363583
 30
0.0
  0
SPLINE
  5
11d
100
AcDbEntity
  8
cutting
 62
5
100
AcDbSpline
 70
8
 71
3
 72
8
 73
4
 74
0
 40
0
 40
0
 40
0
 40
0
 40
1
 40
1
 40
1
 40
1
 10
22.287092
 20
32.308469
 30
0.0
 10
22.286766
 20
31.745559
 30
0.0
 10
22.586887
 20
31.225269
 30
0.0
 10
23.074328
 20
30.943719
 30
0.0
  0
SPLINE
  5
11e
100
AcDbEntity
  8
cutting
 62
5
100
AcDbSpline
 70
8
 71
3
 72
8
 73
4
 74
0
 40
0
 40
0
 40
0
 40
0
 40
1
 40
1
 40
1
 40
1
 10
23.074328
 20
30.943719
 30
0.0
 10
23.561768
 20
30.662170
 30
0.0
 10
24.162414
 20
30.662170
 30
0.0
 10
24.649855
 20
30.943719
 30
0.0
  0
SPLINE
  5
11f
100
AcDbEntity
  8
cutting
 62
5
100
AcDbSpline
 70
8
 71
3
 72
8
 73
4
 74
0
 40
0
 40
0
 40
0
 40
0
 40
1
 40
1
 40
1
 40
1
 10
24.649855
 20
30.943719
 30
0.0
 10
25.137295
 20
31.225269
 30
0.0
 10
25.437417
 20
31.745559
 30
0.0
 10
25.437091
 20
32.308469
 30
0.0
  0
SPLINE
  5
120
100
AcDbEntity
  8
cutting
 62
5
100
AcDbSpline
 70
8
 71
3
 72
8
 73
4
 74
0
 40
0
 40
0
 40
0
 40
0
 40
1
 40
1
 40
1
 40
1
 10
25.437091
 20
32.308469
 30
0.0
 10
25.437417
 20
32.871380
 30
0.0
 10
25.137295
 20
33.391670
 30
0.0
 10
24.649855
 20
33.673220
 30
0.0
  0
SPLINE
  5
121
100
AcDbEntity
  8
cutting
 62
5
100
AcDbSpline
 70
8
 71
3
 72
8
 73
4
 74
0
 40
0
 40
0
 40
0
 40
0
 40
1
 40
1
 40
1
 40
1
 10
24.649855
 20
33.673220
 30
0.0
 10
24.162414
 20
33.954769
 30
0.0
 10
23.561768
 20
33.954769
 30
0.0
 10
23.074328
 20
33.673220
 30
0.0
  0
SPLINE
  5
122
100
AcDbEntity
  8
cutting
 62
5
100
AcDbSpline
 70
8
 71
3
 72
8
 73
4
 74
0
 40
0
 40
0
 40
0
 40
0
 40
1
 40
1
 40
1
 40
1
 10
23.074328
 20
33.673220
 30
0.0
 10
22.586887
 20
33.391670
 30
0.0
 10
22.286766
 20
32.871380
 30
0.0
 10
22.287092
 20
32.308469
 30
0.0
  0
LWPOLYLINE
  5
123
100
AcDbEntity
  8
cutting
 62
5
100
AcDbPolyline
 90
1
 70
1
 10
122.565237
 20
84.586626
 30
0.0
  0
SPLINE
  5
124
100
AcDbEntity
  8
cutting
 62
5
100
AcDbSpline
 70
8
 71
3
 72
8
 73
4
 74
0
 40
0
 40
0
 40
0
 40
0
 40
1
 40
1
 40
1
 40
1
 10
22.287092
 20
84.586626
 30
0.0
 10
22.286766
 20
84.023716
 30
0.0
 10
22.586887
 20
83.503425
 30
0.0
 10
23.074328
 20
83.221876
 30
0.0
  0
SPLINE
  5
125
100
AcDbEntity
  8
cutting
 62
5
100
AcDbSpline
 70
8
 71
3
 72
8
 73
4
 74
0
 40
0
 40
0
 40
0
 40
0
 40
1
 40
1
 40
1
 40
1
 10
23.074328
 20
83.221876
 30
0.0
 10
23.561768
 20
82.940326
 30
0.0
 10
24.162414
 20
82.940326
 30
0.0
 10
24.649855
 20
83.221876
 30
0.0
  0
SPLINE
  5
126
100
AcDbEntity
  8
cutting
 62
5
100
AcDbSpline
 70
8
 71
3
 72
8
 73
4
 74
0
 40
0
 40
0
 40
0
 40
0
 40
1
 40
1
 40
1
 40
1
 10
24.649855
 20
83.221876
 30
0.0
 10
25.137295
 20
83.503425
 30
0.0
 10
25.437417
 20
84.023716
 30
0.0
 10
25.437091
 20
84.586626
 30
0.0
  0
SPLINE
  5
127
100
AcDbEntity
  8
cutting
 62
5
100
AcDbSpline
 70
8
 71
3
 72
8
 73
4
 74
0
 40
0
 40
0
 40
0
 40
0
 40
1
 40
1
 40
1
 40
1
 10
25.437091
 20
84.586626
 30
0.0
 10
25.437417
 20
85.149537
 30
0.0
 10
25.137295
 20
85.669827
 30
0.0
 10
24.649855
 20
85.951377
 30
0.0
  0
SPLINE
  5
128
100
AcDbEntity
  8
cutting
 62
5
100
AcDbSpline
 70
8
 71
3
 72
8
 73
4
 74
0
 40
0
 40
0
 40
0
 40
0
 40
1
 40
1
 40
1
 40
1
 10
24.649855
 20
85.951377
 30
0.0
 10
24.162414
 20
86.232926
 30
0.0
 10
23.561768
 20
86.232926
 30
0.0
 10
23.074328
 20
85.951377
 30
0.0
  0
SPLINE
  5
129
100
AcDbEntity
  8
cutting
 62
5
100
AcDbSpline
 70
8
 71
3
 72
8
 73
4
 74
0
 40
0
 40
0
 40
0
 40
0
 40
1
 40
1
 40
1
 40
1
 10
23.074328
 20
85.951377
 30
0.0
 10
22.586887
 20
85.669827
 30
0.0
 10
22.286766
 20
85.149537
 30
0.0
 10
22.287092
 20
84.586626
 30
0.0
  0
LWPOLYLINE
  5
12a
100
AcDbEntity
  8
cutting
 62
5
100
AcDbPolyline
 90
1
 70
1
 10
22.287092
 20
32.308469
 30
0.0
  0
LWPOLYLINE
  5
12b
100
AcDbEntity
  8
cutting
 62
5
100
AcDbPolyline
 90
1
 70
1
 10
22.287092
 20
84.586626
 30
0.0
  0
SPLINE
  5
12c
100
AcDbEntity
  8
cutting
 62
5
100
AcDbSpline
 70
8
 71
3
 72
8
 73
4
 74
0
 40
0
 40
0
 40
0
 40
0
 40
1
 40
1
 40
1
 40
1
 10
122.565237
 20
32.308469
 30
0.0
 10
122.564910
 20
31.745559
 30
0.0
 10
122.865032
 20
31.225269
 30
0.0
 10
123.352473
 20
30.943719
 30
0.0
  0
SPLINE
  5
12d
100
AcDbEntity
  8
cutting
 62
5
100
AcDbSpline
 70
8
 71
3
 72
8
 73
4
 74
0
 40
0
 40
0
 40
0
 40
0
 40
1
 40
1
 40
1
 40
1
 10
123.352473
 20
30.943719
 30
0.0
 10
123.839913
 20
30.662170
 30
0.0
 10
124.440559
 20
30.662170
 30
0.0
 10
124.927999
 20
30.943719
 30
0.0
  0
SPLINE
  5
12e
100
AcDbEntity
  8
cutting
 62
5
100
AcDbSpline
 70
8
 71
3
 72
8
 73
4
 74
0
 40
0
 40
0
 40
0
 40
0
 40
1
 40
1
 40
1
 40
1
 10
124.927999
 20
30.943719
 30
0.0
 10
125.415440
 20
31.225269
 30
0.0
 10
125.715562
 20
31.745559
 30
0.0
 10
125.715235
 20
32.308469
 30
0.0
  0
SPLINE
  5
12f
100
AcDbEntity
  8
cutting
 62
5
100
AcDbSpline
 70
8
 71
3
 72
8
 73
4
 74
0
 40
0
 40
0
 40
0
 40
0
 40
1
 40
1
 40
1
 40
1
 10
125.715235
 20
32.308469
 30
0.0
 10
125.715562
 20
32.871380
 30
0.0
 10
125.415440
 20
33.391670
 30
0.0
 10
124.927999
 20
33.673220
 30
0.0
  0
SPLINE
  5
130
100
AcDbEntity
  8
cutting
 62
5
100
AcDbSpline
 70
8
 71
3
 72
8
 73
4
 74
0
 40
0
 40
0
 40
0
 40
0
 40
1
 40
1
 40
1
 40
1
 10
124.927999
 20
33.673220
 30
0.0
 10
124.440559
 20
33.954769
 30
0.0
 10
123.839913
 20
33.954769
 30
0.0
 10
123.352473
 20
33.673220
 30
0.0
  0
SPLINE
  5
131
100
AcDbEntity
  8
cutting
 62
5
100
AcDbSpline
 70
8
 71
3
 72
8
 73
4
 74
0
 40
0
 40
0
 40
0
 40
0
 40
1
 40
1
 40
1
 40
1
 10
123.352473
 20
33.673220
 30
0.0
 10
122.865032
 20
33.391670
 30
0.0
 10
122.564910
 20
32.871380
 30
0.0
 10
122.565237
 20
32.308469
 30
0.0
  0
LWPOLYLINE
  5
132
100
AcDbEntity
  8
cutting
 62
5
100
AcDbPolyline
 90
4
 70
1
 10
80.779161
 20
62.677757
 30
0.0
 10
26.279177
 20
62.677757
 30
0.0
 10
26.279177
 20
59.077546
 30
0.0
 10
80.779161
 20
59.077546
 30
0.0
  0
LWPOLYLINE
  5
133
100
AcDbEntity
  8
cutting
 62
5
100
AcDbPolyline
 90
1
 70
1
 10
122.565237
 20
32.308469
 30
0.0
  0
SPLINE
  5
134
100
AcDbEntity
  8
cutting
 62
5
100
AcDbSpline
 70
8
 71
3
 72
8
 73
4
 74
0
 40
0
 40
0
 40
0
 40
0
 40
1
 40
1
 40
1
 40
1
 10
120.251149
 20
91.697534
 30
0.0
 10
126.326278
 20
91.697535
 30
0.0
 10
131.251145
 20
86.772672
 30
0.0
 10
131.251148
 20
80.697543
 30
0.0
  0
LWPOLYLINE
  5
135
100
AcDbEntity
  8
cutting
 62
5
100
AcDbPolyline
 90
2
 70
0
 10
27.751178
 20
91.697534
 30
0.0
 10
120.251149
 20
91.697534
 30
0.0
  0
SPLINE
  5
136
100
AcDbEntity
  8
cutting
 62
5
100
AcDbSpline
 70
8
 71
3
 72
8
 73
4
 74
0
 40
0
 40
0
 40
0
 40
0
 40
1
 40
1
 40
1
 40
1
 10
131.251148
 20
36.197550
 30
0.0
 10
131.251146
 20
30.122420
 30
0.0
 10
126.326279
 20
25.197555
 30
0.0
 10
120.251149
 20
25.197556
 30
0.0
  0
LWPOLYLINE
  5
137
100
AcDbEntity
  8
cutting
 62
5
100
AcDbPolyline
 90
2
 70
0
 10
131.251148
 20
80.697543
 30
0.0
 10
131.251148
 20
36.197550
 30
0.0
  0
SPLINE
  5
138
100
AcDbEntity
  8
cutting
 62
5
100
AcDbSpline
 70
8
 71
3
 72
8
 73
4
 74
0
 40
0
 40
0
 40
0
 40
0
 40
1
 40
1
 40
1
 40
1
 10
27.751178
 20
25.197556
 30
0.0
 10
21.676048
 20
25.197556
 30
0.0
 10
16.751181
 20
30.122420
 30
0.0
 10
16.751179
 20
36.197550
 30
0.0
  0
LWPOLYLINE
  5
139
100
AcDbEntity
  8
cutting
 62
5
100
AcDbPolyline
 90
2
 70
0
 10
120.251149
 20
25.197556
 30
0.0
 10
27.751178
 20
25.197556
 30
0.0
  0
SPLINE
  5
13a
100
AcDbEntity
  8
cutting
 62
5
100
AcDbSpline
 70
8
 71
3
 72
8
 73
4
 74
0
 40
0
 40
0
 40
0
 40
0
 40
1
 40
1
 40
1
 40
1
 10
16.751179
 20
80.697543
 30
0.0
 10
16.751183
 20
86.772672
 30
0.0
 10
21.676049
 20
91.697535
 30
0.0
 10
27.751178
 20
91.697534
 30
0.0
  0
LWPOLYLINE
  5
13b
100
AcDbEntity
  8
cutting
 62
5
100
AcDbPolyline
 90
2
 70
0
 10
16.751179
 20
36.197550
 30
0.0
 10
16.751179
 20
80.697543
 30
0.0
  0
LWPOLYLINE
  5
13c
100
AcDbEntity
  8
cutting
 62
5
100
AcDbPolyline
 90
1
 70
1
 10
27.751178
 20
91.697534
 30
0.0
  0
ENDSEC
  0
SECTION
  2
OBJECTS
  0
DICTIONARY
  5
C
330
0
100
AcDbDictionary
  3
ACAD_GROUP
350
D
  3
ACAD_MLINESTYLE
350
17
  0
DICTIONARY
  5
D
330
C
100
AcDbDictionary
  0
DICTIONARY
  5
1A
330
C
100
AcDbDictionary
  0
DICTIONARY
  5
17
330
C
100
AcDbDictionary
  3
STANDARD
350
18
  0
DICTIONARY
  5
19
330
C
100
AcDbDictionary
  0
ENDSEC
  0
EOF
