M48
INCH,TZ
T1C0.0157
T2C0.0287
T3C0.0394
%
G90
G05
T1
X52310Y-27630
X59370Y-27600
X61900Y-43900
X63640Y-27590
X63650Y-28380
X67830Y-28260
X68700Y-35600
X72500Y-31460
T2
X61500Y-29437
X61500Y-32563
X62500Y-29437
X62500Y-32563
X63500Y-29437
X63500Y-32563
X64500Y-29437
X64500Y-32563
X65500Y-29437
X65500Y-32563
X66500Y-29437
X66500Y-32563
X67500Y-29437
X67500Y-32563
X68500Y-29437
X68500Y-32563
X69500Y-29437
X69500Y-32563
X70500Y-29437
X70500Y-32563
X50000Y-29437
X50000Y-32563
X51000Y-29437
X51000Y-32563
X52000Y-29437
X52000Y-32563
X53000Y-29437
X53000Y-32563
X54000Y-29437
X54000Y-32563
X55000Y-29437
X55000Y-32563
X56000Y-29437
X56000Y-32563
X57000Y-29437
X57000Y-32563
X58000Y-29437
X58000Y-32563
X59000Y-29437
X59000Y-32563
X50000Y-38937
X50000Y-42063
X51000Y-38937
X51000Y-42063
X52000Y-38937
X52000Y-42063
X53000Y-38937
X53000Y-42063
X54000Y-38937
X54000Y-42063
X55000Y-38937
X55000Y-42063
X56000Y-38937
X56000Y-42063
X57000Y-38937
X57000Y-42063
X58000Y-38937
X58000Y-42063
X59000Y-38937
X59000Y-42063
X61500Y-38937
X61500Y-42063
X62500Y-38937
X62500Y-42063
X63500Y-38937
X63500Y-42063
X64500Y-38937
X64500Y-42063
X65500Y-38937
X65500Y-42063
X66500Y-38937
X66500Y-42063
X67500Y-38937
X67500Y-42063
X68500Y-38937
X68500Y-42063
X69500Y-38937
X69500Y-42063
X70500Y-38937
X70500Y-42063
T3
X53500Y-36000
X53500Y-37000
X54500Y-36000
X54500Y-37000
X55500Y-36000
X55500Y-37000
X56500Y-36000
X56500Y-37000
X57500Y-36000
X57500Y-37000
X58500Y-36000
X58500Y-37000
X59500Y-36000
X59500Y-37000
X60500Y-36000
X60500Y-37000
X61500Y-36000
X61500Y-37000
X62500Y-36000
X62500Y-37000
X63500Y-36000
X63500Y-37000
X64500Y-36000
X64500Y-37000
X65500Y-36000
X65500Y-37000
X66500Y-36000
X66500Y-37000
X67500Y-36000
X67500Y-37000
X75000Y-31500
X75000Y-40500
X76000Y-31500
X76000Y-40500
X77000Y-31500
X77000Y-40500
X78000Y-31500
X78000Y-40500
X79000Y-31500
X79000Y-40500
X80000Y-31500
X80000Y-40500
X81000Y-31500
X81000Y-40500
X82000Y-31500
X82000Y-40500
T0
M30
