G04 #@! TF.GenerationSoftware,KiCad,Pcbnew,(5.1.5)-3*
G04 #@! TF.CreationDate,2021-05-12T20:45:07+02:00*
G04 #@! TF.ProjectId,thermochromic clock resistors driver,74686572-6d6f-4636-9872-6f6d69632063,1*
G04 #@! TF.SameCoordinates,Original*
G04 #@! TF.FileFunction,Paste,Top*
G04 #@! TF.FilePolarity,Positive*
%FSLAX46Y46*%
G04 Gerber Fmt 4.6, Leading zero omitted, Abs format (unit mm)*
G04 Created by KiCad (PCBNEW (5.1.5)-3) date 2021-05-12 20:45:07*
%MOMM*%
%LPD*%
G04 APERTURE LIST*
%ADD10R,0.700000X1.150000*%
%ADD11R,0.800000X1.150000*%
%ADD12R,0.900000X1.150000*%
%ADD13C,0.152400*%
G04 APERTURE END LIST*
D10*
X205240000Y-73660000D03*
X206240000Y-73660000D03*
D11*
X207260000Y-73660000D03*
X204220000Y-73660000D03*
D12*
X208490000Y-73660000D03*
X202990000Y-73660000D03*
D13*
G36*
X174464505Y-86811204D02*
G01*
X174488773Y-86814804D01*
X174512572Y-86820765D01*
X174535671Y-86829030D01*
X174557850Y-86839520D01*
X174578893Y-86852132D01*
X174598599Y-86866747D01*
X174616777Y-86883223D01*
X174633253Y-86901401D01*
X174647868Y-86921107D01*
X174660480Y-86942150D01*
X174670970Y-86964329D01*
X174679235Y-86987428D01*
X174685196Y-87011227D01*
X174688796Y-87035495D01*
X174690000Y-87059999D01*
X174690000Y-87710001D01*
X174688796Y-87734505D01*
X174685196Y-87758773D01*
X174679235Y-87782572D01*
X174670970Y-87805671D01*
X174660480Y-87827850D01*
X174647868Y-87848893D01*
X174633253Y-87868599D01*
X174616777Y-87886777D01*
X174598599Y-87903253D01*
X174578893Y-87917868D01*
X174557850Y-87930480D01*
X174535671Y-87940970D01*
X174512572Y-87949235D01*
X174488773Y-87955196D01*
X174464505Y-87958796D01*
X174440001Y-87960000D01*
X173539999Y-87960000D01*
X173515495Y-87958796D01*
X173491227Y-87955196D01*
X173467428Y-87949235D01*
X173444329Y-87940970D01*
X173422150Y-87930480D01*
X173401107Y-87917868D01*
X173381401Y-87903253D01*
X173363223Y-87886777D01*
X173346747Y-87868599D01*
X173332132Y-87848893D01*
X173319520Y-87827850D01*
X173309030Y-87805671D01*
X173300765Y-87782572D01*
X173294804Y-87758773D01*
X173291204Y-87734505D01*
X173290000Y-87710001D01*
X173290000Y-87059999D01*
X173291204Y-87035495D01*
X173294804Y-87011227D01*
X173300765Y-86987428D01*
X173309030Y-86964329D01*
X173319520Y-86942150D01*
X173332132Y-86921107D01*
X173346747Y-86901401D01*
X173363223Y-86883223D01*
X173381401Y-86866747D01*
X173401107Y-86852132D01*
X173422150Y-86839520D01*
X173444329Y-86829030D01*
X173467428Y-86820765D01*
X173491227Y-86814804D01*
X173515495Y-86811204D01*
X173539999Y-86810000D01*
X174440001Y-86810000D01*
X174464505Y-86811204D01*
G37*
G36*
X174464505Y-84761204D02*
G01*
X174488773Y-84764804D01*
X174512572Y-84770765D01*
X174535671Y-84779030D01*
X174557850Y-84789520D01*
X174578893Y-84802132D01*
X174598599Y-84816747D01*
X174616777Y-84833223D01*
X174633253Y-84851401D01*
X174647868Y-84871107D01*
X174660480Y-84892150D01*
X174670970Y-84914329D01*
X174679235Y-84937428D01*
X174685196Y-84961227D01*
X174688796Y-84985495D01*
X174690000Y-85009999D01*
X174690000Y-85660001D01*
X174688796Y-85684505D01*
X174685196Y-85708773D01*
X174679235Y-85732572D01*
X174670970Y-85755671D01*
X174660480Y-85777850D01*
X174647868Y-85798893D01*
X174633253Y-85818599D01*
X174616777Y-85836777D01*
X174598599Y-85853253D01*
X174578893Y-85867868D01*
X174557850Y-85880480D01*
X174535671Y-85890970D01*
X174512572Y-85899235D01*
X174488773Y-85905196D01*
X174464505Y-85908796D01*
X174440001Y-85910000D01*
X173539999Y-85910000D01*
X173515495Y-85908796D01*
X173491227Y-85905196D01*
X173467428Y-85899235D01*
X173444329Y-85890970D01*
X173422150Y-85880480D01*
X173401107Y-85867868D01*
X173381401Y-85853253D01*
X173363223Y-85836777D01*
X173346747Y-85818599D01*
X173332132Y-85798893D01*
X173319520Y-85777850D01*
X173309030Y-85755671D01*
X173300765Y-85732572D01*
X173294804Y-85708773D01*
X173291204Y-85684505D01*
X173290000Y-85660001D01*
X173290000Y-85009999D01*
X173291204Y-84985495D01*
X173294804Y-84961227D01*
X173300765Y-84937428D01*
X173309030Y-84914329D01*
X173319520Y-84892150D01*
X173332132Y-84871107D01*
X173346747Y-84851401D01*
X173363223Y-84833223D01*
X173381401Y-84816747D01*
X173401107Y-84802132D01*
X173422150Y-84789520D01*
X173444329Y-84779030D01*
X173467428Y-84770765D01*
X173491227Y-84764804D01*
X173515495Y-84761204D01*
X173539999Y-84760000D01*
X174440001Y-84760000D01*
X174464505Y-84761204D01*
G37*
G36*
X174464505Y-110941204D02*
G01*
X174488773Y-110944804D01*
X174512572Y-110950765D01*
X174535671Y-110959030D01*
X174557850Y-110969520D01*
X174578893Y-110982132D01*
X174598599Y-110996747D01*
X174616777Y-111013223D01*
X174633253Y-111031401D01*
X174647868Y-111051107D01*
X174660480Y-111072150D01*
X174670970Y-111094329D01*
X174679235Y-111117428D01*
X174685196Y-111141227D01*
X174688796Y-111165495D01*
X174690000Y-111189999D01*
X174690000Y-111840001D01*
X174688796Y-111864505D01*
X174685196Y-111888773D01*
X174679235Y-111912572D01*
X174670970Y-111935671D01*
X174660480Y-111957850D01*
X174647868Y-111978893D01*
X174633253Y-111998599D01*
X174616777Y-112016777D01*
X174598599Y-112033253D01*
X174578893Y-112047868D01*
X174557850Y-112060480D01*
X174535671Y-112070970D01*
X174512572Y-112079235D01*
X174488773Y-112085196D01*
X174464505Y-112088796D01*
X174440001Y-112090000D01*
X173539999Y-112090000D01*
X173515495Y-112088796D01*
X173491227Y-112085196D01*
X173467428Y-112079235D01*
X173444329Y-112070970D01*
X173422150Y-112060480D01*
X173401107Y-112047868D01*
X173381401Y-112033253D01*
X173363223Y-112016777D01*
X173346747Y-111998599D01*
X173332132Y-111978893D01*
X173319520Y-111957850D01*
X173309030Y-111935671D01*
X173300765Y-111912572D01*
X173294804Y-111888773D01*
X173291204Y-111864505D01*
X173290000Y-111840001D01*
X173290000Y-111189999D01*
X173291204Y-111165495D01*
X173294804Y-111141227D01*
X173300765Y-111117428D01*
X173309030Y-111094329D01*
X173319520Y-111072150D01*
X173332132Y-111051107D01*
X173346747Y-111031401D01*
X173363223Y-111013223D01*
X173381401Y-110996747D01*
X173401107Y-110982132D01*
X173422150Y-110969520D01*
X173444329Y-110959030D01*
X173467428Y-110950765D01*
X173491227Y-110944804D01*
X173515495Y-110941204D01*
X173539999Y-110940000D01*
X174440001Y-110940000D01*
X174464505Y-110941204D01*
G37*
G36*
X174464505Y-108891204D02*
G01*
X174488773Y-108894804D01*
X174512572Y-108900765D01*
X174535671Y-108909030D01*
X174557850Y-108919520D01*
X174578893Y-108932132D01*
X174598599Y-108946747D01*
X174616777Y-108963223D01*
X174633253Y-108981401D01*
X174647868Y-109001107D01*
X174660480Y-109022150D01*
X174670970Y-109044329D01*
X174679235Y-109067428D01*
X174685196Y-109091227D01*
X174688796Y-109115495D01*
X174690000Y-109139999D01*
X174690000Y-109790001D01*
X174688796Y-109814505D01*
X174685196Y-109838773D01*
X174679235Y-109862572D01*
X174670970Y-109885671D01*
X174660480Y-109907850D01*
X174647868Y-109928893D01*
X174633253Y-109948599D01*
X174616777Y-109966777D01*
X174598599Y-109983253D01*
X174578893Y-109997868D01*
X174557850Y-110010480D01*
X174535671Y-110020970D01*
X174512572Y-110029235D01*
X174488773Y-110035196D01*
X174464505Y-110038796D01*
X174440001Y-110040000D01*
X173539999Y-110040000D01*
X173515495Y-110038796D01*
X173491227Y-110035196D01*
X173467428Y-110029235D01*
X173444329Y-110020970D01*
X173422150Y-110010480D01*
X173401107Y-109997868D01*
X173381401Y-109983253D01*
X173363223Y-109966777D01*
X173346747Y-109948599D01*
X173332132Y-109928893D01*
X173319520Y-109907850D01*
X173309030Y-109885671D01*
X173300765Y-109862572D01*
X173294804Y-109838773D01*
X173291204Y-109814505D01*
X173290000Y-109790001D01*
X173290000Y-109139999D01*
X173291204Y-109115495D01*
X173294804Y-109091227D01*
X173300765Y-109067428D01*
X173309030Y-109044329D01*
X173319520Y-109022150D01*
X173332132Y-109001107D01*
X173346747Y-108981401D01*
X173363223Y-108963223D01*
X173381401Y-108946747D01*
X173401107Y-108932132D01*
X173422150Y-108919520D01*
X173444329Y-108909030D01*
X173467428Y-108900765D01*
X173491227Y-108894804D01*
X173515495Y-108891204D01*
X173539999Y-108890000D01*
X174440001Y-108890000D01*
X174464505Y-108891204D01*
G37*
G36*
X145254505Y-86811204D02*
G01*
X145278773Y-86814804D01*
X145302572Y-86820765D01*
X145325671Y-86829030D01*
X145347850Y-86839520D01*
X145368893Y-86852132D01*
X145388599Y-86866747D01*
X145406777Y-86883223D01*
X145423253Y-86901401D01*
X145437868Y-86921107D01*
X145450480Y-86942150D01*
X145460970Y-86964329D01*
X145469235Y-86987428D01*
X145475196Y-87011227D01*
X145478796Y-87035495D01*
X145480000Y-87059999D01*
X145480000Y-87710001D01*
X145478796Y-87734505D01*
X145475196Y-87758773D01*
X145469235Y-87782572D01*
X145460970Y-87805671D01*
X145450480Y-87827850D01*
X145437868Y-87848893D01*
X145423253Y-87868599D01*
X145406777Y-87886777D01*
X145388599Y-87903253D01*
X145368893Y-87917868D01*
X145347850Y-87930480D01*
X145325671Y-87940970D01*
X145302572Y-87949235D01*
X145278773Y-87955196D01*
X145254505Y-87958796D01*
X145230001Y-87960000D01*
X144329999Y-87960000D01*
X144305495Y-87958796D01*
X144281227Y-87955196D01*
X144257428Y-87949235D01*
X144234329Y-87940970D01*
X144212150Y-87930480D01*
X144191107Y-87917868D01*
X144171401Y-87903253D01*
X144153223Y-87886777D01*
X144136747Y-87868599D01*
X144122132Y-87848893D01*
X144109520Y-87827850D01*
X144099030Y-87805671D01*
X144090765Y-87782572D01*
X144084804Y-87758773D01*
X144081204Y-87734505D01*
X144080000Y-87710001D01*
X144080000Y-87059999D01*
X144081204Y-87035495D01*
X144084804Y-87011227D01*
X144090765Y-86987428D01*
X144099030Y-86964329D01*
X144109520Y-86942150D01*
X144122132Y-86921107D01*
X144136747Y-86901401D01*
X144153223Y-86883223D01*
X144171401Y-86866747D01*
X144191107Y-86852132D01*
X144212150Y-86839520D01*
X144234329Y-86829030D01*
X144257428Y-86820765D01*
X144281227Y-86814804D01*
X144305495Y-86811204D01*
X144329999Y-86810000D01*
X145230001Y-86810000D01*
X145254505Y-86811204D01*
G37*
G36*
X145254505Y-84761204D02*
G01*
X145278773Y-84764804D01*
X145302572Y-84770765D01*
X145325671Y-84779030D01*
X145347850Y-84789520D01*
X145368893Y-84802132D01*
X145388599Y-84816747D01*
X145406777Y-84833223D01*
X145423253Y-84851401D01*
X145437868Y-84871107D01*
X145450480Y-84892150D01*
X145460970Y-84914329D01*
X145469235Y-84937428D01*
X145475196Y-84961227D01*
X145478796Y-84985495D01*
X145480000Y-85009999D01*
X145480000Y-85660001D01*
X145478796Y-85684505D01*
X145475196Y-85708773D01*
X145469235Y-85732572D01*
X145460970Y-85755671D01*
X145450480Y-85777850D01*
X145437868Y-85798893D01*
X145423253Y-85818599D01*
X145406777Y-85836777D01*
X145388599Y-85853253D01*
X145368893Y-85867868D01*
X145347850Y-85880480D01*
X145325671Y-85890970D01*
X145302572Y-85899235D01*
X145278773Y-85905196D01*
X145254505Y-85908796D01*
X145230001Y-85910000D01*
X144329999Y-85910000D01*
X144305495Y-85908796D01*
X144281227Y-85905196D01*
X144257428Y-85899235D01*
X144234329Y-85890970D01*
X144212150Y-85880480D01*
X144191107Y-85867868D01*
X144171401Y-85853253D01*
X144153223Y-85836777D01*
X144136747Y-85818599D01*
X144122132Y-85798893D01*
X144109520Y-85777850D01*
X144099030Y-85755671D01*
X144090765Y-85732572D01*
X144084804Y-85708773D01*
X144081204Y-85684505D01*
X144080000Y-85660001D01*
X144080000Y-85009999D01*
X144081204Y-84985495D01*
X144084804Y-84961227D01*
X144090765Y-84937428D01*
X144099030Y-84914329D01*
X144109520Y-84892150D01*
X144122132Y-84871107D01*
X144136747Y-84851401D01*
X144153223Y-84833223D01*
X144171401Y-84816747D01*
X144191107Y-84802132D01*
X144212150Y-84789520D01*
X144234329Y-84779030D01*
X144257428Y-84770765D01*
X144281227Y-84764804D01*
X144305495Y-84761204D01*
X144329999Y-84760000D01*
X145230001Y-84760000D01*
X145254505Y-84761204D01*
G37*
G36*
X145254505Y-110941204D02*
G01*
X145278773Y-110944804D01*
X145302572Y-110950765D01*
X145325671Y-110959030D01*
X145347850Y-110969520D01*
X145368893Y-110982132D01*
X145388599Y-110996747D01*
X145406777Y-111013223D01*
X145423253Y-111031401D01*
X145437868Y-111051107D01*
X145450480Y-111072150D01*
X145460970Y-111094329D01*
X145469235Y-111117428D01*
X145475196Y-111141227D01*
X145478796Y-111165495D01*
X145480000Y-111189999D01*
X145480000Y-111840001D01*
X145478796Y-111864505D01*
X145475196Y-111888773D01*
X145469235Y-111912572D01*
X145460970Y-111935671D01*
X145450480Y-111957850D01*
X145437868Y-111978893D01*
X145423253Y-111998599D01*
X145406777Y-112016777D01*
X145388599Y-112033253D01*
X145368893Y-112047868D01*
X145347850Y-112060480D01*
X145325671Y-112070970D01*
X145302572Y-112079235D01*
X145278773Y-112085196D01*
X145254505Y-112088796D01*
X145230001Y-112090000D01*
X144329999Y-112090000D01*
X144305495Y-112088796D01*
X144281227Y-112085196D01*
X144257428Y-112079235D01*
X144234329Y-112070970D01*
X144212150Y-112060480D01*
X144191107Y-112047868D01*
X144171401Y-112033253D01*
X144153223Y-112016777D01*
X144136747Y-111998599D01*
X144122132Y-111978893D01*
X144109520Y-111957850D01*
X144099030Y-111935671D01*
X144090765Y-111912572D01*
X144084804Y-111888773D01*
X144081204Y-111864505D01*
X144080000Y-111840001D01*
X144080000Y-111189999D01*
X144081204Y-111165495D01*
X144084804Y-111141227D01*
X144090765Y-111117428D01*
X144099030Y-111094329D01*
X144109520Y-111072150D01*
X144122132Y-111051107D01*
X144136747Y-111031401D01*
X144153223Y-111013223D01*
X144171401Y-110996747D01*
X144191107Y-110982132D01*
X144212150Y-110969520D01*
X144234329Y-110959030D01*
X144257428Y-110950765D01*
X144281227Y-110944804D01*
X144305495Y-110941204D01*
X144329999Y-110940000D01*
X145230001Y-110940000D01*
X145254505Y-110941204D01*
G37*
G36*
X145254505Y-108891204D02*
G01*
X145278773Y-108894804D01*
X145302572Y-108900765D01*
X145325671Y-108909030D01*
X145347850Y-108919520D01*
X145368893Y-108932132D01*
X145388599Y-108946747D01*
X145406777Y-108963223D01*
X145423253Y-108981401D01*
X145437868Y-109001107D01*
X145450480Y-109022150D01*
X145460970Y-109044329D01*
X145469235Y-109067428D01*
X145475196Y-109091227D01*
X145478796Y-109115495D01*
X145480000Y-109139999D01*
X145480000Y-109790001D01*
X145478796Y-109814505D01*
X145475196Y-109838773D01*
X145469235Y-109862572D01*
X145460970Y-109885671D01*
X145450480Y-109907850D01*
X145437868Y-109928893D01*
X145423253Y-109948599D01*
X145406777Y-109966777D01*
X145388599Y-109983253D01*
X145368893Y-109997868D01*
X145347850Y-110010480D01*
X145325671Y-110020970D01*
X145302572Y-110029235D01*
X145278773Y-110035196D01*
X145254505Y-110038796D01*
X145230001Y-110040000D01*
X144329999Y-110040000D01*
X144305495Y-110038796D01*
X144281227Y-110035196D01*
X144257428Y-110029235D01*
X144234329Y-110020970D01*
X144212150Y-110010480D01*
X144191107Y-109997868D01*
X144171401Y-109983253D01*
X144153223Y-109966777D01*
X144136747Y-109948599D01*
X144122132Y-109928893D01*
X144109520Y-109907850D01*
X144099030Y-109885671D01*
X144090765Y-109862572D01*
X144084804Y-109838773D01*
X144081204Y-109814505D01*
X144080000Y-109790001D01*
X144080000Y-109139999D01*
X144081204Y-109115495D01*
X144084804Y-109091227D01*
X144090765Y-109067428D01*
X144099030Y-109044329D01*
X144109520Y-109022150D01*
X144122132Y-109001107D01*
X144136747Y-108981401D01*
X144153223Y-108963223D01*
X144171401Y-108946747D01*
X144191107Y-108932132D01*
X144212150Y-108919520D01*
X144234329Y-108909030D01*
X144257428Y-108900765D01*
X144281227Y-108894804D01*
X144305495Y-108891204D01*
X144329999Y-108890000D01*
X145230001Y-108890000D01*
X145254505Y-108891204D01*
G37*
G36*
X130014505Y-71571204D02*
G01*
X130038773Y-71574804D01*
X130062572Y-71580765D01*
X130085671Y-71589030D01*
X130107850Y-71599520D01*
X130128893Y-71612132D01*
X130148599Y-71626747D01*
X130166777Y-71643223D01*
X130183253Y-71661401D01*
X130197868Y-71681107D01*
X130210480Y-71702150D01*
X130220970Y-71724329D01*
X130229235Y-71747428D01*
X130235196Y-71771227D01*
X130238796Y-71795495D01*
X130240000Y-71819999D01*
X130240000Y-72470001D01*
X130238796Y-72494505D01*
X130235196Y-72518773D01*
X130229235Y-72542572D01*
X130220970Y-72565671D01*
X130210480Y-72587850D01*
X130197868Y-72608893D01*
X130183253Y-72628599D01*
X130166777Y-72646777D01*
X130148599Y-72663253D01*
X130128893Y-72677868D01*
X130107850Y-72690480D01*
X130085671Y-72700970D01*
X130062572Y-72709235D01*
X130038773Y-72715196D01*
X130014505Y-72718796D01*
X129990001Y-72720000D01*
X129089999Y-72720000D01*
X129065495Y-72718796D01*
X129041227Y-72715196D01*
X129017428Y-72709235D01*
X128994329Y-72700970D01*
X128972150Y-72690480D01*
X128951107Y-72677868D01*
X128931401Y-72663253D01*
X128913223Y-72646777D01*
X128896747Y-72628599D01*
X128882132Y-72608893D01*
X128869520Y-72587850D01*
X128859030Y-72565671D01*
X128850765Y-72542572D01*
X128844804Y-72518773D01*
X128841204Y-72494505D01*
X128840000Y-72470001D01*
X128840000Y-71819999D01*
X128841204Y-71795495D01*
X128844804Y-71771227D01*
X128850765Y-71747428D01*
X128859030Y-71724329D01*
X128869520Y-71702150D01*
X128882132Y-71681107D01*
X128896747Y-71661401D01*
X128913223Y-71643223D01*
X128931401Y-71626747D01*
X128951107Y-71612132D01*
X128972150Y-71599520D01*
X128994329Y-71589030D01*
X129017428Y-71580765D01*
X129041227Y-71574804D01*
X129065495Y-71571204D01*
X129089999Y-71570000D01*
X129990001Y-71570000D01*
X130014505Y-71571204D01*
G37*
G36*
X130014505Y-69521204D02*
G01*
X130038773Y-69524804D01*
X130062572Y-69530765D01*
X130085671Y-69539030D01*
X130107850Y-69549520D01*
X130128893Y-69562132D01*
X130148599Y-69576747D01*
X130166777Y-69593223D01*
X130183253Y-69611401D01*
X130197868Y-69631107D01*
X130210480Y-69652150D01*
X130220970Y-69674329D01*
X130229235Y-69697428D01*
X130235196Y-69721227D01*
X130238796Y-69745495D01*
X130240000Y-69769999D01*
X130240000Y-70420001D01*
X130238796Y-70444505D01*
X130235196Y-70468773D01*
X130229235Y-70492572D01*
X130220970Y-70515671D01*
X130210480Y-70537850D01*
X130197868Y-70558893D01*
X130183253Y-70578599D01*
X130166777Y-70596777D01*
X130148599Y-70613253D01*
X130128893Y-70627868D01*
X130107850Y-70640480D01*
X130085671Y-70650970D01*
X130062572Y-70659235D01*
X130038773Y-70665196D01*
X130014505Y-70668796D01*
X129990001Y-70670000D01*
X129089999Y-70670000D01*
X129065495Y-70668796D01*
X129041227Y-70665196D01*
X129017428Y-70659235D01*
X128994329Y-70650970D01*
X128972150Y-70640480D01*
X128951107Y-70627868D01*
X128931401Y-70613253D01*
X128913223Y-70596777D01*
X128896747Y-70578599D01*
X128882132Y-70558893D01*
X128869520Y-70537850D01*
X128859030Y-70515671D01*
X128850765Y-70492572D01*
X128844804Y-70468773D01*
X128841204Y-70444505D01*
X128840000Y-70420001D01*
X128840000Y-69769999D01*
X128841204Y-69745495D01*
X128844804Y-69721227D01*
X128850765Y-69697428D01*
X128859030Y-69674329D01*
X128869520Y-69652150D01*
X128882132Y-69631107D01*
X128896747Y-69611401D01*
X128913223Y-69593223D01*
X128931401Y-69576747D01*
X128951107Y-69562132D01*
X128972150Y-69549520D01*
X128994329Y-69539030D01*
X129017428Y-69530765D01*
X129041227Y-69524804D01*
X129065495Y-69521204D01*
X129089999Y-69520000D01*
X129990001Y-69520000D01*
X130014505Y-69521204D01*
G37*
G36*
X159224505Y-71571204D02*
G01*
X159248773Y-71574804D01*
X159272572Y-71580765D01*
X159295671Y-71589030D01*
X159317850Y-71599520D01*
X159338893Y-71612132D01*
X159358599Y-71626747D01*
X159376777Y-71643223D01*
X159393253Y-71661401D01*
X159407868Y-71681107D01*
X159420480Y-71702150D01*
X159430970Y-71724329D01*
X159439235Y-71747428D01*
X159445196Y-71771227D01*
X159448796Y-71795495D01*
X159450000Y-71819999D01*
X159450000Y-72470001D01*
X159448796Y-72494505D01*
X159445196Y-72518773D01*
X159439235Y-72542572D01*
X159430970Y-72565671D01*
X159420480Y-72587850D01*
X159407868Y-72608893D01*
X159393253Y-72628599D01*
X159376777Y-72646777D01*
X159358599Y-72663253D01*
X159338893Y-72677868D01*
X159317850Y-72690480D01*
X159295671Y-72700970D01*
X159272572Y-72709235D01*
X159248773Y-72715196D01*
X159224505Y-72718796D01*
X159200001Y-72720000D01*
X158299999Y-72720000D01*
X158275495Y-72718796D01*
X158251227Y-72715196D01*
X158227428Y-72709235D01*
X158204329Y-72700970D01*
X158182150Y-72690480D01*
X158161107Y-72677868D01*
X158141401Y-72663253D01*
X158123223Y-72646777D01*
X158106747Y-72628599D01*
X158092132Y-72608893D01*
X158079520Y-72587850D01*
X158069030Y-72565671D01*
X158060765Y-72542572D01*
X158054804Y-72518773D01*
X158051204Y-72494505D01*
X158050000Y-72470001D01*
X158050000Y-71819999D01*
X158051204Y-71795495D01*
X158054804Y-71771227D01*
X158060765Y-71747428D01*
X158069030Y-71724329D01*
X158079520Y-71702150D01*
X158092132Y-71681107D01*
X158106747Y-71661401D01*
X158123223Y-71643223D01*
X158141401Y-71626747D01*
X158161107Y-71612132D01*
X158182150Y-71599520D01*
X158204329Y-71589030D01*
X158227428Y-71580765D01*
X158251227Y-71574804D01*
X158275495Y-71571204D01*
X158299999Y-71570000D01*
X159200001Y-71570000D01*
X159224505Y-71571204D01*
G37*
G36*
X159224505Y-69521204D02*
G01*
X159248773Y-69524804D01*
X159272572Y-69530765D01*
X159295671Y-69539030D01*
X159317850Y-69549520D01*
X159338893Y-69562132D01*
X159358599Y-69576747D01*
X159376777Y-69593223D01*
X159393253Y-69611401D01*
X159407868Y-69631107D01*
X159420480Y-69652150D01*
X159430970Y-69674329D01*
X159439235Y-69697428D01*
X159445196Y-69721227D01*
X159448796Y-69745495D01*
X159450000Y-69769999D01*
X159450000Y-70420001D01*
X159448796Y-70444505D01*
X159445196Y-70468773D01*
X159439235Y-70492572D01*
X159430970Y-70515671D01*
X159420480Y-70537850D01*
X159407868Y-70558893D01*
X159393253Y-70578599D01*
X159376777Y-70596777D01*
X159358599Y-70613253D01*
X159338893Y-70627868D01*
X159317850Y-70640480D01*
X159295671Y-70650970D01*
X159272572Y-70659235D01*
X159248773Y-70665196D01*
X159224505Y-70668796D01*
X159200001Y-70670000D01*
X158299999Y-70670000D01*
X158275495Y-70668796D01*
X158251227Y-70665196D01*
X158227428Y-70659235D01*
X158204329Y-70650970D01*
X158182150Y-70640480D01*
X158161107Y-70627868D01*
X158141401Y-70613253D01*
X158123223Y-70596777D01*
X158106747Y-70578599D01*
X158092132Y-70558893D01*
X158079520Y-70537850D01*
X158069030Y-70515671D01*
X158060765Y-70492572D01*
X158054804Y-70468773D01*
X158051204Y-70444505D01*
X158050000Y-70420001D01*
X158050000Y-69769999D01*
X158051204Y-69745495D01*
X158054804Y-69721227D01*
X158060765Y-69697428D01*
X158069030Y-69674329D01*
X158079520Y-69652150D01*
X158092132Y-69631107D01*
X158106747Y-69611401D01*
X158123223Y-69593223D01*
X158141401Y-69576747D01*
X158161107Y-69562132D01*
X158182150Y-69549520D01*
X158204329Y-69539030D01*
X158227428Y-69530765D01*
X158251227Y-69524804D01*
X158275495Y-69521204D01*
X158299999Y-69520000D01*
X159200001Y-69520000D01*
X159224505Y-69521204D01*
G37*
G36*
X159224505Y-110941204D02*
G01*
X159248773Y-110944804D01*
X159272572Y-110950765D01*
X159295671Y-110959030D01*
X159317850Y-110969520D01*
X159338893Y-110982132D01*
X159358599Y-110996747D01*
X159376777Y-111013223D01*
X159393253Y-111031401D01*
X159407868Y-111051107D01*
X159420480Y-111072150D01*
X159430970Y-111094329D01*
X159439235Y-111117428D01*
X159445196Y-111141227D01*
X159448796Y-111165495D01*
X159450000Y-111189999D01*
X159450000Y-111840001D01*
X159448796Y-111864505D01*
X159445196Y-111888773D01*
X159439235Y-111912572D01*
X159430970Y-111935671D01*
X159420480Y-111957850D01*
X159407868Y-111978893D01*
X159393253Y-111998599D01*
X159376777Y-112016777D01*
X159358599Y-112033253D01*
X159338893Y-112047868D01*
X159317850Y-112060480D01*
X159295671Y-112070970D01*
X159272572Y-112079235D01*
X159248773Y-112085196D01*
X159224505Y-112088796D01*
X159200001Y-112090000D01*
X158299999Y-112090000D01*
X158275495Y-112088796D01*
X158251227Y-112085196D01*
X158227428Y-112079235D01*
X158204329Y-112070970D01*
X158182150Y-112060480D01*
X158161107Y-112047868D01*
X158141401Y-112033253D01*
X158123223Y-112016777D01*
X158106747Y-111998599D01*
X158092132Y-111978893D01*
X158079520Y-111957850D01*
X158069030Y-111935671D01*
X158060765Y-111912572D01*
X158054804Y-111888773D01*
X158051204Y-111864505D01*
X158050000Y-111840001D01*
X158050000Y-111189999D01*
X158051204Y-111165495D01*
X158054804Y-111141227D01*
X158060765Y-111117428D01*
X158069030Y-111094329D01*
X158079520Y-111072150D01*
X158092132Y-111051107D01*
X158106747Y-111031401D01*
X158123223Y-111013223D01*
X158141401Y-110996747D01*
X158161107Y-110982132D01*
X158182150Y-110969520D01*
X158204329Y-110959030D01*
X158227428Y-110950765D01*
X158251227Y-110944804D01*
X158275495Y-110941204D01*
X158299999Y-110940000D01*
X159200001Y-110940000D01*
X159224505Y-110941204D01*
G37*
G36*
X159224505Y-108891204D02*
G01*
X159248773Y-108894804D01*
X159272572Y-108900765D01*
X159295671Y-108909030D01*
X159317850Y-108919520D01*
X159338893Y-108932132D01*
X159358599Y-108946747D01*
X159376777Y-108963223D01*
X159393253Y-108981401D01*
X159407868Y-109001107D01*
X159420480Y-109022150D01*
X159430970Y-109044329D01*
X159439235Y-109067428D01*
X159445196Y-109091227D01*
X159448796Y-109115495D01*
X159450000Y-109139999D01*
X159450000Y-109790001D01*
X159448796Y-109814505D01*
X159445196Y-109838773D01*
X159439235Y-109862572D01*
X159430970Y-109885671D01*
X159420480Y-109907850D01*
X159407868Y-109928893D01*
X159393253Y-109948599D01*
X159376777Y-109966777D01*
X159358599Y-109983253D01*
X159338893Y-109997868D01*
X159317850Y-110010480D01*
X159295671Y-110020970D01*
X159272572Y-110029235D01*
X159248773Y-110035196D01*
X159224505Y-110038796D01*
X159200001Y-110040000D01*
X158299999Y-110040000D01*
X158275495Y-110038796D01*
X158251227Y-110035196D01*
X158227428Y-110029235D01*
X158204329Y-110020970D01*
X158182150Y-110010480D01*
X158161107Y-109997868D01*
X158141401Y-109983253D01*
X158123223Y-109966777D01*
X158106747Y-109948599D01*
X158092132Y-109928893D01*
X158079520Y-109907850D01*
X158069030Y-109885671D01*
X158060765Y-109862572D01*
X158054804Y-109838773D01*
X158051204Y-109814505D01*
X158050000Y-109790001D01*
X158050000Y-109139999D01*
X158051204Y-109115495D01*
X158054804Y-109091227D01*
X158060765Y-109067428D01*
X158069030Y-109044329D01*
X158079520Y-109022150D01*
X158092132Y-109001107D01*
X158106747Y-108981401D01*
X158123223Y-108963223D01*
X158141401Y-108946747D01*
X158161107Y-108932132D01*
X158182150Y-108919520D01*
X158204329Y-108909030D01*
X158227428Y-108900765D01*
X158251227Y-108894804D01*
X158275495Y-108891204D01*
X158299999Y-108890000D01*
X159200001Y-108890000D01*
X159224505Y-108891204D01*
G37*
G36*
X130014505Y-110941204D02*
G01*
X130038773Y-110944804D01*
X130062572Y-110950765D01*
X130085671Y-110959030D01*
X130107850Y-110969520D01*
X130128893Y-110982132D01*
X130148599Y-110996747D01*
X130166777Y-111013223D01*
X130183253Y-111031401D01*
X130197868Y-111051107D01*
X130210480Y-111072150D01*
X130220970Y-111094329D01*
X130229235Y-111117428D01*
X130235196Y-111141227D01*
X130238796Y-111165495D01*
X130240000Y-111189999D01*
X130240000Y-111840001D01*
X130238796Y-111864505D01*
X130235196Y-111888773D01*
X130229235Y-111912572D01*
X130220970Y-111935671D01*
X130210480Y-111957850D01*
X130197868Y-111978893D01*
X130183253Y-111998599D01*
X130166777Y-112016777D01*
X130148599Y-112033253D01*
X130128893Y-112047868D01*
X130107850Y-112060480D01*
X130085671Y-112070970D01*
X130062572Y-112079235D01*
X130038773Y-112085196D01*
X130014505Y-112088796D01*
X129990001Y-112090000D01*
X129089999Y-112090000D01*
X129065495Y-112088796D01*
X129041227Y-112085196D01*
X129017428Y-112079235D01*
X128994329Y-112070970D01*
X128972150Y-112060480D01*
X128951107Y-112047868D01*
X128931401Y-112033253D01*
X128913223Y-112016777D01*
X128896747Y-111998599D01*
X128882132Y-111978893D01*
X128869520Y-111957850D01*
X128859030Y-111935671D01*
X128850765Y-111912572D01*
X128844804Y-111888773D01*
X128841204Y-111864505D01*
X128840000Y-111840001D01*
X128840000Y-111189999D01*
X128841204Y-111165495D01*
X128844804Y-111141227D01*
X128850765Y-111117428D01*
X128859030Y-111094329D01*
X128869520Y-111072150D01*
X128882132Y-111051107D01*
X128896747Y-111031401D01*
X128913223Y-111013223D01*
X128931401Y-110996747D01*
X128951107Y-110982132D01*
X128972150Y-110969520D01*
X128994329Y-110959030D01*
X129017428Y-110950765D01*
X129041227Y-110944804D01*
X129065495Y-110941204D01*
X129089999Y-110940000D01*
X129990001Y-110940000D01*
X130014505Y-110941204D01*
G37*
G36*
X130014505Y-108891204D02*
G01*
X130038773Y-108894804D01*
X130062572Y-108900765D01*
X130085671Y-108909030D01*
X130107850Y-108919520D01*
X130128893Y-108932132D01*
X130148599Y-108946747D01*
X130166777Y-108963223D01*
X130183253Y-108981401D01*
X130197868Y-109001107D01*
X130210480Y-109022150D01*
X130220970Y-109044329D01*
X130229235Y-109067428D01*
X130235196Y-109091227D01*
X130238796Y-109115495D01*
X130240000Y-109139999D01*
X130240000Y-109790001D01*
X130238796Y-109814505D01*
X130235196Y-109838773D01*
X130229235Y-109862572D01*
X130220970Y-109885671D01*
X130210480Y-109907850D01*
X130197868Y-109928893D01*
X130183253Y-109948599D01*
X130166777Y-109966777D01*
X130148599Y-109983253D01*
X130128893Y-109997868D01*
X130107850Y-110010480D01*
X130085671Y-110020970D01*
X130062572Y-110029235D01*
X130038773Y-110035196D01*
X130014505Y-110038796D01*
X129990001Y-110040000D01*
X129089999Y-110040000D01*
X129065495Y-110038796D01*
X129041227Y-110035196D01*
X129017428Y-110029235D01*
X128994329Y-110020970D01*
X128972150Y-110010480D01*
X128951107Y-109997868D01*
X128931401Y-109983253D01*
X128913223Y-109966777D01*
X128896747Y-109948599D01*
X128882132Y-109928893D01*
X128869520Y-109907850D01*
X128859030Y-109885671D01*
X128850765Y-109862572D01*
X128844804Y-109838773D01*
X128841204Y-109814505D01*
X128840000Y-109790001D01*
X128840000Y-109139999D01*
X128841204Y-109115495D01*
X128844804Y-109091227D01*
X128850765Y-109067428D01*
X128859030Y-109044329D01*
X128869520Y-109022150D01*
X128882132Y-109001107D01*
X128896747Y-108981401D01*
X128913223Y-108963223D01*
X128931401Y-108946747D01*
X128951107Y-108932132D01*
X128972150Y-108919520D01*
X128994329Y-108909030D01*
X129017428Y-108900765D01*
X129041227Y-108894804D01*
X129065495Y-108891204D01*
X129089999Y-108890000D01*
X129990001Y-108890000D01*
X130014505Y-108891204D01*
G37*
M02*
