M48
INCH,TZ
T1C0.0118
T2C0.0394
%
G90
G05
T1
X39250Y-34100
X39350Y-49300
X39900Y-26550
X40300Y-25750
X40750Y-49350
X41150Y-32750
X41600Y-28000
X42300Y-31250
X43100Y-25700
X43300Y-29900
X44350Y-32750
X44850Y-27100
X44900Y-30700
X45350Y-33500
X46350Y-29950
X46900Y-29400
X47050Y-39200
X47300Y-38150
X47650Y-46550
X47850Y-43659
X48000Y-45500
X48250Y-43400
X48500Y-49650
X48650Y-49100
X48850Y-40600
X49850Y-38100
X50300Y-49350
X51350Y-45600
X51450Y-39100
X51550Y-43350
X52300Y-47150
X52650Y-42950
X53300Y-40900
T2
X40300Y-50394
X40300Y-51394
X41300Y-50394
X41300Y-51394
X42300Y-50394
X42300Y-51394
X43300Y-50394
X43300Y-51394
X44300Y-50394
X44300Y-51394
X45300Y-50394
X45300Y-51394
X46300Y-50394
X46300Y-51394
X47300Y-50394
X47300Y-51394
X48300Y-50394
X48300Y-51394
X49300Y-50394
X49300Y-51394
X50300Y-50394
X50300Y-51394
X51300Y-50394
X51300Y-51394
X52300Y-50394
X52300Y-51394
X53300Y-50394
X53300Y-51394
X54300Y-50394
X54300Y-51394
T0
M30
