G04 #@! TF.GenerationSoftware,KiCad,Pcbnew,(5.1.5)-3*
G04 #@! TF.CreationDate,2021-04-29T22:27:45+02:00*
G04 #@! TF.ProjectId,thermocjromic clock resistors panel,74686572-6d6f-4636-9a72-6f6d69632063,1*
G04 #@! TF.SameCoordinates,Original*
G04 #@! TF.FileFunction,Legend,Bot*
G04 #@! TF.FilePolarity,Positive*
%FSLAX46Y46*%
G04 Gerber Fmt 4.6, Leading zero omitted, Abs format (unit mm)*
G04 Created by KiCad (PCBNEW (5.1.5)-3) date 2021-04-29 22:27:45*
%MOMM*%
%LPD*%
G04 APERTURE LIST*
%ADD10C,0.150000*%
%ADD11C,0.010000*%
G04 APERTURE END LIST*
D10*
X141895714Y-132692857D02*
X141210000Y-132692857D01*
X141552857Y-133892857D02*
X141552857Y-132692857D01*
X140810000Y-133892857D02*
X140810000Y-132692857D01*
X140295714Y-133892857D02*
X140295714Y-133264285D01*
X140352857Y-133150000D01*
X140467142Y-133092857D01*
X140638571Y-133092857D01*
X140752857Y-133150000D01*
X140810000Y-133207142D01*
X139267142Y-133835714D02*
X139381428Y-133892857D01*
X139610000Y-133892857D01*
X139724285Y-133835714D01*
X139781428Y-133721428D01*
X139781428Y-133264285D01*
X139724285Y-133150000D01*
X139610000Y-133092857D01*
X139381428Y-133092857D01*
X139267142Y-133150000D01*
X139210000Y-133264285D01*
X139210000Y-133378571D01*
X139781428Y-133492857D01*
X138695714Y-133892857D02*
X138695714Y-133092857D01*
X138695714Y-133321428D02*
X138638571Y-133207142D01*
X138581428Y-133150000D01*
X138467142Y-133092857D01*
X138352857Y-133092857D01*
X137952857Y-133892857D02*
X137952857Y-133092857D01*
X137952857Y-133207142D02*
X137895714Y-133150000D01*
X137781428Y-133092857D01*
X137610000Y-133092857D01*
X137495714Y-133150000D01*
X137438571Y-133264285D01*
X137438571Y-133892857D01*
X137438571Y-133264285D02*
X137381428Y-133150000D01*
X137267142Y-133092857D01*
X137095714Y-133092857D01*
X136981428Y-133150000D01*
X136924285Y-133264285D01*
X136924285Y-133892857D01*
X136181428Y-133892857D02*
X136295714Y-133835714D01*
X136352857Y-133778571D01*
X136410000Y-133664285D01*
X136410000Y-133321428D01*
X136352857Y-133207142D01*
X136295714Y-133150000D01*
X136181428Y-133092857D01*
X136010000Y-133092857D01*
X135895714Y-133150000D01*
X135838571Y-133207142D01*
X135781428Y-133321428D01*
X135781428Y-133664285D01*
X135838571Y-133778571D01*
X135895714Y-133835714D01*
X136010000Y-133892857D01*
X136181428Y-133892857D01*
X134752857Y-133835714D02*
X134867142Y-133892857D01*
X135095714Y-133892857D01*
X135210000Y-133835714D01*
X135267142Y-133778571D01*
X135324285Y-133664285D01*
X135324285Y-133321428D01*
X135267142Y-133207142D01*
X135210000Y-133150000D01*
X135095714Y-133092857D01*
X134867142Y-133092857D01*
X134752857Y-133150000D01*
X134238571Y-133892857D02*
X134238571Y-132692857D01*
X133724285Y-133892857D02*
X133724285Y-133264285D01*
X133781428Y-133150000D01*
X133895714Y-133092857D01*
X134067142Y-133092857D01*
X134181428Y-133150000D01*
X134238571Y-133207142D01*
X133152857Y-133892857D02*
X133152857Y-133092857D01*
X133152857Y-133321428D02*
X133095714Y-133207142D01*
X133038571Y-133150000D01*
X132924285Y-133092857D01*
X132810000Y-133092857D01*
X132238571Y-133892857D02*
X132352857Y-133835714D01*
X132410000Y-133778571D01*
X132467142Y-133664285D01*
X132467142Y-133321428D01*
X132410000Y-133207142D01*
X132352857Y-133150000D01*
X132238571Y-133092857D01*
X132067142Y-133092857D01*
X131952857Y-133150000D01*
X131895714Y-133207142D01*
X131838571Y-133321428D01*
X131838571Y-133664285D01*
X131895714Y-133778571D01*
X131952857Y-133835714D01*
X132067142Y-133892857D01*
X132238571Y-133892857D01*
X131324285Y-133892857D02*
X131324285Y-133092857D01*
X131324285Y-133207142D02*
X131267142Y-133150000D01*
X131152857Y-133092857D01*
X130981428Y-133092857D01*
X130867142Y-133150000D01*
X130810000Y-133264285D01*
X130810000Y-133892857D01*
X130810000Y-133264285D02*
X130752857Y-133150000D01*
X130638571Y-133092857D01*
X130467142Y-133092857D01*
X130352857Y-133150000D01*
X130295714Y-133264285D01*
X130295714Y-133892857D01*
X129724285Y-133892857D02*
X129724285Y-133092857D01*
X129724285Y-132692857D02*
X129781428Y-132750000D01*
X129724285Y-132807142D01*
X129667142Y-132750000D01*
X129724285Y-132692857D01*
X129724285Y-132807142D01*
X128638571Y-133835714D02*
X128752857Y-133892857D01*
X128981428Y-133892857D01*
X129095714Y-133835714D01*
X129152857Y-133778571D01*
X129210000Y-133664285D01*
X129210000Y-133321428D01*
X129152857Y-133207142D01*
X129095714Y-133150000D01*
X128981428Y-133092857D01*
X128752857Y-133092857D01*
X128638571Y-133150000D01*
X126524285Y-133778571D02*
X126581428Y-133835714D01*
X126752857Y-133892857D01*
X126867142Y-133892857D01*
X127038571Y-133835714D01*
X127152857Y-133721428D01*
X127210000Y-133607142D01*
X127267142Y-133378571D01*
X127267142Y-133207142D01*
X127210000Y-132978571D01*
X127152857Y-132864285D01*
X127038571Y-132750000D01*
X126867142Y-132692857D01*
X126752857Y-132692857D01*
X126581428Y-132750000D01*
X126524285Y-132807142D01*
X125838571Y-133892857D02*
X125952857Y-133835714D01*
X126010000Y-133721428D01*
X126010000Y-132692857D01*
X125210000Y-133892857D02*
X125324285Y-133835714D01*
X125381428Y-133778571D01*
X125438571Y-133664285D01*
X125438571Y-133321428D01*
X125381428Y-133207142D01*
X125324285Y-133150000D01*
X125210000Y-133092857D01*
X125038571Y-133092857D01*
X124924285Y-133150000D01*
X124867142Y-133207142D01*
X124810000Y-133321428D01*
X124810000Y-133664285D01*
X124867142Y-133778571D01*
X124924285Y-133835714D01*
X125038571Y-133892857D01*
X125210000Y-133892857D01*
X123781428Y-133835714D02*
X123895714Y-133892857D01*
X124124285Y-133892857D01*
X124238571Y-133835714D01*
X124295714Y-133778571D01*
X124352857Y-133664285D01*
X124352857Y-133321428D01*
X124295714Y-133207142D01*
X124238571Y-133150000D01*
X124124285Y-133092857D01*
X123895714Y-133092857D01*
X123781428Y-133150000D01*
X123267142Y-133892857D02*
X123267142Y-132692857D01*
X123152857Y-133435714D02*
X122810000Y-133892857D01*
X122810000Y-133092857D02*
X123267142Y-133550000D01*
X121495714Y-133092857D02*
X121210000Y-133892857D01*
X120924285Y-133092857D01*
X119838571Y-133892857D02*
X120524285Y-133892857D01*
X120181428Y-133892857D02*
X120181428Y-132692857D01*
X120295714Y-132864285D01*
X120410000Y-132978571D01*
X120524285Y-133035714D01*
D11*
G36*
X106708223Y-61439778D02*
G01*
X107103334Y-61439778D01*
X107103334Y-61016445D01*
X106708223Y-61016445D01*
X106708223Y-61439778D01*
G37*
X106708223Y-61439778D02*
X107103334Y-61439778D01*
X107103334Y-61016445D01*
X106708223Y-61016445D01*
X106708223Y-61439778D01*
G36*
X119408223Y-61439778D02*
G01*
X119803334Y-61439778D01*
X119803334Y-61016445D01*
X119408223Y-61016445D01*
X119408223Y-61439778D01*
G37*
X119408223Y-61439778D02*
X119803334Y-61439778D01*
X119803334Y-61016445D01*
X119408223Y-61016445D01*
X119408223Y-61439778D01*
G36*
X99060000Y-63443556D02*
G01*
X100460039Y-63443556D01*
X100640445Y-63257424D01*
X100640445Y-62342889D01*
X100188889Y-62342889D01*
X100188889Y-62734755D01*
X100068945Y-62743433D01*
X99949000Y-62752111D01*
X99931940Y-63048445D01*
X99624445Y-63048445D01*
X99624445Y-62342889D01*
X100188889Y-62342889D01*
X100640445Y-62342889D01*
X100640445Y-62146159D01*
X100315889Y-61891369D01*
X99624445Y-61891333D01*
X99624445Y-61016445D01*
X99060000Y-61016445D01*
X99060000Y-63443556D01*
G37*
X99060000Y-63443556D02*
X100460039Y-63443556D01*
X100640445Y-63257424D01*
X100640445Y-62342889D01*
X100188889Y-62342889D01*
X100188889Y-62734755D01*
X100068945Y-62743433D01*
X99949000Y-62752111D01*
X99931940Y-63048445D01*
X99624445Y-63048445D01*
X99624445Y-62342889D01*
X100188889Y-62342889D01*
X100640445Y-62342889D01*
X100640445Y-62146159D01*
X100315889Y-61891369D01*
X99624445Y-61891333D01*
X99624445Y-61016445D01*
X99060000Y-61016445D01*
X99060000Y-63443556D01*
G36*
X101013425Y-61729943D02*
G01*
X100866223Y-61878997D01*
X100866223Y-62625111D01*
X102051556Y-62625111D01*
X102051556Y-63020222D01*
X100922667Y-63020222D01*
X100922667Y-63443556D01*
X102357203Y-63443556D01*
X102472491Y-63312582D01*
X102587778Y-63181609D01*
X102587778Y-62088889D01*
X102051556Y-62088889D01*
X102051556Y-62314667D01*
X101374223Y-62314667D01*
X101374223Y-62088889D01*
X102051556Y-62088889D01*
X102587778Y-62088889D01*
X102587778Y-61811923D01*
X102311834Y-61580889D01*
X101160628Y-61580889D01*
X101013425Y-61729943D01*
G37*
X101013425Y-61729943D02*
X100866223Y-61878997D01*
X100866223Y-62625111D01*
X102051556Y-62625111D01*
X102051556Y-63020222D01*
X100922667Y-63020222D01*
X100922667Y-63443556D01*
X102357203Y-63443556D01*
X102472491Y-63312582D01*
X102587778Y-63181609D01*
X102587778Y-62088889D01*
X102051556Y-62088889D01*
X102051556Y-62314667D01*
X101374223Y-62314667D01*
X101374223Y-62088889D01*
X102051556Y-62088889D01*
X102587778Y-62088889D01*
X102587778Y-61811923D01*
X102311834Y-61580889D01*
X101160628Y-61580889D01*
X101013425Y-61729943D01*
G36*
X103000974Y-61696176D02*
G01*
X102870000Y-61811464D01*
X102870000Y-63443556D01*
X103321556Y-63443556D01*
X103321556Y-62032445D01*
X103688445Y-62032445D01*
X103688445Y-63443556D01*
X104535112Y-63443556D01*
X104535112Y-61580889D01*
X103131947Y-61580889D01*
X103000974Y-61696176D01*
G37*
X103000974Y-61696176D02*
X102870000Y-61811464D01*
X102870000Y-63443556D01*
X103321556Y-63443556D01*
X103321556Y-62032445D01*
X103688445Y-62032445D01*
X103688445Y-63443556D01*
X104535112Y-63443556D01*
X104535112Y-61580889D01*
X103131947Y-61580889D01*
X103000974Y-61696176D01*
G36*
X104817334Y-61811923D02*
G01*
X104817334Y-63443556D01*
X105268889Y-63443556D01*
X105268889Y-62032445D01*
X105664000Y-62032445D01*
X105664000Y-63443556D01*
X106482445Y-63443556D01*
X106482445Y-61580889D01*
X105093278Y-61580889D01*
X104817334Y-61811923D01*
G37*
X104817334Y-61811923D02*
X104817334Y-63443556D01*
X105268889Y-63443556D01*
X105268889Y-62032445D01*
X105664000Y-62032445D01*
X105664000Y-63443556D01*
X106482445Y-63443556D01*
X106482445Y-61580889D01*
X105093278Y-61580889D01*
X104817334Y-61811923D01*
G36*
X106708223Y-63443556D02*
G01*
X107244445Y-63443556D01*
X107244445Y-61580889D01*
X106708223Y-61580889D01*
X106708223Y-63443556D01*
G37*
X106708223Y-63443556D02*
X107244445Y-63443556D01*
X107244445Y-61580889D01*
X106708223Y-61580889D01*
X106708223Y-63443556D01*
G36*
X107498445Y-61834889D02*
G01*
X108119334Y-61834889D01*
X108119334Y-63443556D01*
X108740223Y-63443556D01*
X108740223Y-62427556D01*
X108570889Y-62427556D01*
X108570889Y-61834889D01*
X109191778Y-61834889D01*
X109191778Y-61129333D01*
X107498445Y-61129333D01*
X107498445Y-61834889D01*
G37*
X107498445Y-61834889D02*
X108119334Y-61834889D01*
X108119334Y-63443556D01*
X108740223Y-63443556D01*
X108740223Y-62427556D01*
X108570889Y-62427556D01*
X108570889Y-61834889D01*
X109191778Y-61834889D01*
X109191778Y-61129333D01*
X107498445Y-61129333D01*
X107498445Y-61834889D01*
G36*
X109812667Y-61722000D02*
G01*
X110800445Y-61722000D01*
X110800445Y-62117111D01*
X110348889Y-62117111D01*
X110348889Y-62625111D01*
X110800445Y-62625111D01*
X110800445Y-63020222D01*
X110179556Y-63020222D01*
X110178856Y-62716833D01*
X110177953Y-62582167D01*
X110173810Y-62489557D01*
X110163169Y-62424614D01*
X110142774Y-62372951D01*
X110109365Y-62320179D01*
X110079804Y-62279389D01*
X109981452Y-62145333D01*
X109386861Y-62145333D01*
X109395153Y-62349945D01*
X109403445Y-62554556D01*
X109565723Y-62563020D01*
X109728000Y-62571484D01*
X109728000Y-62896286D01*
X109728499Y-63036262D01*
X109731764Y-63132738D01*
X109740450Y-63198655D01*
X109757208Y-63246957D01*
X109784693Y-63290587D01*
X109817391Y-63332322D01*
X109906781Y-63443556D01*
X111269150Y-63443556D01*
X111449556Y-63257424D01*
X111449556Y-62581808D01*
X111322002Y-62435995D01*
X111194447Y-62290181D01*
X111322002Y-62183558D01*
X111449556Y-62076936D01*
X111449556Y-61389963D01*
X111271200Y-61273759D01*
X111092843Y-61157556D01*
X109812667Y-61157556D01*
X109812667Y-61722000D01*
G37*
X109812667Y-61722000D02*
X110800445Y-61722000D01*
X110800445Y-62117111D01*
X110348889Y-62117111D01*
X110348889Y-62625111D01*
X110800445Y-62625111D01*
X110800445Y-63020222D01*
X110179556Y-63020222D01*
X110178856Y-62716833D01*
X110177953Y-62582167D01*
X110173810Y-62489557D01*
X110163169Y-62424614D01*
X110142774Y-62372951D01*
X110109365Y-62320179D01*
X110079804Y-62279389D01*
X109981452Y-62145333D01*
X109386861Y-62145333D01*
X109395153Y-62349945D01*
X109403445Y-62554556D01*
X109565723Y-62563020D01*
X109728000Y-62571484D01*
X109728000Y-62896286D01*
X109728499Y-63036262D01*
X109731764Y-63132738D01*
X109740450Y-63198655D01*
X109757208Y-63246957D01*
X109784693Y-63290587D01*
X109817391Y-63332322D01*
X109906781Y-63443556D01*
X111269150Y-63443556D01*
X111449556Y-63257424D01*
X111449556Y-62581808D01*
X111322002Y-62435995D01*
X111194447Y-62290181D01*
X111322002Y-62183558D01*
X111449556Y-62076936D01*
X111449556Y-61389963D01*
X111271200Y-61273759D01*
X111092843Y-61157556D01*
X109812667Y-61157556D01*
X109812667Y-61722000D01*
G36*
X111703556Y-63443556D02*
G01*
X113128778Y-63439480D01*
X113284000Y-63252364D01*
X113284000Y-62342889D01*
X112832445Y-62342889D01*
X112832445Y-62738000D01*
X112606667Y-62738000D01*
X112606667Y-63048445D01*
X112296223Y-63048445D01*
X112296223Y-62342889D01*
X112832445Y-62342889D01*
X113284000Y-62342889D01*
X113284000Y-62127959D01*
X112961666Y-61891333D01*
X112296223Y-61891333D01*
X112296223Y-61016445D01*
X111703556Y-61016445D01*
X111703556Y-63443556D01*
G37*
X111703556Y-63443556D02*
X113128778Y-63439480D01*
X113284000Y-63252364D01*
X113284000Y-62342889D01*
X112832445Y-62342889D01*
X112832445Y-62738000D01*
X112606667Y-62738000D01*
X112606667Y-63048445D01*
X112296223Y-63048445D01*
X112296223Y-62342889D01*
X112832445Y-62342889D01*
X113284000Y-62342889D01*
X113284000Y-62127959D01*
X112961666Y-61891333D01*
X112296223Y-61891333D01*
X112296223Y-61016445D01*
X111703556Y-61016445D01*
X111703556Y-63443556D01*
G36*
X113538000Y-61860693D02*
G01*
X113538000Y-62625111D01*
X114723334Y-62625111D01*
X114723334Y-63020222D01*
X113566223Y-63020222D01*
X113566223Y-63443556D01*
X114292945Y-63440684D01*
X115019667Y-63437813D01*
X115139612Y-63303825D01*
X115259556Y-63169837D01*
X115259556Y-62088889D01*
X114723334Y-62088889D01*
X114723334Y-62314667D01*
X114017778Y-62314667D01*
X114017778Y-62088889D01*
X114723334Y-62088889D01*
X115259556Y-62088889D01*
X115259556Y-61842613D01*
X114979752Y-61580889D01*
X113799724Y-61580889D01*
X113538000Y-61860693D01*
G37*
X113538000Y-61860693D02*
X113538000Y-62625111D01*
X114723334Y-62625111D01*
X114723334Y-63020222D01*
X113566223Y-63020222D01*
X113566223Y-63443556D01*
X114292945Y-63440684D01*
X115019667Y-63437813D01*
X115139612Y-63303825D01*
X115259556Y-63169837D01*
X115259556Y-62088889D01*
X114723334Y-62088889D01*
X114723334Y-62314667D01*
X114017778Y-62314667D01*
X114017778Y-62088889D01*
X114723334Y-62088889D01*
X115259556Y-62088889D01*
X115259556Y-61842613D01*
X114979752Y-61580889D01*
X113799724Y-61580889D01*
X113538000Y-61860693D01*
G36*
X116755334Y-61664223D02*
G01*
X116268500Y-61671945D01*
X115781667Y-61679667D01*
X115781667Y-62131222D01*
X116169723Y-62139074D01*
X116557778Y-62146926D01*
X116557778Y-63133111D01*
X115965112Y-63133111D01*
X115965112Y-62568667D01*
X115513556Y-62568667D01*
X115513556Y-62926956D01*
X115514020Y-63075268D01*
X115516710Y-63178379D01*
X115523577Y-63247535D01*
X115536568Y-63293978D01*
X115557634Y-63328953D01*
X115588724Y-63363703D01*
X115589392Y-63364400D01*
X115665227Y-63443556D01*
X117026996Y-63443556D01*
X117102831Y-63364400D01*
X117178667Y-63285245D01*
X117178667Y-61016445D01*
X116755334Y-61016445D01*
X116755334Y-61664223D01*
G37*
X116755334Y-61664223D02*
X116268500Y-61671945D01*
X115781667Y-61679667D01*
X115781667Y-62131222D01*
X116169723Y-62139074D01*
X116557778Y-62146926D01*
X116557778Y-63133111D01*
X115965112Y-63133111D01*
X115965112Y-62568667D01*
X115513556Y-62568667D01*
X115513556Y-62926956D01*
X115514020Y-63075268D01*
X115516710Y-63178379D01*
X115523577Y-63247535D01*
X115536568Y-63293978D01*
X115557634Y-63328953D01*
X115588724Y-63363703D01*
X115589392Y-63364400D01*
X115665227Y-63443556D01*
X117026996Y-63443556D01*
X117102831Y-63364400D01*
X117178667Y-63285245D01*
X117178667Y-61016445D01*
X116755334Y-61016445D01*
X116755334Y-61664223D01*
G36*
X117658445Y-62088889D02*
G01*
X118759112Y-62088889D01*
X118759112Y-62455778D01*
X117706592Y-62455778D01*
X117583740Y-62556445D01*
X117460889Y-62657112D01*
X117460889Y-63297427D01*
X117547721Y-63370491D01*
X117634553Y-63443556D01*
X119182445Y-63443556D01*
X119182445Y-63133111D01*
X117912445Y-63133111D01*
X117912445Y-62794445D01*
X118894118Y-62794445D01*
X119038281Y-62664829D01*
X119182445Y-62535214D01*
X119181733Y-61849000D01*
X119028869Y-61714945D01*
X118876005Y-61580889D01*
X117658445Y-61580889D01*
X117658445Y-62088889D01*
G37*
X117658445Y-62088889D02*
X118759112Y-62088889D01*
X118759112Y-62455778D01*
X117706592Y-62455778D01*
X117583740Y-62556445D01*
X117460889Y-62657112D01*
X117460889Y-63297427D01*
X117547721Y-63370491D01*
X117634553Y-63443556D01*
X119182445Y-63443556D01*
X119182445Y-63133111D01*
X117912445Y-63133111D01*
X117912445Y-62794445D01*
X118894118Y-62794445D01*
X119038281Y-62664829D01*
X119182445Y-62535214D01*
X119181733Y-61849000D01*
X119028869Y-61714945D01*
X118876005Y-61580889D01*
X117658445Y-61580889D01*
X117658445Y-62088889D01*
G36*
X119408223Y-63443556D02*
G01*
X119944445Y-63443556D01*
X119944445Y-61580889D01*
X119408223Y-61580889D01*
X119408223Y-63443556D01*
G37*
X119408223Y-63443556D02*
X119944445Y-63443556D01*
X119944445Y-61580889D01*
X119408223Y-61580889D01*
X119408223Y-63443556D01*
G36*
X122032889Y-63133111D02*
G01*
X121694223Y-63133111D01*
X121694223Y-61580889D01*
X121355556Y-61580889D01*
X121355556Y-63133111D01*
X121016889Y-63133111D01*
X121016889Y-61580889D01*
X120198445Y-61580889D01*
X120198445Y-63443556D01*
X122361717Y-63443556D01*
X122423081Y-63378237D01*
X122440352Y-63358339D01*
X122454035Y-63335305D01*
X122464548Y-63302797D01*
X122472308Y-63254478D01*
X122477734Y-63184013D01*
X122481241Y-63085064D01*
X122483249Y-62951294D01*
X122484174Y-62776366D01*
X122484434Y-62553944D01*
X122484445Y-62446903D01*
X122484445Y-61580889D01*
X122032889Y-61580889D01*
X122032889Y-63133111D01*
G37*
X122032889Y-63133111D02*
X121694223Y-63133111D01*
X121694223Y-61580889D01*
X121355556Y-61580889D01*
X121355556Y-63133111D01*
X121016889Y-63133111D01*
X121016889Y-61580889D01*
X120198445Y-61580889D01*
X120198445Y-63443556D01*
X122361717Y-63443556D01*
X122423081Y-63378237D01*
X122440352Y-63358339D01*
X122454035Y-63335305D01*
X122464548Y-63302797D01*
X122472308Y-63254478D01*
X122477734Y-63184013D01*
X122481241Y-63085064D01*
X122483249Y-62951294D01*
X122484174Y-62776366D01*
X122484434Y-62553944D01*
X122484445Y-62446903D01*
X122484445Y-61580889D01*
X122032889Y-61580889D01*
X122032889Y-63133111D01*
G36*
X122794889Y-61834889D02*
G01*
X123387556Y-61834889D01*
X123387556Y-63443556D01*
X124036667Y-63443556D01*
X124036667Y-62427556D01*
X123839112Y-62427556D01*
X123839112Y-61834889D01*
X124460000Y-61834889D01*
X124460000Y-61129333D01*
X122794889Y-61129333D01*
X122794889Y-61834889D01*
G37*
X122794889Y-61834889D02*
X123387556Y-61834889D01*
X123387556Y-63443556D01*
X124036667Y-63443556D01*
X124036667Y-62427556D01*
X123839112Y-62427556D01*
X123839112Y-61834889D01*
X124460000Y-61834889D01*
X124460000Y-61129333D01*
X122794889Y-61129333D01*
X122794889Y-61834889D01*
M02*
