G04 #@! TF.GenerationSoftware,KiCad,Pcbnew,(5.1.5)-3*
G04 #@! TF.CreationDate,2021-04-29T22:27:45+02:00*
G04 #@! TF.ProjectId,thermocjromic clock resistors panel,74686572-6d6f-4636-9a72-6f6d69632063,1*
G04 #@! TF.SameCoordinates,Original*
G04 #@! TF.FileFunction,Soldermask,Top*
G04 #@! TF.FilePolarity,Negative*
%FSLAX46Y46*%
G04 Gerber Fmt 4.6, Leading zero omitted, Abs format (unit mm)*
G04 Created by KiCad (PCBNEW (5.1.5)-3) date 2021-04-29 22:27:45*
%MOMM*%
%LPD*%
G04 APERTURE LIST*
%ADD10C,0.152400*%
G04 APERTURE END LIST*
D10*
G36*
X138169936Y-129722665D02*
G01*
X138324627Y-129786739D01*
X138463845Y-129879762D01*
X138582238Y-129998155D01*
X138675261Y-130137373D01*
X138739335Y-130292064D01*
X138772000Y-130456282D01*
X138772000Y-130623718D01*
X138739335Y-130787936D01*
X138675261Y-130942627D01*
X138582238Y-131081845D01*
X138463845Y-131200238D01*
X138324627Y-131293261D01*
X138169936Y-131357335D01*
X138005718Y-131390000D01*
X137838282Y-131390000D01*
X137674064Y-131357335D01*
X137519373Y-131293261D01*
X137380155Y-131200238D01*
X137261762Y-131081845D01*
X137168739Y-130942627D01*
X137104665Y-130787936D01*
X137072000Y-130623718D01*
X137072000Y-130456282D01*
X137104665Y-130292064D01*
X137168739Y-130137373D01*
X137261762Y-129998155D01*
X137380155Y-129879762D01*
X137519373Y-129786739D01*
X137674064Y-129722665D01*
X137838282Y-129690000D01*
X138005718Y-129690000D01*
X138169936Y-129722665D01*
G37*
G36*
X135629936Y-129722665D02*
G01*
X135784627Y-129786739D01*
X135923845Y-129879762D01*
X136042238Y-129998155D01*
X136135261Y-130137373D01*
X136199335Y-130292064D01*
X136232000Y-130456282D01*
X136232000Y-130623718D01*
X136199335Y-130787936D01*
X136135261Y-130942627D01*
X136042238Y-131081845D01*
X135923845Y-131200238D01*
X135784627Y-131293261D01*
X135629936Y-131357335D01*
X135465718Y-131390000D01*
X135298282Y-131390000D01*
X135134064Y-131357335D01*
X134979373Y-131293261D01*
X134840155Y-131200238D01*
X134721762Y-131081845D01*
X134628739Y-130942627D01*
X134564665Y-130787936D01*
X134532000Y-130623718D01*
X134532000Y-130456282D01*
X134564665Y-130292064D01*
X134628739Y-130137373D01*
X134721762Y-129998155D01*
X134840155Y-129879762D01*
X134979373Y-129786739D01*
X135134064Y-129722665D01*
X135298282Y-129690000D01*
X135465718Y-129690000D01*
X135629936Y-129722665D01*
G37*
G36*
X102609936Y-129722665D02*
G01*
X102764627Y-129786739D01*
X102903845Y-129879762D01*
X103022238Y-129998155D01*
X103115261Y-130137373D01*
X103179335Y-130292064D01*
X103212000Y-130456282D01*
X103212000Y-130623718D01*
X103179335Y-130787936D01*
X103115261Y-130942627D01*
X103022238Y-131081845D01*
X102903845Y-131200238D01*
X102764627Y-131293261D01*
X102609936Y-131357335D01*
X102445718Y-131390000D01*
X102278282Y-131390000D01*
X102114064Y-131357335D01*
X101959373Y-131293261D01*
X101820155Y-131200238D01*
X101701762Y-131081845D01*
X101608739Y-130942627D01*
X101544665Y-130787936D01*
X101512000Y-130623718D01*
X101512000Y-130456282D01*
X101544665Y-130292064D01*
X101608739Y-130137373D01*
X101701762Y-129998155D01*
X101820155Y-129879762D01*
X101959373Y-129786739D01*
X102114064Y-129722665D01*
X102278282Y-129690000D01*
X102445718Y-129690000D01*
X102609936Y-129722665D01*
G37*
G36*
X105149936Y-129722665D02*
G01*
X105304627Y-129786739D01*
X105443845Y-129879762D01*
X105562238Y-129998155D01*
X105655261Y-130137373D01*
X105719335Y-130292064D01*
X105752000Y-130456282D01*
X105752000Y-130623718D01*
X105719335Y-130787936D01*
X105655261Y-130942627D01*
X105562238Y-131081845D01*
X105443845Y-131200238D01*
X105304627Y-131293261D01*
X105149936Y-131357335D01*
X104985718Y-131390000D01*
X104818282Y-131390000D01*
X104654064Y-131357335D01*
X104499373Y-131293261D01*
X104360155Y-131200238D01*
X104241762Y-131081845D01*
X104148739Y-130942627D01*
X104084665Y-130787936D01*
X104052000Y-130623718D01*
X104052000Y-130456282D01*
X104084665Y-130292064D01*
X104148739Y-130137373D01*
X104241762Y-129998155D01*
X104360155Y-129879762D01*
X104499373Y-129786739D01*
X104654064Y-129722665D01*
X104818282Y-129690000D01*
X104985718Y-129690000D01*
X105149936Y-129722665D01*
G37*
G36*
X107689936Y-129722665D02*
G01*
X107844627Y-129786739D01*
X107983845Y-129879762D01*
X108102238Y-129998155D01*
X108195261Y-130137373D01*
X108259335Y-130292064D01*
X108292000Y-130456282D01*
X108292000Y-130623718D01*
X108259335Y-130787936D01*
X108195261Y-130942627D01*
X108102238Y-131081845D01*
X107983845Y-131200238D01*
X107844627Y-131293261D01*
X107689936Y-131357335D01*
X107525718Y-131390000D01*
X107358282Y-131390000D01*
X107194064Y-131357335D01*
X107039373Y-131293261D01*
X106900155Y-131200238D01*
X106781762Y-131081845D01*
X106688739Y-130942627D01*
X106624665Y-130787936D01*
X106592000Y-130623718D01*
X106592000Y-130456282D01*
X106624665Y-130292064D01*
X106688739Y-130137373D01*
X106781762Y-129998155D01*
X106900155Y-129879762D01*
X107039373Y-129786739D01*
X107194064Y-129722665D01*
X107358282Y-129690000D01*
X107525718Y-129690000D01*
X107689936Y-129722665D01*
G37*
G36*
X110229936Y-129722665D02*
G01*
X110384627Y-129786739D01*
X110523845Y-129879762D01*
X110642238Y-129998155D01*
X110735261Y-130137373D01*
X110799335Y-130292064D01*
X110832000Y-130456282D01*
X110832000Y-130623718D01*
X110799335Y-130787936D01*
X110735261Y-130942627D01*
X110642238Y-131081845D01*
X110523845Y-131200238D01*
X110384627Y-131293261D01*
X110229936Y-131357335D01*
X110065718Y-131390000D01*
X109898282Y-131390000D01*
X109734064Y-131357335D01*
X109579373Y-131293261D01*
X109440155Y-131200238D01*
X109321762Y-131081845D01*
X109228739Y-130942627D01*
X109164665Y-130787936D01*
X109132000Y-130623718D01*
X109132000Y-130456282D01*
X109164665Y-130292064D01*
X109228739Y-130137373D01*
X109321762Y-129998155D01*
X109440155Y-129879762D01*
X109579373Y-129786739D01*
X109734064Y-129722665D01*
X109898282Y-129690000D01*
X110065718Y-129690000D01*
X110229936Y-129722665D01*
G37*
G36*
X112769936Y-129722665D02*
G01*
X112924627Y-129786739D01*
X113063845Y-129879762D01*
X113182238Y-129998155D01*
X113275261Y-130137373D01*
X113339335Y-130292064D01*
X113372000Y-130456282D01*
X113372000Y-130623718D01*
X113339335Y-130787936D01*
X113275261Y-130942627D01*
X113182238Y-131081845D01*
X113063845Y-131200238D01*
X112924627Y-131293261D01*
X112769936Y-131357335D01*
X112605718Y-131390000D01*
X112438282Y-131390000D01*
X112274064Y-131357335D01*
X112119373Y-131293261D01*
X111980155Y-131200238D01*
X111861762Y-131081845D01*
X111768739Y-130942627D01*
X111704665Y-130787936D01*
X111672000Y-130623718D01*
X111672000Y-130456282D01*
X111704665Y-130292064D01*
X111768739Y-130137373D01*
X111861762Y-129998155D01*
X111980155Y-129879762D01*
X112119373Y-129786739D01*
X112274064Y-129722665D01*
X112438282Y-129690000D01*
X112605718Y-129690000D01*
X112769936Y-129722665D01*
G37*
G36*
X115309936Y-129722665D02*
G01*
X115464627Y-129786739D01*
X115603845Y-129879762D01*
X115722238Y-129998155D01*
X115815261Y-130137373D01*
X115879335Y-130292064D01*
X115912000Y-130456282D01*
X115912000Y-130623718D01*
X115879335Y-130787936D01*
X115815261Y-130942627D01*
X115722238Y-131081845D01*
X115603845Y-131200238D01*
X115464627Y-131293261D01*
X115309936Y-131357335D01*
X115145718Y-131390000D01*
X114978282Y-131390000D01*
X114814064Y-131357335D01*
X114659373Y-131293261D01*
X114520155Y-131200238D01*
X114401762Y-131081845D01*
X114308739Y-130942627D01*
X114244665Y-130787936D01*
X114212000Y-130623718D01*
X114212000Y-130456282D01*
X114244665Y-130292064D01*
X114308739Y-130137373D01*
X114401762Y-129998155D01*
X114520155Y-129879762D01*
X114659373Y-129786739D01*
X114814064Y-129722665D01*
X114978282Y-129690000D01*
X115145718Y-129690000D01*
X115309936Y-129722665D01*
G37*
G36*
X120389936Y-129722665D02*
G01*
X120544627Y-129786739D01*
X120683845Y-129879762D01*
X120802238Y-129998155D01*
X120895261Y-130137373D01*
X120959335Y-130292064D01*
X120992000Y-130456282D01*
X120992000Y-130623718D01*
X120959335Y-130787936D01*
X120895261Y-130942627D01*
X120802238Y-131081845D01*
X120683845Y-131200238D01*
X120544627Y-131293261D01*
X120389936Y-131357335D01*
X120225718Y-131390000D01*
X120058282Y-131390000D01*
X119894064Y-131357335D01*
X119739373Y-131293261D01*
X119600155Y-131200238D01*
X119481762Y-131081845D01*
X119388739Y-130942627D01*
X119324665Y-130787936D01*
X119292000Y-130623718D01*
X119292000Y-130456282D01*
X119324665Y-130292064D01*
X119388739Y-130137373D01*
X119481762Y-129998155D01*
X119600155Y-129879762D01*
X119739373Y-129786739D01*
X119894064Y-129722665D01*
X120058282Y-129690000D01*
X120225718Y-129690000D01*
X120389936Y-129722665D01*
G37*
G36*
X122929936Y-129722665D02*
G01*
X123084627Y-129786739D01*
X123223845Y-129879762D01*
X123342238Y-129998155D01*
X123435261Y-130137373D01*
X123499335Y-130292064D01*
X123532000Y-130456282D01*
X123532000Y-130623718D01*
X123499335Y-130787936D01*
X123435261Y-130942627D01*
X123342238Y-131081845D01*
X123223845Y-131200238D01*
X123084627Y-131293261D01*
X122929936Y-131357335D01*
X122765718Y-131390000D01*
X122598282Y-131390000D01*
X122434064Y-131357335D01*
X122279373Y-131293261D01*
X122140155Y-131200238D01*
X122021762Y-131081845D01*
X121928739Y-130942627D01*
X121864665Y-130787936D01*
X121832000Y-130623718D01*
X121832000Y-130456282D01*
X121864665Y-130292064D01*
X121928739Y-130137373D01*
X122021762Y-129998155D01*
X122140155Y-129879762D01*
X122279373Y-129786739D01*
X122434064Y-129722665D01*
X122598282Y-129690000D01*
X122765718Y-129690000D01*
X122929936Y-129722665D01*
G37*
G36*
X125469936Y-129722665D02*
G01*
X125624627Y-129786739D01*
X125763845Y-129879762D01*
X125882238Y-129998155D01*
X125975261Y-130137373D01*
X126039335Y-130292064D01*
X126072000Y-130456282D01*
X126072000Y-130623718D01*
X126039335Y-130787936D01*
X125975261Y-130942627D01*
X125882238Y-131081845D01*
X125763845Y-131200238D01*
X125624627Y-131293261D01*
X125469936Y-131357335D01*
X125305718Y-131390000D01*
X125138282Y-131390000D01*
X124974064Y-131357335D01*
X124819373Y-131293261D01*
X124680155Y-131200238D01*
X124561762Y-131081845D01*
X124468739Y-130942627D01*
X124404665Y-130787936D01*
X124372000Y-130623718D01*
X124372000Y-130456282D01*
X124404665Y-130292064D01*
X124468739Y-130137373D01*
X124561762Y-129998155D01*
X124680155Y-129879762D01*
X124819373Y-129786739D01*
X124974064Y-129722665D01*
X125138282Y-129690000D01*
X125305718Y-129690000D01*
X125469936Y-129722665D01*
G37*
G36*
X128009936Y-129722665D02*
G01*
X128164627Y-129786739D01*
X128303845Y-129879762D01*
X128422238Y-129998155D01*
X128515261Y-130137373D01*
X128579335Y-130292064D01*
X128612000Y-130456282D01*
X128612000Y-130623718D01*
X128579335Y-130787936D01*
X128515261Y-130942627D01*
X128422238Y-131081845D01*
X128303845Y-131200238D01*
X128164627Y-131293261D01*
X128009936Y-131357335D01*
X127845718Y-131390000D01*
X127678282Y-131390000D01*
X127514064Y-131357335D01*
X127359373Y-131293261D01*
X127220155Y-131200238D01*
X127101762Y-131081845D01*
X127008739Y-130942627D01*
X126944665Y-130787936D01*
X126912000Y-130623718D01*
X126912000Y-130456282D01*
X126944665Y-130292064D01*
X127008739Y-130137373D01*
X127101762Y-129998155D01*
X127220155Y-129879762D01*
X127359373Y-129786739D01*
X127514064Y-129722665D01*
X127678282Y-129690000D01*
X127845718Y-129690000D01*
X128009936Y-129722665D01*
G37*
G36*
X130549936Y-129722665D02*
G01*
X130704627Y-129786739D01*
X130843845Y-129879762D01*
X130962238Y-129998155D01*
X131055261Y-130137373D01*
X131119335Y-130292064D01*
X131152000Y-130456282D01*
X131152000Y-130623718D01*
X131119335Y-130787936D01*
X131055261Y-130942627D01*
X130962238Y-131081845D01*
X130843845Y-131200238D01*
X130704627Y-131293261D01*
X130549936Y-131357335D01*
X130385718Y-131390000D01*
X130218282Y-131390000D01*
X130054064Y-131357335D01*
X129899373Y-131293261D01*
X129760155Y-131200238D01*
X129641762Y-131081845D01*
X129548739Y-130942627D01*
X129484665Y-130787936D01*
X129452000Y-130623718D01*
X129452000Y-130456282D01*
X129484665Y-130292064D01*
X129548739Y-130137373D01*
X129641762Y-129998155D01*
X129760155Y-129879762D01*
X129899373Y-129786739D01*
X130054064Y-129722665D01*
X130218282Y-129690000D01*
X130385718Y-129690000D01*
X130549936Y-129722665D01*
G37*
G36*
X133089936Y-129722665D02*
G01*
X133244627Y-129786739D01*
X133383845Y-129879762D01*
X133502238Y-129998155D01*
X133595261Y-130137373D01*
X133659335Y-130292064D01*
X133692000Y-130456282D01*
X133692000Y-130623718D01*
X133659335Y-130787936D01*
X133595261Y-130942627D01*
X133502238Y-131081845D01*
X133383845Y-131200238D01*
X133244627Y-131293261D01*
X133089936Y-131357335D01*
X132925718Y-131390000D01*
X132758282Y-131390000D01*
X132594064Y-131357335D01*
X132439373Y-131293261D01*
X132300155Y-131200238D01*
X132181762Y-131081845D01*
X132088739Y-130942627D01*
X132024665Y-130787936D01*
X131992000Y-130623718D01*
X131992000Y-130456282D01*
X132024665Y-130292064D01*
X132088739Y-130137373D01*
X132181762Y-129998155D01*
X132300155Y-129879762D01*
X132439373Y-129786739D01*
X132594064Y-129722665D01*
X132758282Y-129690000D01*
X132925718Y-129690000D01*
X133089936Y-129722665D01*
G37*
G36*
X117849936Y-129722665D02*
G01*
X118004627Y-129786739D01*
X118143845Y-129879762D01*
X118262238Y-129998155D01*
X118355261Y-130137373D01*
X118419335Y-130292064D01*
X118452000Y-130456282D01*
X118452000Y-130623718D01*
X118419335Y-130787936D01*
X118355261Y-130942627D01*
X118262238Y-131081845D01*
X118143845Y-131200238D01*
X118004627Y-131293261D01*
X117849936Y-131357335D01*
X117685718Y-131390000D01*
X117518282Y-131390000D01*
X117354064Y-131357335D01*
X117199373Y-131293261D01*
X117060155Y-131200238D01*
X116941762Y-131081845D01*
X116848739Y-130942627D01*
X116784665Y-130787936D01*
X116752000Y-130623718D01*
X116752000Y-130456282D01*
X116784665Y-130292064D01*
X116848739Y-130137373D01*
X116941762Y-129998155D01*
X117060155Y-129879762D01*
X117199373Y-129786739D01*
X117354064Y-129722665D01*
X117518282Y-129690000D01*
X117685718Y-129690000D01*
X117849936Y-129722665D01*
G37*
G36*
X125469936Y-127182665D02*
G01*
X125624627Y-127246739D01*
X125763845Y-127339762D01*
X125882238Y-127458155D01*
X125975261Y-127597373D01*
X126039335Y-127752064D01*
X126072000Y-127916282D01*
X126072000Y-128083718D01*
X126039335Y-128247936D01*
X125975261Y-128402627D01*
X125882238Y-128541845D01*
X125763845Y-128660238D01*
X125624627Y-128753261D01*
X125469936Y-128817335D01*
X125305718Y-128850000D01*
X125138282Y-128850000D01*
X124974064Y-128817335D01*
X124819373Y-128753261D01*
X124680155Y-128660238D01*
X124561762Y-128541845D01*
X124468739Y-128402627D01*
X124404665Y-128247936D01*
X124372000Y-128083718D01*
X124372000Y-127916282D01*
X124404665Y-127752064D01*
X124468739Y-127597373D01*
X124561762Y-127458155D01*
X124680155Y-127339762D01*
X124819373Y-127246739D01*
X124974064Y-127182665D01*
X125138282Y-127150000D01*
X125305718Y-127150000D01*
X125469936Y-127182665D01*
G37*
G36*
X135629936Y-127182665D02*
G01*
X135784627Y-127246739D01*
X135923845Y-127339762D01*
X136042238Y-127458155D01*
X136135261Y-127597373D01*
X136199335Y-127752064D01*
X136232000Y-127916282D01*
X136232000Y-128083718D01*
X136199335Y-128247936D01*
X136135261Y-128402627D01*
X136042238Y-128541845D01*
X135923845Y-128660238D01*
X135784627Y-128753261D01*
X135629936Y-128817335D01*
X135465718Y-128850000D01*
X135298282Y-128850000D01*
X135134064Y-128817335D01*
X134979373Y-128753261D01*
X134840155Y-128660238D01*
X134721762Y-128541845D01*
X134628739Y-128402627D01*
X134564665Y-128247936D01*
X134532000Y-128083718D01*
X134532000Y-127916282D01*
X134564665Y-127752064D01*
X134628739Y-127597373D01*
X134721762Y-127458155D01*
X134840155Y-127339762D01*
X134979373Y-127246739D01*
X135134064Y-127182665D01*
X135298282Y-127150000D01*
X135465718Y-127150000D01*
X135629936Y-127182665D01*
G37*
G36*
X130549936Y-127182665D02*
G01*
X130704627Y-127246739D01*
X130843845Y-127339762D01*
X130962238Y-127458155D01*
X131055261Y-127597373D01*
X131119335Y-127752064D01*
X131152000Y-127916282D01*
X131152000Y-128083718D01*
X131119335Y-128247936D01*
X131055261Y-128402627D01*
X130962238Y-128541845D01*
X130843845Y-128660238D01*
X130704627Y-128753261D01*
X130549936Y-128817335D01*
X130385718Y-128850000D01*
X130218282Y-128850000D01*
X130054064Y-128817335D01*
X129899373Y-128753261D01*
X129760155Y-128660238D01*
X129641762Y-128541845D01*
X129548739Y-128402627D01*
X129484665Y-128247936D01*
X129452000Y-128083718D01*
X129452000Y-127916282D01*
X129484665Y-127752064D01*
X129548739Y-127597373D01*
X129641762Y-127458155D01*
X129760155Y-127339762D01*
X129899373Y-127246739D01*
X130054064Y-127182665D01*
X130218282Y-127150000D01*
X130385718Y-127150000D01*
X130549936Y-127182665D01*
G37*
G36*
X128009936Y-127182665D02*
G01*
X128164627Y-127246739D01*
X128303845Y-127339762D01*
X128422238Y-127458155D01*
X128515261Y-127597373D01*
X128579335Y-127752064D01*
X128612000Y-127916282D01*
X128612000Y-128083718D01*
X128579335Y-128247936D01*
X128515261Y-128402627D01*
X128422238Y-128541845D01*
X128303845Y-128660238D01*
X128164627Y-128753261D01*
X128009936Y-128817335D01*
X127845718Y-128850000D01*
X127678282Y-128850000D01*
X127514064Y-128817335D01*
X127359373Y-128753261D01*
X127220155Y-128660238D01*
X127101762Y-128541845D01*
X127008739Y-128402627D01*
X126944665Y-128247936D01*
X126912000Y-128083718D01*
X126912000Y-127916282D01*
X126944665Y-127752064D01*
X127008739Y-127597373D01*
X127101762Y-127458155D01*
X127220155Y-127339762D01*
X127359373Y-127246739D01*
X127514064Y-127182665D01*
X127678282Y-127150000D01*
X127845718Y-127150000D01*
X128009936Y-127182665D01*
G37*
G36*
X122929936Y-127182665D02*
G01*
X123084627Y-127246739D01*
X123223845Y-127339762D01*
X123342238Y-127458155D01*
X123435261Y-127597373D01*
X123499335Y-127752064D01*
X123532000Y-127916282D01*
X123532000Y-128083718D01*
X123499335Y-128247936D01*
X123435261Y-128402627D01*
X123342238Y-128541845D01*
X123223845Y-128660238D01*
X123084627Y-128753261D01*
X122929936Y-128817335D01*
X122765718Y-128850000D01*
X122598282Y-128850000D01*
X122434064Y-128817335D01*
X122279373Y-128753261D01*
X122140155Y-128660238D01*
X122021762Y-128541845D01*
X121928739Y-128402627D01*
X121864665Y-128247936D01*
X121832000Y-128083718D01*
X121832000Y-127916282D01*
X121864665Y-127752064D01*
X121928739Y-127597373D01*
X122021762Y-127458155D01*
X122140155Y-127339762D01*
X122279373Y-127246739D01*
X122434064Y-127182665D01*
X122598282Y-127150000D01*
X122765718Y-127150000D01*
X122929936Y-127182665D01*
G37*
G36*
X133089936Y-127182665D02*
G01*
X133244627Y-127246739D01*
X133383845Y-127339762D01*
X133502238Y-127458155D01*
X133595261Y-127597373D01*
X133659335Y-127752064D01*
X133692000Y-127916282D01*
X133692000Y-128083718D01*
X133659335Y-128247936D01*
X133595261Y-128402627D01*
X133502238Y-128541845D01*
X133383845Y-128660238D01*
X133244627Y-128753261D01*
X133089936Y-128817335D01*
X132925718Y-128850000D01*
X132758282Y-128850000D01*
X132594064Y-128817335D01*
X132439373Y-128753261D01*
X132300155Y-128660238D01*
X132181762Y-128541845D01*
X132088739Y-128402627D01*
X132024665Y-128247936D01*
X131992000Y-128083718D01*
X131992000Y-127916282D01*
X132024665Y-127752064D01*
X132088739Y-127597373D01*
X132181762Y-127458155D01*
X132300155Y-127339762D01*
X132439373Y-127246739D01*
X132594064Y-127182665D01*
X132758282Y-127150000D01*
X132925718Y-127150000D01*
X133089936Y-127182665D01*
G37*
G36*
X117849936Y-127182665D02*
G01*
X118004627Y-127246739D01*
X118143845Y-127339762D01*
X118262238Y-127458155D01*
X118355261Y-127597373D01*
X118419335Y-127752064D01*
X118452000Y-127916282D01*
X118452000Y-128083718D01*
X118419335Y-128247936D01*
X118355261Y-128402627D01*
X118262238Y-128541845D01*
X118143845Y-128660238D01*
X118004627Y-128753261D01*
X117849936Y-128817335D01*
X117685718Y-128850000D01*
X117518282Y-128850000D01*
X117354064Y-128817335D01*
X117199373Y-128753261D01*
X117060155Y-128660238D01*
X116941762Y-128541845D01*
X116848739Y-128402627D01*
X116784665Y-128247936D01*
X116752000Y-128083718D01*
X116752000Y-127916282D01*
X116784665Y-127752064D01*
X116848739Y-127597373D01*
X116941762Y-127458155D01*
X117060155Y-127339762D01*
X117199373Y-127246739D01*
X117354064Y-127182665D01*
X117518282Y-127150000D01*
X117685718Y-127150000D01*
X117849936Y-127182665D01*
G37*
G36*
X138772000Y-128850000D02*
G01*
X137072000Y-128850000D01*
X137072000Y-127150000D01*
X138772000Y-127150000D01*
X138772000Y-128850000D01*
G37*
G36*
X112769936Y-127182665D02*
G01*
X112924627Y-127246739D01*
X113063845Y-127339762D01*
X113182238Y-127458155D01*
X113275261Y-127597373D01*
X113339335Y-127752064D01*
X113372000Y-127916282D01*
X113372000Y-128083718D01*
X113339335Y-128247936D01*
X113275261Y-128402627D01*
X113182238Y-128541845D01*
X113063845Y-128660238D01*
X112924627Y-128753261D01*
X112769936Y-128817335D01*
X112605718Y-128850000D01*
X112438282Y-128850000D01*
X112274064Y-128817335D01*
X112119373Y-128753261D01*
X111980155Y-128660238D01*
X111861762Y-128541845D01*
X111768739Y-128402627D01*
X111704665Y-128247936D01*
X111672000Y-128083718D01*
X111672000Y-127916282D01*
X111704665Y-127752064D01*
X111768739Y-127597373D01*
X111861762Y-127458155D01*
X111980155Y-127339762D01*
X112119373Y-127246739D01*
X112274064Y-127182665D01*
X112438282Y-127150000D01*
X112605718Y-127150000D01*
X112769936Y-127182665D01*
G37*
G36*
X102609936Y-127182665D02*
G01*
X102764627Y-127246739D01*
X102903845Y-127339762D01*
X103022238Y-127458155D01*
X103115261Y-127597373D01*
X103179335Y-127752064D01*
X103212000Y-127916282D01*
X103212000Y-128083718D01*
X103179335Y-128247936D01*
X103115261Y-128402627D01*
X103022238Y-128541845D01*
X102903845Y-128660238D01*
X102764627Y-128753261D01*
X102609936Y-128817335D01*
X102445718Y-128850000D01*
X102278282Y-128850000D01*
X102114064Y-128817335D01*
X101959373Y-128753261D01*
X101820155Y-128660238D01*
X101701762Y-128541845D01*
X101608739Y-128402627D01*
X101544665Y-128247936D01*
X101512000Y-128083718D01*
X101512000Y-127916282D01*
X101544665Y-127752064D01*
X101608739Y-127597373D01*
X101701762Y-127458155D01*
X101820155Y-127339762D01*
X101959373Y-127246739D01*
X102114064Y-127182665D01*
X102278282Y-127150000D01*
X102445718Y-127150000D01*
X102609936Y-127182665D01*
G37*
G36*
X110229936Y-127182665D02*
G01*
X110384627Y-127246739D01*
X110523845Y-127339762D01*
X110642238Y-127458155D01*
X110735261Y-127597373D01*
X110799335Y-127752064D01*
X110832000Y-127916282D01*
X110832000Y-128083718D01*
X110799335Y-128247936D01*
X110735261Y-128402627D01*
X110642238Y-128541845D01*
X110523845Y-128660238D01*
X110384627Y-128753261D01*
X110229936Y-128817335D01*
X110065718Y-128850000D01*
X109898282Y-128850000D01*
X109734064Y-128817335D01*
X109579373Y-128753261D01*
X109440155Y-128660238D01*
X109321762Y-128541845D01*
X109228739Y-128402627D01*
X109164665Y-128247936D01*
X109132000Y-128083718D01*
X109132000Y-127916282D01*
X109164665Y-127752064D01*
X109228739Y-127597373D01*
X109321762Y-127458155D01*
X109440155Y-127339762D01*
X109579373Y-127246739D01*
X109734064Y-127182665D01*
X109898282Y-127150000D01*
X110065718Y-127150000D01*
X110229936Y-127182665D01*
G37*
G36*
X105149936Y-127182665D02*
G01*
X105304627Y-127246739D01*
X105443845Y-127339762D01*
X105562238Y-127458155D01*
X105655261Y-127597373D01*
X105719335Y-127752064D01*
X105752000Y-127916282D01*
X105752000Y-128083718D01*
X105719335Y-128247936D01*
X105655261Y-128402627D01*
X105562238Y-128541845D01*
X105443845Y-128660238D01*
X105304627Y-128753261D01*
X105149936Y-128817335D01*
X104985718Y-128850000D01*
X104818282Y-128850000D01*
X104654064Y-128817335D01*
X104499373Y-128753261D01*
X104360155Y-128660238D01*
X104241762Y-128541845D01*
X104148739Y-128402627D01*
X104084665Y-128247936D01*
X104052000Y-128083718D01*
X104052000Y-127916282D01*
X104084665Y-127752064D01*
X104148739Y-127597373D01*
X104241762Y-127458155D01*
X104360155Y-127339762D01*
X104499373Y-127246739D01*
X104654064Y-127182665D01*
X104818282Y-127150000D01*
X104985718Y-127150000D01*
X105149936Y-127182665D01*
G37*
G36*
X107689936Y-127182665D02*
G01*
X107844627Y-127246739D01*
X107983845Y-127339762D01*
X108102238Y-127458155D01*
X108195261Y-127597373D01*
X108259335Y-127752064D01*
X108292000Y-127916282D01*
X108292000Y-128083718D01*
X108259335Y-128247936D01*
X108195261Y-128402627D01*
X108102238Y-128541845D01*
X107983845Y-128660238D01*
X107844627Y-128753261D01*
X107689936Y-128817335D01*
X107525718Y-128850000D01*
X107358282Y-128850000D01*
X107194064Y-128817335D01*
X107039373Y-128753261D01*
X106900155Y-128660238D01*
X106781762Y-128541845D01*
X106688739Y-128402627D01*
X106624665Y-128247936D01*
X106592000Y-128083718D01*
X106592000Y-127916282D01*
X106624665Y-127752064D01*
X106688739Y-127597373D01*
X106781762Y-127458155D01*
X106900155Y-127339762D01*
X107039373Y-127246739D01*
X107194064Y-127182665D01*
X107358282Y-127150000D01*
X107525718Y-127150000D01*
X107689936Y-127182665D01*
G37*
G36*
X120389936Y-127182665D02*
G01*
X120544627Y-127246739D01*
X120683845Y-127339762D01*
X120802238Y-127458155D01*
X120895261Y-127597373D01*
X120959335Y-127752064D01*
X120992000Y-127916282D01*
X120992000Y-128083718D01*
X120959335Y-128247936D01*
X120895261Y-128402627D01*
X120802238Y-128541845D01*
X120683845Y-128660238D01*
X120544627Y-128753261D01*
X120389936Y-128817335D01*
X120225718Y-128850000D01*
X120058282Y-128850000D01*
X119894064Y-128817335D01*
X119739373Y-128753261D01*
X119600155Y-128660238D01*
X119481762Y-128541845D01*
X119388739Y-128402627D01*
X119324665Y-128247936D01*
X119292000Y-128083718D01*
X119292000Y-127916282D01*
X119324665Y-127752064D01*
X119388739Y-127597373D01*
X119481762Y-127458155D01*
X119600155Y-127339762D01*
X119739373Y-127246739D01*
X119894064Y-127182665D01*
X120058282Y-127150000D01*
X120225718Y-127150000D01*
X120389936Y-127182665D01*
G37*
G36*
X115309936Y-127182665D02*
G01*
X115464627Y-127246739D01*
X115603845Y-127339762D01*
X115722238Y-127458155D01*
X115815261Y-127597373D01*
X115879335Y-127752064D01*
X115912000Y-127916282D01*
X115912000Y-128083718D01*
X115879335Y-128247936D01*
X115815261Y-128402627D01*
X115722238Y-128541845D01*
X115603845Y-128660238D01*
X115464627Y-128753261D01*
X115309936Y-128817335D01*
X115145718Y-128850000D01*
X114978282Y-128850000D01*
X114814064Y-128817335D01*
X114659373Y-128753261D01*
X114520155Y-128660238D01*
X114401762Y-128541845D01*
X114308739Y-128402627D01*
X114244665Y-128247936D01*
X114212000Y-128083718D01*
X114212000Y-127916282D01*
X114244665Y-127752064D01*
X114308739Y-127597373D01*
X114401762Y-127458155D01*
X114520155Y-127339762D01*
X114659373Y-127246739D01*
X114814064Y-127182665D01*
X114978282Y-127150000D01*
X115145718Y-127150000D01*
X115309936Y-127182665D01*
G37*
G36*
X111841466Y-115931429D02*
G01*
X111882321Y-115943822D01*
X111919972Y-115963947D01*
X111952971Y-115991029D01*
X111980053Y-116024028D01*
X112000178Y-116061679D01*
X112012571Y-116102534D01*
X112017000Y-116147506D01*
X112017000Y-119056494D01*
X112012571Y-119101466D01*
X112000178Y-119142321D01*
X111980053Y-119179972D01*
X111952971Y-119212971D01*
X111919972Y-119240053D01*
X111882321Y-119260178D01*
X111841466Y-119272571D01*
X111796494Y-119277000D01*
X110887506Y-119277000D01*
X110842534Y-119272571D01*
X110801679Y-119260178D01*
X110764028Y-119240053D01*
X110731029Y-119212971D01*
X110703947Y-119179972D01*
X110683822Y-119142321D01*
X110671429Y-119101466D01*
X110667000Y-119056494D01*
X110667000Y-116147506D01*
X110671429Y-116102534D01*
X110683822Y-116061679D01*
X110703947Y-116024028D01*
X110731029Y-115991029D01*
X110764028Y-115963947D01*
X110801679Y-115943822D01*
X110842534Y-115931429D01*
X110887506Y-115927000D01*
X111796494Y-115927000D01*
X111841466Y-115931429D01*
G37*
G36*
X106041466Y-115931429D02*
G01*
X106082321Y-115943822D01*
X106119972Y-115963947D01*
X106152971Y-115991029D01*
X106180053Y-116024028D01*
X106200178Y-116061679D01*
X106212571Y-116102534D01*
X106217000Y-116147506D01*
X106217000Y-119056494D01*
X106212571Y-119101466D01*
X106200178Y-119142321D01*
X106180053Y-119179972D01*
X106152971Y-119212971D01*
X106119972Y-119240053D01*
X106082321Y-119260178D01*
X106041466Y-119272571D01*
X105996494Y-119277000D01*
X105087506Y-119277000D01*
X105042534Y-119272571D01*
X105001679Y-119260178D01*
X104964028Y-119240053D01*
X104931029Y-119212971D01*
X104903947Y-119179972D01*
X104883822Y-119142321D01*
X104871429Y-119101466D01*
X104867000Y-119056494D01*
X104867000Y-116147506D01*
X104871429Y-116102534D01*
X104883822Y-116061679D01*
X104903947Y-116024028D01*
X104931029Y-115991029D01*
X104964028Y-115963947D01*
X105001679Y-115943822D01*
X105042534Y-115931429D01*
X105087506Y-115927000D01*
X105996494Y-115927000D01*
X106041466Y-115931429D01*
G37*
G36*
X129663466Y-115931429D02*
G01*
X129704321Y-115943822D01*
X129741972Y-115963947D01*
X129774971Y-115991029D01*
X129802053Y-116024028D01*
X129822178Y-116061679D01*
X129834571Y-116102534D01*
X129839000Y-116147506D01*
X129839000Y-119056494D01*
X129834571Y-119101466D01*
X129822178Y-119142321D01*
X129802053Y-119179972D01*
X129774971Y-119212971D01*
X129741972Y-119240053D01*
X129704321Y-119260178D01*
X129663466Y-119272571D01*
X129618494Y-119277000D01*
X128709506Y-119277000D01*
X128664534Y-119272571D01*
X128623679Y-119260178D01*
X128586028Y-119240053D01*
X128553029Y-119212971D01*
X128525947Y-119179972D01*
X128505822Y-119142321D01*
X128493429Y-119101466D01*
X128489000Y-119056494D01*
X128489000Y-116147506D01*
X128493429Y-116102534D01*
X128505822Y-116061679D01*
X128525947Y-116024028D01*
X128553029Y-115991029D01*
X128586028Y-115963947D01*
X128623679Y-115943822D01*
X128664534Y-115931429D01*
X128709506Y-115927000D01*
X129618494Y-115927000D01*
X129663466Y-115931429D01*
G37*
G36*
X135463466Y-115931429D02*
G01*
X135504321Y-115943822D01*
X135541972Y-115963947D01*
X135574971Y-115991029D01*
X135602053Y-116024028D01*
X135622178Y-116061679D01*
X135634571Y-116102534D01*
X135639000Y-116147506D01*
X135639000Y-119056494D01*
X135634571Y-119101466D01*
X135622178Y-119142321D01*
X135602053Y-119179972D01*
X135574971Y-119212971D01*
X135541972Y-119240053D01*
X135504321Y-119260178D01*
X135463466Y-119272571D01*
X135418494Y-119277000D01*
X134509506Y-119277000D01*
X134464534Y-119272571D01*
X134423679Y-119260178D01*
X134386028Y-119240053D01*
X134353029Y-119212971D01*
X134325947Y-119179972D01*
X134305822Y-119142321D01*
X134293429Y-119101466D01*
X134289000Y-119056494D01*
X134289000Y-116147506D01*
X134293429Y-116102534D01*
X134305822Y-116061679D01*
X134325947Y-116024028D01*
X134353029Y-115991029D01*
X134386028Y-115963947D01*
X134423679Y-115943822D01*
X134464534Y-115931429D01*
X134509506Y-115927000D01*
X135418494Y-115927000D01*
X135463466Y-115931429D01*
G37*
G36*
X115783466Y-114497429D02*
G01*
X115824321Y-114509822D01*
X115861972Y-114529947D01*
X115894971Y-114557029D01*
X115922053Y-114590028D01*
X115942178Y-114627679D01*
X115954571Y-114668534D01*
X115959000Y-114713506D01*
X115959000Y-115622494D01*
X115954571Y-115667466D01*
X115942178Y-115708321D01*
X115922053Y-115745972D01*
X115894971Y-115778971D01*
X115861972Y-115806053D01*
X115824321Y-115826178D01*
X115783466Y-115838571D01*
X115738494Y-115843000D01*
X112829506Y-115843000D01*
X112784534Y-115838571D01*
X112743679Y-115826178D01*
X112706028Y-115806053D01*
X112673029Y-115778971D01*
X112645947Y-115745972D01*
X112625822Y-115708321D01*
X112613429Y-115667466D01*
X112609000Y-115622494D01*
X112609000Y-114713506D01*
X112613429Y-114668534D01*
X112625822Y-114627679D01*
X112645947Y-114590028D01*
X112673029Y-114557029D01*
X112706028Y-114529947D01*
X112743679Y-114509822D01*
X112784534Y-114497429D01*
X112829506Y-114493000D01*
X115738494Y-114493000D01*
X115783466Y-114497429D01*
G37*
G36*
X139405466Y-114497429D02*
G01*
X139446321Y-114509822D01*
X139483972Y-114529947D01*
X139516971Y-114557029D01*
X139544053Y-114590028D01*
X139564178Y-114627679D01*
X139576571Y-114668534D01*
X139581000Y-114713506D01*
X139581000Y-115622494D01*
X139576571Y-115667466D01*
X139564178Y-115708321D01*
X139544053Y-115745972D01*
X139516971Y-115778971D01*
X139483972Y-115806053D01*
X139446321Y-115826178D01*
X139405466Y-115838571D01*
X139360494Y-115843000D01*
X136451506Y-115843000D01*
X136406534Y-115838571D01*
X136365679Y-115826178D01*
X136328028Y-115806053D01*
X136295029Y-115778971D01*
X136267947Y-115745972D01*
X136247822Y-115708321D01*
X136235429Y-115667466D01*
X136231000Y-115622494D01*
X136231000Y-114713506D01*
X136235429Y-114668534D01*
X136247822Y-114627679D01*
X136267947Y-114590028D01*
X136295029Y-114557029D01*
X136328028Y-114529947D01*
X136365679Y-114509822D01*
X136406534Y-114497429D01*
X136451506Y-114493000D01*
X139360494Y-114493000D01*
X139405466Y-114497429D01*
G37*
G36*
X127721466Y-114497429D02*
G01*
X127762321Y-114509822D01*
X127799972Y-114529947D01*
X127832971Y-114557029D01*
X127860053Y-114590028D01*
X127880178Y-114627679D01*
X127892571Y-114668534D01*
X127897000Y-114713506D01*
X127897000Y-115622494D01*
X127892571Y-115667466D01*
X127880178Y-115708321D01*
X127860053Y-115745972D01*
X127832971Y-115778971D01*
X127799972Y-115806053D01*
X127762321Y-115826178D01*
X127721466Y-115838571D01*
X127676494Y-115843000D01*
X124767506Y-115843000D01*
X124722534Y-115838571D01*
X124681679Y-115826178D01*
X124644028Y-115806053D01*
X124611029Y-115778971D01*
X124583947Y-115745972D01*
X124563822Y-115708321D01*
X124551429Y-115667466D01*
X124547000Y-115622494D01*
X124547000Y-114713506D01*
X124551429Y-114668534D01*
X124563822Y-114627679D01*
X124583947Y-114590028D01*
X124611029Y-114557029D01*
X124644028Y-114529947D01*
X124681679Y-114509822D01*
X124722534Y-114497429D01*
X124767506Y-114493000D01*
X127676494Y-114493000D01*
X127721466Y-114497429D01*
G37*
G36*
X104099466Y-114497429D02*
G01*
X104140321Y-114509822D01*
X104177972Y-114529947D01*
X104210971Y-114557029D01*
X104238053Y-114590028D01*
X104258178Y-114627679D01*
X104270571Y-114668534D01*
X104275000Y-114713506D01*
X104275000Y-115622494D01*
X104270571Y-115667466D01*
X104258178Y-115708321D01*
X104238053Y-115745972D01*
X104210971Y-115778971D01*
X104177972Y-115806053D01*
X104140321Y-115826178D01*
X104099466Y-115838571D01*
X104054494Y-115843000D01*
X101145506Y-115843000D01*
X101100534Y-115838571D01*
X101059679Y-115826178D01*
X101022028Y-115806053D01*
X100989029Y-115778971D01*
X100961947Y-115745972D01*
X100941822Y-115708321D01*
X100929429Y-115667466D01*
X100925000Y-115622494D01*
X100925000Y-114713506D01*
X100929429Y-114668534D01*
X100941822Y-114627679D01*
X100961947Y-114590028D01*
X100989029Y-114557029D01*
X101022028Y-114529947D01*
X101059679Y-114509822D01*
X101100534Y-114497429D01*
X101145506Y-114493000D01*
X104054494Y-114493000D01*
X104099466Y-114497429D01*
G37*
G36*
X139405466Y-108697429D02*
G01*
X139446321Y-108709822D01*
X139483972Y-108729947D01*
X139516971Y-108757029D01*
X139544053Y-108790028D01*
X139564178Y-108827679D01*
X139576571Y-108868534D01*
X139581000Y-108913506D01*
X139581000Y-109822494D01*
X139576571Y-109867466D01*
X139564178Y-109908321D01*
X139544053Y-109945972D01*
X139516971Y-109978971D01*
X139483972Y-110006053D01*
X139446321Y-110026178D01*
X139405466Y-110038571D01*
X139360494Y-110043000D01*
X136451506Y-110043000D01*
X136406534Y-110038571D01*
X136365679Y-110026178D01*
X136328028Y-110006053D01*
X136295029Y-109978971D01*
X136267947Y-109945972D01*
X136247822Y-109908321D01*
X136235429Y-109867466D01*
X136231000Y-109822494D01*
X136231000Y-108913506D01*
X136235429Y-108868534D01*
X136247822Y-108827679D01*
X136267947Y-108790028D01*
X136295029Y-108757029D01*
X136328028Y-108729947D01*
X136365679Y-108709822D01*
X136406534Y-108697429D01*
X136451506Y-108693000D01*
X139360494Y-108693000D01*
X139405466Y-108697429D01*
G37*
G36*
X127721466Y-108697429D02*
G01*
X127762321Y-108709822D01*
X127799972Y-108729947D01*
X127832971Y-108757029D01*
X127860053Y-108790028D01*
X127880178Y-108827679D01*
X127892571Y-108868534D01*
X127897000Y-108913506D01*
X127897000Y-109822494D01*
X127892571Y-109867466D01*
X127880178Y-109908321D01*
X127860053Y-109945972D01*
X127832971Y-109978971D01*
X127799972Y-110006053D01*
X127762321Y-110026178D01*
X127721466Y-110038571D01*
X127676494Y-110043000D01*
X124767506Y-110043000D01*
X124722534Y-110038571D01*
X124681679Y-110026178D01*
X124644028Y-110006053D01*
X124611029Y-109978971D01*
X124583947Y-109945972D01*
X124563822Y-109908321D01*
X124551429Y-109867466D01*
X124547000Y-109822494D01*
X124547000Y-108913506D01*
X124551429Y-108868534D01*
X124563822Y-108827679D01*
X124583947Y-108790028D01*
X124611029Y-108757029D01*
X124644028Y-108729947D01*
X124681679Y-108709822D01*
X124722534Y-108697429D01*
X124767506Y-108693000D01*
X127676494Y-108693000D01*
X127721466Y-108697429D01*
G37*
G36*
X115783466Y-108697429D02*
G01*
X115824321Y-108709822D01*
X115861972Y-108729947D01*
X115894971Y-108757029D01*
X115922053Y-108790028D01*
X115942178Y-108827679D01*
X115954571Y-108868534D01*
X115959000Y-108913506D01*
X115959000Y-109822494D01*
X115954571Y-109867466D01*
X115942178Y-109908321D01*
X115922053Y-109945972D01*
X115894971Y-109978971D01*
X115861972Y-110006053D01*
X115824321Y-110026178D01*
X115783466Y-110038571D01*
X115738494Y-110043000D01*
X112829506Y-110043000D01*
X112784534Y-110038571D01*
X112743679Y-110026178D01*
X112706028Y-110006053D01*
X112673029Y-109978971D01*
X112645947Y-109945972D01*
X112625822Y-109908321D01*
X112613429Y-109867466D01*
X112609000Y-109822494D01*
X112609000Y-108913506D01*
X112613429Y-108868534D01*
X112625822Y-108827679D01*
X112645947Y-108790028D01*
X112673029Y-108757029D01*
X112706028Y-108729947D01*
X112743679Y-108709822D01*
X112784534Y-108697429D01*
X112829506Y-108693000D01*
X115738494Y-108693000D01*
X115783466Y-108697429D01*
G37*
G36*
X104099466Y-108697429D02*
G01*
X104140321Y-108709822D01*
X104177972Y-108729947D01*
X104210971Y-108757029D01*
X104238053Y-108790028D01*
X104258178Y-108827679D01*
X104270571Y-108868534D01*
X104275000Y-108913506D01*
X104275000Y-109822494D01*
X104270571Y-109867466D01*
X104258178Y-109908321D01*
X104238053Y-109945972D01*
X104210971Y-109978971D01*
X104177972Y-110006053D01*
X104140321Y-110026178D01*
X104099466Y-110038571D01*
X104054494Y-110043000D01*
X101145506Y-110043000D01*
X101100534Y-110038571D01*
X101059679Y-110026178D01*
X101022028Y-110006053D01*
X100989029Y-109978971D01*
X100961947Y-109945972D01*
X100941822Y-109908321D01*
X100929429Y-109867466D01*
X100925000Y-109822494D01*
X100925000Y-108913506D01*
X100929429Y-108868534D01*
X100941822Y-108827679D01*
X100961947Y-108790028D01*
X100989029Y-108757029D01*
X101022028Y-108729947D01*
X101059679Y-108709822D01*
X101100534Y-108697429D01*
X101145506Y-108693000D01*
X104054494Y-108693000D01*
X104099466Y-108697429D01*
G37*
G36*
X106041466Y-105263429D02*
G01*
X106082321Y-105275822D01*
X106119972Y-105295947D01*
X106152971Y-105323029D01*
X106180053Y-105356028D01*
X106200178Y-105393679D01*
X106212571Y-105434534D01*
X106217000Y-105479506D01*
X106217000Y-108388494D01*
X106212571Y-108433466D01*
X106200178Y-108474321D01*
X106180053Y-108511972D01*
X106152971Y-108544971D01*
X106119972Y-108572053D01*
X106082321Y-108592178D01*
X106041466Y-108604571D01*
X105996494Y-108609000D01*
X105087506Y-108609000D01*
X105042534Y-108604571D01*
X105001679Y-108592178D01*
X104964028Y-108572053D01*
X104931029Y-108544971D01*
X104903947Y-108511972D01*
X104883822Y-108474321D01*
X104871429Y-108433466D01*
X104867000Y-108388494D01*
X104867000Y-105479506D01*
X104871429Y-105434534D01*
X104883822Y-105393679D01*
X104903947Y-105356028D01*
X104931029Y-105323029D01*
X104964028Y-105295947D01*
X105001679Y-105275822D01*
X105042534Y-105263429D01*
X105087506Y-105259000D01*
X105996494Y-105259000D01*
X106041466Y-105263429D01*
G37*
G36*
X135463466Y-105263429D02*
G01*
X135504321Y-105275822D01*
X135541972Y-105295947D01*
X135574971Y-105323029D01*
X135602053Y-105356028D01*
X135622178Y-105393679D01*
X135634571Y-105434534D01*
X135639000Y-105479506D01*
X135639000Y-108388494D01*
X135634571Y-108433466D01*
X135622178Y-108474321D01*
X135602053Y-108511972D01*
X135574971Y-108544971D01*
X135541972Y-108572053D01*
X135504321Y-108592178D01*
X135463466Y-108604571D01*
X135418494Y-108609000D01*
X134509506Y-108609000D01*
X134464534Y-108604571D01*
X134423679Y-108592178D01*
X134386028Y-108572053D01*
X134353029Y-108544971D01*
X134325947Y-108511972D01*
X134305822Y-108474321D01*
X134293429Y-108433466D01*
X134289000Y-108388494D01*
X134289000Y-105479506D01*
X134293429Y-105434534D01*
X134305822Y-105393679D01*
X134325947Y-105356028D01*
X134353029Y-105323029D01*
X134386028Y-105295947D01*
X134423679Y-105275822D01*
X134464534Y-105263429D01*
X134509506Y-105259000D01*
X135418494Y-105259000D01*
X135463466Y-105263429D01*
G37*
G36*
X111841466Y-105263429D02*
G01*
X111882321Y-105275822D01*
X111919972Y-105295947D01*
X111952971Y-105323029D01*
X111980053Y-105356028D01*
X112000178Y-105393679D01*
X112012571Y-105434534D01*
X112017000Y-105479506D01*
X112017000Y-108388494D01*
X112012571Y-108433466D01*
X112000178Y-108474321D01*
X111980053Y-108511972D01*
X111952971Y-108544971D01*
X111919972Y-108572053D01*
X111882321Y-108592178D01*
X111841466Y-108604571D01*
X111796494Y-108609000D01*
X110887506Y-108609000D01*
X110842534Y-108604571D01*
X110801679Y-108592178D01*
X110764028Y-108572053D01*
X110731029Y-108544971D01*
X110703947Y-108511972D01*
X110683822Y-108474321D01*
X110671429Y-108433466D01*
X110667000Y-108388494D01*
X110667000Y-105479506D01*
X110671429Y-105434534D01*
X110683822Y-105393679D01*
X110703947Y-105356028D01*
X110731029Y-105323029D01*
X110764028Y-105295947D01*
X110801679Y-105275822D01*
X110842534Y-105263429D01*
X110887506Y-105259000D01*
X111796494Y-105259000D01*
X111841466Y-105263429D01*
G37*
G36*
X129663466Y-105263429D02*
G01*
X129704321Y-105275822D01*
X129741972Y-105295947D01*
X129774971Y-105323029D01*
X129802053Y-105356028D01*
X129822178Y-105393679D01*
X129834571Y-105434534D01*
X129839000Y-105479506D01*
X129839000Y-108388494D01*
X129834571Y-108433466D01*
X129822178Y-108474321D01*
X129802053Y-108511972D01*
X129774971Y-108544971D01*
X129741972Y-108572053D01*
X129704321Y-108592178D01*
X129663466Y-108604571D01*
X129618494Y-108609000D01*
X128709506Y-108609000D01*
X128664534Y-108604571D01*
X128623679Y-108592178D01*
X128586028Y-108572053D01*
X128553029Y-108544971D01*
X128525947Y-108511972D01*
X128505822Y-108474321D01*
X128493429Y-108433466D01*
X128489000Y-108388494D01*
X128489000Y-105479506D01*
X128493429Y-105434534D01*
X128505822Y-105393679D01*
X128525947Y-105356028D01*
X128553029Y-105323029D01*
X128586028Y-105295947D01*
X128623679Y-105275822D01*
X128664534Y-105263429D01*
X128709506Y-105259000D01*
X129618494Y-105259000D01*
X129663466Y-105263429D01*
G37*
G36*
X115783466Y-103829429D02*
G01*
X115824321Y-103841822D01*
X115861972Y-103861947D01*
X115894971Y-103889029D01*
X115922053Y-103922028D01*
X115942178Y-103959679D01*
X115954571Y-104000534D01*
X115959000Y-104045506D01*
X115959000Y-104954494D01*
X115954571Y-104999466D01*
X115942178Y-105040321D01*
X115922053Y-105077972D01*
X115894971Y-105110971D01*
X115861972Y-105138053D01*
X115824321Y-105158178D01*
X115783466Y-105170571D01*
X115738494Y-105175000D01*
X112829506Y-105175000D01*
X112784534Y-105170571D01*
X112743679Y-105158178D01*
X112706028Y-105138053D01*
X112673029Y-105110971D01*
X112645947Y-105077972D01*
X112625822Y-105040321D01*
X112613429Y-104999466D01*
X112609000Y-104954494D01*
X112609000Y-104045506D01*
X112613429Y-104000534D01*
X112625822Y-103959679D01*
X112645947Y-103922028D01*
X112673029Y-103889029D01*
X112706028Y-103861947D01*
X112743679Y-103841822D01*
X112784534Y-103829429D01*
X112829506Y-103825000D01*
X115738494Y-103825000D01*
X115783466Y-103829429D01*
G37*
G36*
X127721466Y-103829429D02*
G01*
X127762321Y-103841822D01*
X127799972Y-103861947D01*
X127832971Y-103889029D01*
X127860053Y-103922028D01*
X127880178Y-103959679D01*
X127892571Y-104000534D01*
X127897000Y-104045506D01*
X127897000Y-104954494D01*
X127892571Y-104999466D01*
X127880178Y-105040321D01*
X127860053Y-105077972D01*
X127832971Y-105110971D01*
X127799972Y-105138053D01*
X127762321Y-105158178D01*
X127721466Y-105170571D01*
X127676494Y-105175000D01*
X124767506Y-105175000D01*
X124722534Y-105170571D01*
X124681679Y-105158178D01*
X124644028Y-105138053D01*
X124611029Y-105110971D01*
X124583947Y-105077972D01*
X124563822Y-105040321D01*
X124551429Y-104999466D01*
X124547000Y-104954494D01*
X124547000Y-104045506D01*
X124551429Y-104000534D01*
X124563822Y-103959679D01*
X124583947Y-103922028D01*
X124611029Y-103889029D01*
X124644028Y-103861947D01*
X124681679Y-103841822D01*
X124722534Y-103829429D01*
X124767506Y-103825000D01*
X127676494Y-103825000D01*
X127721466Y-103829429D01*
G37*
G36*
X139405466Y-103829429D02*
G01*
X139446321Y-103841822D01*
X139483972Y-103861947D01*
X139516971Y-103889029D01*
X139544053Y-103922028D01*
X139564178Y-103959679D01*
X139576571Y-104000534D01*
X139581000Y-104045506D01*
X139581000Y-104954494D01*
X139576571Y-104999466D01*
X139564178Y-105040321D01*
X139544053Y-105077972D01*
X139516971Y-105110971D01*
X139483972Y-105138053D01*
X139446321Y-105158178D01*
X139405466Y-105170571D01*
X139360494Y-105175000D01*
X136451506Y-105175000D01*
X136406534Y-105170571D01*
X136365679Y-105158178D01*
X136328028Y-105138053D01*
X136295029Y-105110971D01*
X136267947Y-105077972D01*
X136247822Y-105040321D01*
X136235429Y-104999466D01*
X136231000Y-104954494D01*
X136231000Y-104045506D01*
X136235429Y-104000534D01*
X136247822Y-103959679D01*
X136267947Y-103922028D01*
X136295029Y-103889029D01*
X136328028Y-103861947D01*
X136365679Y-103841822D01*
X136406534Y-103829429D01*
X136451506Y-103825000D01*
X139360494Y-103825000D01*
X139405466Y-103829429D01*
G37*
G36*
X104099466Y-103829429D02*
G01*
X104140321Y-103841822D01*
X104177972Y-103861947D01*
X104210971Y-103889029D01*
X104238053Y-103922028D01*
X104258178Y-103959679D01*
X104270571Y-104000534D01*
X104275000Y-104045506D01*
X104275000Y-104954494D01*
X104270571Y-104999466D01*
X104258178Y-105040321D01*
X104238053Y-105077972D01*
X104210971Y-105110971D01*
X104177972Y-105138053D01*
X104140321Y-105158178D01*
X104099466Y-105170571D01*
X104054494Y-105175000D01*
X101145506Y-105175000D01*
X101100534Y-105170571D01*
X101059679Y-105158178D01*
X101022028Y-105138053D01*
X100989029Y-105110971D01*
X100961947Y-105077972D01*
X100941822Y-105040321D01*
X100929429Y-104999466D01*
X100925000Y-104954494D01*
X100925000Y-104045506D01*
X100929429Y-104000534D01*
X100941822Y-103959679D01*
X100961947Y-103922028D01*
X100989029Y-103889029D01*
X101022028Y-103861947D01*
X101059679Y-103841822D01*
X101100534Y-103829429D01*
X101145506Y-103825000D01*
X104054494Y-103825000D01*
X104099466Y-103829429D01*
G37*
G36*
X104099466Y-98029429D02*
G01*
X104140321Y-98041822D01*
X104177972Y-98061947D01*
X104210971Y-98089029D01*
X104238053Y-98122028D01*
X104258178Y-98159679D01*
X104270571Y-98200534D01*
X104275000Y-98245506D01*
X104275000Y-99154494D01*
X104270571Y-99199466D01*
X104258178Y-99240321D01*
X104238053Y-99277972D01*
X104210971Y-99310971D01*
X104177972Y-99338053D01*
X104140321Y-99358178D01*
X104099466Y-99370571D01*
X104054494Y-99375000D01*
X101145506Y-99375000D01*
X101100534Y-99370571D01*
X101059679Y-99358178D01*
X101022028Y-99338053D01*
X100989029Y-99310971D01*
X100961947Y-99277972D01*
X100941822Y-99240321D01*
X100929429Y-99199466D01*
X100925000Y-99154494D01*
X100925000Y-98245506D01*
X100929429Y-98200534D01*
X100941822Y-98159679D01*
X100961947Y-98122028D01*
X100989029Y-98089029D01*
X101022028Y-98061947D01*
X101059679Y-98041822D01*
X101100534Y-98029429D01*
X101145506Y-98025000D01*
X104054494Y-98025000D01*
X104099466Y-98029429D01*
G37*
G36*
X139405466Y-98029429D02*
G01*
X139446321Y-98041822D01*
X139483972Y-98061947D01*
X139516971Y-98089029D01*
X139544053Y-98122028D01*
X139564178Y-98159679D01*
X139576571Y-98200534D01*
X139581000Y-98245506D01*
X139581000Y-99154494D01*
X139576571Y-99199466D01*
X139564178Y-99240321D01*
X139544053Y-99277972D01*
X139516971Y-99310971D01*
X139483972Y-99338053D01*
X139446321Y-99358178D01*
X139405466Y-99370571D01*
X139360494Y-99375000D01*
X136451506Y-99375000D01*
X136406534Y-99370571D01*
X136365679Y-99358178D01*
X136328028Y-99338053D01*
X136295029Y-99310971D01*
X136267947Y-99277972D01*
X136247822Y-99240321D01*
X136235429Y-99199466D01*
X136231000Y-99154494D01*
X136231000Y-98245506D01*
X136235429Y-98200534D01*
X136247822Y-98159679D01*
X136267947Y-98122028D01*
X136295029Y-98089029D01*
X136328028Y-98061947D01*
X136365679Y-98041822D01*
X136406534Y-98029429D01*
X136451506Y-98025000D01*
X139360494Y-98025000D01*
X139405466Y-98029429D01*
G37*
G36*
X127721466Y-98029429D02*
G01*
X127762321Y-98041822D01*
X127799972Y-98061947D01*
X127832971Y-98089029D01*
X127860053Y-98122028D01*
X127880178Y-98159679D01*
X127892571Y-98200534D01*
X127897000Y-98245506D01*
X127897000Y-99154494D01*
X127892571Y-99199466D01*
X127880178Y-99240321D01*
X127860053Y-99277972D01*
X127832971Y-99310971D01*
X127799972Y-99338053D01*
X127762321Y-99358178D01*
X127721466Y-99370571D01*
X127676494Y-99375000D01*
X124767506Y-99375000D01*
X124722534Y-99370571D01*
X124681679Y-99358178D01*
X124644028Y-99338053D01*
X124611029Y-99310971D01*
X124583947Y-99277972D01*
X124563822Y-99240321D01*
X124551429Y-99199466D01*
X124547000Y-99154494D01*
X124547000Y-98245506D01*
X124551429Y-98200534D01*
X124563822Y-98159679D01*
X124583947Y-98122028D01*
X124611029Y-98089029D01*
X124644028Y-98061947D01*
X124681679Y-98041822D01*
X124722534Y-98029429D01*
X124767506Y-98025000D01*
X127676494Y-98025000D01*
X127721466Y-98029429D01*
G37*
G36*
X115783466Y-98029429D02*
G01*
X115824321Y-98041822D01*
X115861972Y-98061947D01*
X115894971Y-98089029D01*
X115922053Y-98122028D01*
X115942178Y-98159679D01*
X115954571Y-98200534D01*
X115959000Y-98245506D01*
X115959000Y-99154494D01*
X115954571Y-99199466D01*
X115942178Y-99240321D01*
X115922053Y-99277972D01*
X115894971Y-99310971D01*
X115861972Y-99338053D01*
X115824321Y-99358178D01*
X115783466Y-99370571D01*
X115738494Y-99375000D01*
X112829506Y-99375000D01*
X112784534Y-99370571D01*
X112743679Y-99358178D01*
X112706028Y-99338053D01*
X112673029Y-99310971D01*
X112645947Y-99277972D01*
X112625822Y-99240321D01*
X112613429Y-99199466D01*
X112609000Y-99154494D01*
X112609000Y-98245506D01*
X112613429Y-98200534D01*
X112625822Y-98159679D01*
X112645947Y-98122028D01*
X112673029Y-98089029D01*
X112706028Y-98061947D01*
X112743679Y-98041822D01*
X112784534Y-98029429D01*
X112829506Y-98025000D01*
X115738494Y-98025000D01*
X115783466Y-98029429D01*
G37*
G36*
X106041466Y-94595429D02*
G01*
X106082321Y-94607822D01*
X106119972Y-94627947D01*
X106152971Y-94655029D01*
X106180053Y-94688028D01*
X106200178Y-94725679D01*
X106212571Y-94766534D01*
X106217000Y-94811506D01*
X106217000Y-97720494D01*
X106212571Y-97765466D01*
X106200178Y-97806321D01*
X106180053Y-97843972D01*
X106152971Y-97876971D01*
X106119972Y-97904053D01*
X106082321Y-97924178D01*
X106041466Y-97936571D01*
X105996494Y-97941000D01*
X105087506Y-97941000D01*
X105042534Y-97936571D01*
X105001679Y-97924178D01*
X104964028Y-97904053D01*
X104931029Y-97876971D01*
X104903947Y-97843972D01*
X104883822Y-97806321D01*
X104871429Y-97765466D01*
X104867000Y-97720494D01*
X104867000Y-94811506D01*
X104871429Y-94766534D01*
X104883822Y-94725679D01*
X104903947Y-94688028D01*
X104931029Y-94655029D01*
X104964028Y-94627947D01*
X105001679Y-94607822D01*
X105042534Y-94595429D01*
X105087506Y-94591000D01*
X105996494Y-94591000D01*
X106041466Y-94595429D01*
G37*
G36*
X129663466Y-94595429D02*
G01*
X129704321Y-94607822D01*
X129741972Y-94627947D01*
X129774971Y-94655029D01*
X129802053Y-94688028D01*
X129822178Y-94725679D01*
X129834571Y-94766534D01*
X129839000Y-94811506D01*
X129839000Y-97720494D01*
X129834571Y-97765466D01*
X129822178Y-97806321D01*
X129802053Y-97843972D01*
X129774971Y-97876971D01*
X129741972Y-97904053D01*
X129704321Y-97924178D01*
X129663466Y-97936571D01*
X129618494Y-97941000D01*
X128709506Y-97941000D01*
X128664534Y-97936571D01*
X128623679Y-97924178D01*
X128586028Y-97904053D01*
X128553029Y-97876971D01*
X128525947Y-97843972D01*
X128505822Y-97806321D01*
X128493429Y-97765466D01*
X128489000Y-97720494D01*
X128489000Y-94811506D01*
X128493429Y-94766534D01*
X128505822Y-94725679D01*
X128525947Y-94688028D01*
X128553029Y-94655029D01*
X128586028Y-94627947D01*
X128623679Y-94607822D01*
X128664534Y-94595429D01*
X128709506Y-94591000D01*
X129618494Y-94591000D01*
X129663466Y-94595429D01*
G37*
G36*
X135463466Y-94595429D02*
G01*
X135504321Y-94607822D01*
X135541972Y-94627947D01*
X135574971Y-94655029D01*
X135602053Y-94688028D01*
X135622178Y-94725679D01*
X135634571Y-94766534D01*
X135639000Y-94811506D01*
X135639000Y-97720494D01*
X135634571Y-97765466D01*
X135622178Y-97806321D01*
X135602053Y-97843972D01*
X135574971Y-97876971D01*
X135541972Y-97904053D01*
X135504321Y-97924178D01*
X135463466Y-97936571D01*
X135418494Y-97941000D01*
X134509506Y-97941000D01*
X134464534Y-97936571D01*
X134423679Y-97924178D01*
X134386028Y-97904053D01*
X134353029Y-97876971D01*
X134325947Y-97843972D01*
X134305822Y-97806321D01*
X134293429Y-97765466D01*
X134289000Y-97720494D01*
X134289000Y-94811506D01*
X134293429Y-94766534D01*
X134305822Y-94725679D01*
X134325947Y-94688028D01*
X134353029Y-94655029D01*
X134386028Y-94627947D01*
X134423679Y-94607822D01*
X134464534Y-94595429D01*
X134509506Y-94591000D01*
X135418494Y-94591000D01*
X135463466Y-94595429D01*
G37*
G36*
X111841466Y-94595429D02*
G01*
X111882321Y-94607822D01*
X111919972Y-94627947D01*
X111952971Y-94655029D01*
X111980053Y-94688028D01*
X112000178Y-94725679D01*
X112012571Y-94766534D01*
X112017000Y-94811506D01*
X112017000Y-97720494D01*
X112012571Y-97765466D01*
X112000178Y-97806321D01*
X111980053Y-97843972D01*
X111952971Y-97876971D01*
X111919972Y-97904053D01*
X111882321Y-97924178D01*
X111841466Y-97936571D01*
X111796494Y-97941000D01*
X110887506Y-97941000D01*
X110842534Y-97936571D01*
X110801679Y-97924178D01*
X110764028Y-97904053D01*
X110731029Y-97876971D01*
X110703947Y-97843972D01*
X110683822Y-97806321D01*
X110671429Y-97765466D01*
X110667000Y-97720494D01*
X110667000Y-94811506D01*
X110671429Y-94766534D01*
X110683822Y-94725679D01*
X110703947Y-94688028D01*
X110731029Y-94655029D01*
X110764028Y-94627947D01*
X110801679Y-94607822D01*
X110842534Y-94595429D01*
X110887506Y-94591000D01*
X111796494Y-94591000D01*
X111841466Y-94595429D01*
G37*
G36*
X122313466Y-84435429D02*
G01*
X122354321Y-84447822D01*
X122391972Y-84467947D01*
X122424971Y-84495029D01*
X122452053Y-84528028D01*
X122472178Y-84565679D01*
X122484571Y-84606534D01*
X122489000Y-84651506D01*
X122489000Y-87560494D01*
X122484571Y-87605466D01*
X122472178Y-87646321D01*
X122452053Y-87683972D01*
X122424971Y-87716971D01*
X122391972Y-87744053D01*
X122354321Y-87764178D01*
X122313466Y-87776571D01*
X122268494Y-87781000D01*
X121359506Y-87781000D01*
X121314534Y-87776571D01*
X121273679Y-87764178D01*
X121236028Y-87744053D01*
X121203029Y-87716971D01*
X121175947Y-87683972D01*
X121155822Y-87646321D01*
X121143429Y-87605466D01*
X121139000Y-87560494D01*
X121139000Y-84651506D01*
X121143429Y-84606534D01*
X121155822Y-84565679D01*
X121175947Y-84528028D01*
X121203029Y-84495029D01*
X121236028Y-84467947D01*
X121273679Y-84447822D01*
X121314534Y-84435429D01*
X121359506Y-84431000D01*
X122268494Y-84431000D01*
X122313466Y-84435429D01*
G37*
G36*
X128113466Y-84435429D02*
G01*
X128154321Y-84447822D01*
X128191972Y-84467947D01*
X128224971Y-84495029D01*
X128252053Y-84528028D01*
X128272178Y-84565679D01*
X128284571Y-84606534D01*
X128289000Y-84651506D01*
X128289000Y-87560494D01*
X128284571Y-87605466D01*
X128272178Y-87646321D01*
X128252053Y-87683972D01*
X128224971Y-87716971D01*
X128191972Y-87744053D01*
X128154321Y-87764178D01*
X128113466Y-87776571D01*
X128068494Y-87781000D01*
X127159506Y-87781000D01*
X127114534Y-87776571D01*
X127073679Y-87764178D01*
X127036028Y-87744053D01*
X127003029Y-87716971D01*
X126975947Y-87683972D01*
X126955822Y-87646321D01*
X126943429Y-87605466D01*
X126939000Y-87560494D01*
X126939000Y-84651506D01*
X126943429Y-84606534D01*
X126955822Y-84565679D01*
X126975947Y-84528028D01*
X127003029Y-84495029D01*
X127036028Y-84467947D01*
X127073679Y-84447822D01*
X127114534Y-84435429D01*
X127159506Y-84431000D01*
X128068494Y-84431000D01*
X128113466Y-84435429D01*
G37*
G36*
X104491466Y-84435429D02*
G01*
X104532321Y-84447822D01*
X104569972Y-84467947D01*
X104602971Y-84495029D01*
X104630053Y-84528028D01*
X104650178Y-84565679D01*
X104662571Y-84606534D01*
X104667000Y-84651506D01*
X104667000Y-87560494D01*
X104662571Y-87605466D01*
X104650178Y-87646321D01*
X104630053Y-87683972D01*
X104602971Y-87716971D01*
X104569972Y-87744053D01*
X104532321Y-87764178D01*
X104491466Y-87776571D01*
X104446494Y-87781000D01*
X103537506Y-87781000D01*
X103492534Y-87776571D01*
X103451679Y-87764178D01*
X103414028Y-87744053D01*
X103381029Y-87716971D01*
X103353947Y-87683972D01*
X103333822Y-87646321D01*
X103321429Y-87605466D01*
X103317000Y-87560494D01*
X103317000Y-84651506D01*
X103321429Y-84606534D01*
X103333822Y-84565679D01*
X103353947Y-84528028D01*
X103381029Y-84495029D01*
X103414028Y-84467947D01*
X103451679Y-84447822D01*
X103492534Y-84435429D01*
X103537506Y-84431000D01*
X104446494Y-84431000D01*
X104491466Y-84435429D01*
G37*
G36*
X98691466Y-84435429D02*
G01*
X98732321Y-84447822D01*
X98769972Y-84467947D01*
X98802971Y-84495029D01*
X98830053Y-84528028D01*
X98850178Y-84565679D01*
X98862571Y-84606534D01*
X98867000Y-84651506D01*
X98867000Y-87560494D01*
X98862571Y-87605466D01*
X98850178Y-87646321D01*
X98830053Y-87683972D01*
X98802971Y-87716971D01*
X98769972Y-87744053D01*
X98732321Y-87764178D01*
X98691466Y-87776571D01*
X98646494Y-87781000D01*
X97737506Y-87781000D01*
X97692534Y-87776571D01*
X97651679Y-87764178D01*
X97614028Y-87744053D01*
X97581029Y-87716971D01*
X97553947Y-87683972D01*
X97533822Y-87646321D01*
X97521429Y-87605466D01*
X97517000Y-87560494D01*
X97517000Y-84651506D01*
X97521429Y-84606534D01*
X97533822Y-84565679D01*
X97553947Y-84528028D01*
X97581029Y-84495029D01*
X97614028Y-84467947D01*
X97651679Y-84447822D01*
X97692534Y-84435429D01*
X97737506Y-84431000D01*
X98646494Y-84431000D01*
X98691466Y-84435429D01*
G37*
G36*
X96749466Y-83001429D02*
G01*
X96790321Y-83013822D01*
X96827972Y-83033947D01*
X96860971Y-83061029D01*
X96888053Y-83094028D01*
X96908178Y-83131679D01*
X96920571Y-83172534D01*
X96925000Y-83217506D01*
X96925000Y-84126494D01*
X96920571Y-84171466D01*
X96908178Y-84212321D01*
X96888053Y-84249972D01*
X96860971Y-84282971D01*
X96827972Y-84310053D01*
X96790321Y-84330178D01*
X96749466Y-84342571D01*
X96704494Y-84347000D01*
X93795506Y-84347000D01*
X93750534Y-84342571D01*
X93709679Y-84330178D01*
X93672028Y-84310053D01*
X93639029Y-84282971D01*
X93611947Y-84249972D01*
X93591822Y-84212321D01*
X93579429Y-84171466D01*
X93575000Y-84126494D01*
X93575000Y-83217506D01*
X93579429Y-83172534D01*
X93591822Y-83131679D01*
X93611947Y-83094028D01*
X93639029Y-83061029D01*
X93672028Y-83033947D01*
X93709679Y-83013822D01*
X93750534Y-83001429D01*
X93795506Y-82997000D01*
X96704494Y-82997000D01*
X96749466Y-83001429D01*
G37*
G36*
X120371466Y-83001429D02*
G01*
X120412321Y-83013822D01*
X120449972Y-83033947D01*
X120482971Y-83061029D01*
X120510053Y-83094028D01*
X120530178Y-83131679D01*
X120542571Y-83172534D01*
X120547000Y-83217506D01*
X120547000Y-84126494D01*
X120542571Y-84171466D01*
X120530178Y-84212321D01*
X120510053Y-84249972D01*
X120482971Y-84282971D01*
X120449972Y-84310053D01*
X120412321Y-84330178D01*
X120371466Y-84342571D01*
X120326494Y-84347000D01*
X117417506Y-84347000D01*
X117372534Y-84342571D01*
X117331679Y-84330178D01*
X117294028Y-84310053D01*
X117261029Y-84282971D01*
X117233947Y-84249972D01*
X117213822Y-84212321D01*
X117201429Y-84171466D01*
X117197000Y-84126494D01*
X117197000Y-83217506D01*
X117201429Y-83172534D01*
X117213822Y-83131679D01*
X117233947Y-83094028D01*
X117261029Y-83061029D01*
X117294028Y-83033947D01*
X117331679Y-83013822D01*
X117372534Y-83001429D01*
X117417506Y-82997000D01*
X120326494Y-82997000D01*
X120371466Y-83001429D01*
G37*
G36*
X108433466Y-83001429D02*
G01*
X108474321Y-83013822D01*
X108511972Y-83033947D01*
X108544971Y-83061029D01*
X108572053Y-83094028D01*
X108592178Y-83131679D01*
X108604571Y-83172534D01*
X108609000Y-83217506D01*
X108609000Y-84126494D01*
X108604571Y-84171466D01*
X108592178Y-84212321D01*
X108572053Y-84249972D01*
X108544971Y-84282971D01*
X108511972Y-84310053D01*
X108474321Y-84330178D01*
X108433466Y-84342571D01*
X108388494Y-84347000D01*
X105479506Y-84347000D01*
X105434534Y-84342571D01*
X105393679Y-84330178D01*
X105356028Y-84310053D01*
X105323029Y-84282971D01*
X105295947Y-84249972D01*
X105275822Y-84212321D01*
X105263429Y-84171466D01*
X105259000Y-84126494D01*
X105259000Y-83217506D01*
X105263429Y-83172534D01*
X105275822Y-83131679D01*
X105295947Y-83094028D01*
X105323029Y-83061029D01*
X105356028Y-83033947D01*
X105393679Y-83013822D01*
X105434534Y-83001429D01*
X105479506Y-82997000D01*
X108388494Y-82997000D01*
X108433466Y-83001429D01*
G37*
G36*
X132055466Y-83001429D02*
G01*
X132096321Y-83013822D01*
X132133972Y-83033947D01*
X132166971Y-83061029D01*
X132194053Y-83094028D01*
X132214178Y-83131679D01*
X132226571Y-83172534D01*
X132231000Y-83217506D01*
X132231000Y-84126494D01*
X132226571Y-84171466D01*
X132214178Y-84212321D01*
X132194053Y-84249972D01*
X132166971Y-84282971D01*
X132133972Y-84310053D01*
X132096321Y-84330178D01*
X132055466Y-84342571D01*
X132010494Y-84347000D01*
X129101506Y-84347000D01*
X129056534Y-84342571D01*
X129015679Y-84330178D01*
X128978028Y-84310053D01*
X128945029Y-84282971D01*
X128917947Y-84249972D01*
X128897822Y-84212321D01*
X128885429Y-84171466D01*
X128881000Y-84126494D01*
X128881000Y-83217506D01*
X128885429Y-83172534D01*
X128897822Y-83131679D01*
X128917947Y-83094028D01*
X128945029Y-83061029D01*
X128978028Y-83033947D01*
X129015679Y-83013822D01*
X129056534Y-83001429D01*
X129101506Y-82997000D01*
X132010494Y-82997000D01*
X132055466Y-83001429D01*
G37*
G36*
X132055466Y-77201429D02*
G01*
X132096321Y-77213822D01*
X132133972Y-77233947D01*
X132166971Y-77261029D01*
X132194053Y-77294028D01*
X132214178Y-77331679D01*
X132226571Y-77372534D01*
X132231000Y-77417506D01*
X132231000Y-78326494D01*
X132226571Y-78371466D01*
X132214178Y-78412321D01*
X132194053Y-78449972D01*
X132166971Y-78482971D01*
X132133972Y-78510053D01*
X132096321Y-78530178D01*
X132055466Y-78542571D01*
X132010494Y-78547000D01*
X129101506Y-78547000D01*
X129056534Y-78542571D01*
X129015679Y-78530178D01*
X128978028Y-78510053D01*
X128945029Y-78482971D01*
X128917947Y-78449972D01*
X128897822Y-78412321D01*
X128885429Y-78371466D01*
X128881000Y-78326494D01*
X128881000Y-77417506D01*
X128885429Y-77372534D01*
X128897822Y-77331679D01*
X128917947Y-77294028D01*
X128945029Y-77261029D01*
X128978028Y-77233947D01*
X129015679Y-77213822D01*
X129056534Y-77201429D01*
X129101506Y-77197000D01*
X132010494Y-77197000D01*
X132055466Y-77201429D01*
G37*
G36*
X120371466Y-77201429D02*
G01*
X120412321Y-77213822D01*
X120449972Y-77233947D01*
X120482971Y-77261029D01*
X120510053Y-77294028D01*
X120530178Y-77331679D01*
X120542571Y-77372534D01*
X120547000Y-77417506D01*
X120547000Y-78326494D01*
X120542571Y-78371466D01*
X120530178Y-78412321D01*
X120510053Y-78449972D01*
X120482971Y-78482971D01*
X120449972Y-78510053D01*
X120412321Y-78530178D01*
X120371466Y-78542571D01*
X120326494Y-78547000D01*
X117417506Y-78547000D01*
X117372534Y-78542571D01*
X117331679Y-78530178D01*
X117294028Y-78510053D01*
X117261029Y-78482971D01*
X117233947Y-78449972D01*
X117213822Y-78412321D01*
X117201429Y-78371466D01*
X117197000Y-78326494D01*
X117197000Y-77417506D01*
X117201429Y-77372534D01*
X117213822Y-77331679D01*
X117233947Y-77294028D01*
X117261029Y-77261029D01*
X117294028Y-77233947D01*
X117331679Y-77213822D01*
X117372534Y-77201429D01*
X117417506Y-77197000D01*
X120326494Y-77197000D01*
X120371466Y-77201429D01*
G37*
G36*
X108433466Y-77201429D02*
G01*
X108474321Y-77213822D01*
X108511972Y-77233947D01*
X108544971Y-77261029D01*
X108572053Y-77294028D01*
X108592178Y-77331679D01*
X108604571Y-77372534D01*
X108609000Y-77417506D01*
X108609000Y-78326494D01*
X108604571Y-78371466D01*
X108592178Y-78412321D01*
X108572053Y-78449972D01*
X108544971Y-78482971D01*
X108511972Y-78510053D01*
X108474321Y-78530178D01*
X108433466Y-78542571D01*
X108388494Y-78547000D01*
X105479506Y-78547000D01*
X105434534Y-78542571D01*
X105393679Y-78530178D01*
X105356028Y-78510053D01*
X105323029Y-78482971D01*
X105295947Y-78449972D01*
X105275822Y-78412321D01*
X105263429Y-78371466D01*
X105259000Y-78326494D01*
X105259000Y-77417506D01*
X105263429Y-77372534D01*
X105275822Y-77331679D01*
X105295947Y-77294028D01*
X105323029Y-77261029D01*
X105356028Y-77233947D01*
X105393679Y-77213822D01*
X105434534Y-77201429D01*
X105479506Y-77197000D01*
X108388494Y-77197000D01*
X108433466Y-77201429D01*
G37*
G36*
X96749466Y-77201429D02*
G01*
X96790321Y-77213822D01*
X96827972Y-77233947D01*
X96860971Y-77261029D01*
X96888053Y-77294028D01*
X96908178Y-77331679D01*
X96920571Y-77372534D01*
X96925000Y-77417506D01*
X96925000Y-78326494D01*
X96920571Y-78371466D01*
X96908178Y-78412321D01*
X96888053Y-78449972D01*
X96860971Y-78482971D01*
X96827972Y-78510053D01*
X96790321Y-78530178D01*
X96749466Y-78542571D01*
X96704494Y-78547000D01*
X93795506Y-78547000D01*
X93750534Y-78542571D01*
X93709679Y-78530178D01*
X93672028Y-78510053D01*
X93639029Y-78482971D01*
X93611947Y-78449972D01*
X93591822Y-78412321D01*
X93579429Y-78371466D01*
X93575000Y-78326494D01*
X93575000Y-77417506D01*
X93579429Y-77372534D01*
X93591822Y-77331679D01*
X93611947Y-77294028D01*
X93639029Y-77261029D01*
X93672028Y-77233947D01*
X93709679Y-77213822D01*
X93750534Y-77201429D01*
X93795506Y-77197000D01*
X96704494Y-77197000D01*
X96749466Y-77201429D01*
G37*
G36*
X98691466Y-73767429D02*
G01*
X98732321Y-73779822D01*
X98769972Y-73799947D01*
X98802971Y-73827029D01*
X98830053Y-73860028D01*
X98850178Y-73897679D01*
X98862571Y-73938534D01*
X98867000Y-73983506D01*
X98867000Y-76892494D01*
X98862571Y-76937466D01*
X98850178Y-76978321D01*
X98830053Y-77015972D01*
X98802971Y-77048971D01*
X98769972Y-77076053D01*
X98732321Y-77096178D01*
X98691466Y-77108571D01*
X98646494Y-77113000D01*
X97737506Y-77113000D01*
X97692534Y-77108571D01*
X97651679Y-77096178D01*
X97614028Y-77076053D01*
X97581029Y-77048971D01*
X97553947Y-77015972D01*
X97533822Y-76978321D01*
X97521429Y-76937466D01*
X97517000Y-76892494D01*
X97517000Y-73983506D01*
X97521429Y-73938534D01*
X97533822Y-73897679D01*
X97553947Y-73860028D01*
X97581029Y-73827029D01*
X97614028Y-73799947D01*
X97651679Y-73779822D01*
X97692534Y-73767429D01*
X97737506Y-73763000D01*
X98646494Y-73763000D01*
X98691466Y-73767429D01*
G37*
G36*
X128113466Y-73767429D02*
G01*
X128154321Y-73779822D01*
X128191972Y-73799947D01*
X128224971Y-73827029D01*
X128252053Y-73860028D01*
X128272178Y-73897679D01*
X128284571Y-73938534D01*
X128289000Y-73983506D01*
X128289000Y-76892494D01*
X128284571Y-76937466D01*
X128272178Y-76978321D01*
X128252053Y-77015972D01*
X128224971Y-77048971D01*
X128191972Y-77076053D01*
X128154321Y-77096178D01*
X128113466Y-77108571D01*
X128068494Y-77113000D01*
X127159506Y-77113000D01*
X127114534Y-77108571D01*
X127073679Y-77096178D01*
X127036028Y-77076053D01*
X127003029Y-77048971D01*
X126975947Y-77015972D01*
X126955822Y-76978321D01*
X126943429Y-76937466D01*
X126939000Y-76892494D01*
X126939000Y-73983506D01*
X126943429Y-73938534D01*
X126955822Y-73897679D01*
X126975947Y-73860028D01*
X127003029Y-73827029D01*
X127036028Y-73799947D01*
X127073679Y-73779822D01*
X127114534Y-73767429D01*
X127159506Y-73763000D01*
X128068494Y-73763000D01*
X128113466Y-73767429D01*
G37*
G36*
X122313466Y-73767429D02*
G01*
X122354321Y-73779822D01*
X122391972Y-73799947D01*
X122424971Y-73827029D01*
X122452053Y-73860028D01*
X122472178Y-73897679D01*
X122484571Y-73938534D01*
X122489000Y-73983506D01*
X122489000Y-76892494D01*
X122484571Y-76937466D01*
X122472178Y-76978321D01*
X122452053Y-77015972D01*
X122424971Y-77048971D01*
X122391972Y-77076053D01*
X122354321Y-77096178D01*
X122313466Y-77108571D01*
X122268494Y-77113000D01*
X121359506Y-77113000D01*
X121314534Y-77108571D01*
X121273679Y-77096178D01*
X121236028Y-77076053D01*
X121203029Y-77048971D01*
X121175947Y-77015972D01*
X121155822Y-76978321D01*
X121143429Y-76937466D01*
X121139000Y-76892494D01*
X121139000Y-73983506D01*
X121143429Y-73938534D01*
X121155822Y-73897679D01*
X121175947Y-73860028D01*
X121203029Y-73827029D01*
X121236028Y-73799947D01*
X121273679Y-73779822D01*
X121314534Y-73767429D01*
X121359506Y-73763000D01*
X122268494Y-73763000D01*
X122313466Y-73767429D01*
G37*
G36*
X104491466Y-73767429D02*
G01*
X104532321Y-73779822D01*
X104569972Y-73799947D01*
X104602971Y-73827029D01*
X104630053Y-73860028D01*
X104650178Y-73897679D01*
X104662571Y-73938534D01*
X104667000Y-73983506D01*
X104667000Y-76892494D01*
X104662571Y-76937466D01*
X104650178Y-76978321D01*
X104630053Y-77015972D01*
X104602971Y-77048971D01*
X104569972Y-77076053D01*
X104532321Y-77096178D01*
X104491466Y-77108571D01*
X104446494Y-77113000D01*
X103537506Y-77113000D01*
X103492534Y-77108571D01*
X103451679Y-77096178D01*
X103414028Y-77076053D01*
X103381029Y-77048971D01*
X103353947Y-77015972D01*
X103333822Y-76978321D01*
X103321429Y-76937466D01*
X103317000Y-76892494D01*
X103317000Y-73983506D01*
X103321429Y-73938534D01*
X103333822Y-73897679D01*
X103353947Y-73860028D01*
X103381029Y-73827029D01*
X103414028Y-73799947D01*
X103451679Y-73779822D01*
X103492534Y-73767429D01*
X103537506Y-73763000D01*
X104446494Y-73763000D01*
X104491466Y-73767429D01*
G37*
G36*
X96749466Y-72333429D02*
G01*
X96790321Y-72345822D01*
X96827972Y-72365947D01*
X96860971Y-72393029D01*
X96888053Y-72426028D01*
X96908178Y-72463679D01*
X96920571Y-72504534D01*
X96925000Y-72549506D01*
X96925000Y-73458494D01*
X96920571Y-73503466D01*
X96908178Y-73544321D01*
X96888053Y-73581972D01*
X96860971Y-73614971D01*
X96827972Y-73642053D01*
X96790321Y-73662178D01*
X96749466Y-73674571D01*
X96704494Y-73679000D01*
X93795506Y-73679000D01*
X93750534Y-73674571D01*
X93709679Y-73662178D01*
X93672028Y-73642053D01*
X93639029Y-73614971D01*
X93611947Y-73581972D01*
X93591822Y-73544321D01*
X93579429Y-73503466D01*
X93575000Y-73458494D01*
X93575000Y-72549506D01*
X93579429Y-72504534D01*
X93591822Y-72463679D01*
X93611947Y-72426028D01*
X93639029Y-72393029D01*
X93672028Y-72365947D01*
X93709679Y-72345822D01*
X93750534Y-72333429D01*
X93795506Y-72329000D01*
X96704494Y-72329000D01*
X96749466Y-72333429D01*
G37*
G36*
X108433466Y-72333429D02*
G01*
X108474321Y-72345822D01*
X108511972Y-72365947D01*
X108544971Y-72393029D01*
X108572053Y-72426028D01*
X108592178Y-72463679D01*
X108604571Y-72504534D01*
X108609000Y-72549506D01*
X108609000Y-73458494D01*
X108604571Y-73503466D01*
X108592178Y-73544321D01*
X108572053Y-73581972D01*
X108544971Y-73614971D01*
X108511972Y-73642053D01*
X108474321Y-73662178D01*
X108433466Y-73674571D01*
X108388494Y-73679000D01*
X105479506Y-73679000D01*
X105434534Y-73674571D01*
X105393679Y-73662178D01*
X105356028Y-73642053D01*
X105323029Y-73614971D01*
X105295947Y-73581972D01*
X105275822Y-73544321D01*
X105263429Y-73503466D01*
X105259000Y-73458494D01*
X105259000Y-72549506D01*
X105263429Y-72504534D01*
X105275822Y-72463679D01*
X105295947Y-72426028D01*
X105323029Y-72393029D01*
X105356028Y-72365947D01*
X105393679Y-72345822D01*
X105434534Y-72333429D01*
X105479506Y-72329000D01*
X108388494Y-72329000D01*
X108433466Y-72333429D01*
G37*
G36*
X120371466Y-72333429D02*
G01*
X120412321Y-72345822D01*
X120449972Y-72365947D01*
X120482971Y-72393029D01*
X120510053Y-72426028D01*
X120530178Y-72463679D01*
X120542571Y-72504534D01*
X120547000Y-72549506D01*
X120547000Y-73458494D01*
X120542571Y-73503466D01*
X120530178Y-73544321D01*
X120510053Y-73581972D01*
X120482971Y-73614971D01*
X120449972Y-73642053D01*
X120412321Y-73662178D01*
X120371466Y-73674571D01*
X120326494Y-73679000D01*
X117417506Y-73679000D01*
X117372534Y-73674571D01*
X117331679Y-73662178D01*
X117294028Y-73642053D01*
X117261029Y-73614971D01*
X117233947Y-73581972D01*
X117213822Y-73544321D01*
X117201429Y-73503466D01*
X117197000Y-73458494D01*
X117197000Y-72549506D01*
X117201429Y-72504534D01*
X117213822Y-72463679D01*
X117233947Y-72426028D01*
X117261029Y-72393029D01*
X117294028Y-72365947D01*
X117331679Y-72345822D01*
X117372534Y-72333429D01*
X117417506Y-72329000D01*
X120326494Y-72329000D01*
X120371466Y-72333429D01*
G37*
G36*
X132055466Y-72333429D02*
G01*
X132096321Y-72345822D01*
X132133972Y-72365947D01*
X132166971Y-72393029D01*
X132194053Y-72426028D01*
X132214178Y-72463679D01*
X132226571Y-72504534D01*
X132231000Y-72549506D01*
X132231000Y-73458494D01*
X132226571Y-73503466D01*
X132214178Y-73544321D01*
X132194053Y-73581972D01*
X132166971Y-73614971D01*
X132133972Y-73642053D01*
X132096321Y-73662178D01*
X132055466Y-73674571D01*
X132010494Y-73679000D01*
X129101506Y-73679000D01*
X129056534Y-73674571D01*
X129015679Y-73662178D01*
X128978028Y-73642053D01*
X128945029Y-73614971D01*
X128917947Y-73581972D01*
X128897822Y-73544321D01*
X128885429Y-73503466D01*
X128881000Y-73458494D01*
X128881000Y-72549506D01*
X128885429Y-72504534D01*
X128897822Y-72463679D01*
X128917947Y-72426028D01*
X128945029Y-72393029D01*
X128978028Y-72365947D01*
X129015679Y-72345822D01*
X129056534Y-72333429D01*
X129101506Y-72329000D01*
X132010494Y-72329000D01*
X132055466Y-72333429D01*
G37*
G36*
X108433466Y-66533429D02*
G01*
X108474321Y-66545822D01*
X108511972Y-66565947D01*
X108544971Y-66593029D01*
X108572053Y-66626028D01*
X108592178Y-66663679D01*
X108604571Y-66704534D01*
X108609000Y-66749506D01*
X108609000Y-67658494D01*
X108604571Y-67703466D01*
X108592178Y-67744321D01*
X108572053Y-67781972D01*
X108544971Y-67814971D01*
X108511972Y-67842053D01*
X108474321Y-67862178D01*
X108433466Y-67874571D01*
X108388494Y-67879000D01*
X105479506Y-67879000D01*
X105434534Y-67874571D01*
X105393679Y-67862178D01*
X105356028Y-67842053D01*
X105323029Y-67814971D01*
X105295947Y-67781972D01*
X105275822Y-67744321D01*
X105263429Y-67703466D01*
X105259000Y-67658494D01*
X105259000Y-66749506D01*
X105263429Y-66704534D01*
X105275822Y-66663679D01*
X105295947Y-66626028D01*
X105323029Y-66593029D01*
X105356028Y-66565947D01*
X105393679Y-66545822D01*
X105434534Y-66533429D01*
X105479506Y-66529000D01*
X108388494Y-66529000D01*
X108433466Y-66533429D01*
G37*
G36*
X96749466Y-66533429D02*
G01*
X96790321Y-66545822D01*
X96827972Y-66565947D01*
X96860971Y-66593029D01*
X96888053Y-66626028D01*
X96908178Y-66663679D01*
X96920571Y-66704534D01*
X96925000Y-66749506D01*
X96925000Y-67658494D01*
X96920571Y-67703466D01*
X96908178Y-67744321D01*
X96888053Y-67781972D01*
X96860971Y-67814971D01*
X96827972Y-67842053D01*
X96790321Y-67862178D01*
X96749466Y-67874571D01*
X96704494Y-67879000D01*
X93795506Y-67879000D01*
X93750534Y-67874571D01*
X93709679Y-67862178D01*
X93672028Y-67842053D01*
X93639029Y-67814971D01*
X93611947Y-67781972D01*
X93591822Y-67744321D01*
X93579429Y-67703466D01*
X93575000Y-67658494D01*
X93575000Y-66749506D01*
X93579429Y-66704534D01*
X93591822Y-66663679D01*
X93611947Y-66626028D01*
X93639029Y-66593029D01*
X93672028Y-66565947D01*
X93709679Y-66545822D01*
X93750534Y-66533429D01*
X93795506Y-66529000D01*
X96704494Y-66529000D01*
X96749466Y-66533429D01*
G37*
G36*
X120371466Y-66533429D02*
G01*
X120412321Y-66545822D01*
X120449972Y-66565947D01*
X120482971Y-66593029D01*
X120510053Y-66626028D01*
X120530178Y-66663679D01*
X120542571Y-66704534D01*
X120547000Y-66749506D01*
X120547000Y-67658494D01*
X120542571Y-67703466D01*
X120530178Y-67744321D01*
X120510053Y-67781972D01*
X120482971Y-67814971D01*
X120449972Y-67842053D01*
X120412321Y-67862178D01*
X120371466Y-67874571D01*
X120326494Y-67879000D01*
X117417506Y-67879000D01*
X117372534Y-67874571D01*
X117331679Y-67862178D01*
X117294028Y-67842053D01*
X117261029Y-67814971D01*
X117233947Y-67781972D01*
X117213822Y-67744321D01*
X117201429Y-67703466D01*
X117197000Y-67658494D01*
X117197000Y-66749506D01*
X117201429Y-66704534D01*
X117213822Y-66663679D01*
X117233947Y-66626028D01*
X117261029Y-66593029D01*
X117294028Y-66565947D01*
X117331679Y-66545822D01*
X117372534Y-66533429D01*
X117417506Y-66529000D01*
X120326494Y-66529000D01*
X120371466Y-66533429D01*
G37*
G36*
X132055466Y-66533429D02*
G01*
X132096321Y-66545822D01*
X132133972Y-66565947D01*
X132166971Y-66593029D01*
X132194053Y-66626028D01*
X132214178Y-66663679D01*
X132226571Y-66704534D01*
X132231000Y-66749506D01*
X132231000Y-67658494D01*
X132226571Y-67703466D01*
X132214178Y-67744321D01*
X132194053Y-67781972D01*
X132166971Y-67814971D01*
X132133972Y-67842053D01*
X132096321Y-67862178D01*
X132055466Y-67874571D01*
X132010494Y-67879000D01*
X129101506Y-67879000D01*
X129056534Y-67874571D01*
X129015679Y-67862178D01*
X128978028Y-67842053D01*
X128945029Y-67814971D01*
X128917947Y-67781972D01*
X128897822Y-67744321D01*
X128885429Y-67703466D01*
X128881000Y-67658494D01*
X128881000Y-66749506D01*
X128885429Y-66704534D01*
X128897822Y-66663679D01*
X128917947Y-66626028D01*
X128945029Y-66593029D01*
X128978028Y-66565947D01*
X129015679Y-66545822D01*
X129056534Y-66533429D01*
X129101506Y-66529000D01*
X132010494Y-66529000D01*
X132055466Y-66533429D01*
G37*
G36*
X122313466Y-63099429D02*
G01*
X122354321Y-63111822D01*
X122391972Y-63131947D01*
X122424971Y-63159029D01*
X122452053Y-63192028D01*
X122472178Y-63229679D01*
X122484571Y-63270534D01*
X122489000Y-63315506D01*
X122489000Y-66224494D01*
X122484571Y-66269466D01*
X122472178Y-66310321D01*
X122452053Y-66347972D01*
X122424971Y-66380971D01*
X122391972Y-66408053D01*
X122354321Y-66428178D01*
X122313466Y-66440571D01*
X122268494Y-66445000D01*
X121359506Y-66445000D01*
X121314534Y-66440571D01*
X121273679Y-66428178D01*
X121236028Y-66408053D01*
X121203029Y-66380971D01*
X121175947Y-66347972D01*
X121155822Y-66310321D01*
X121143429Y-66269466D01*
X121139000Y-66224494D01*
X121139000Y-63315506D01*
X121143429Y-63270534D01*
X121155822Y-63229679D01*
X121175947Y-63192028D01*
X121203029Y-63159029D01*
X121236028Y-63131947D01*
X121273679Y-63111822D01*
X121314534Y-63099429D01*
X121359506Y-63095000D01*
X122268494Y-63095000D01*
X122313466Y-63099429D01*
G37*
G36*
X128113466Y-63099429D02*
G01*
X128154321Y-63111822D01*
X128191972Y-63131947D01*
X128224971Y-63159029D01*
X128252053Y-63192028D01*
X128272178Y-63229679D01*
X128284571Y-63270534D01*
X128289000Y-63315506D01*
X128289000Y-66224494D01*
X128284571Y-66269466D01*
X128272178Y-66310321D01*
X128252053Y-66347972D01*
X128224971Y-66380971D01*
X128191972Y-66408053D01*
X128154321Y-66428178D01*
X128113466Y-66440571D01*
X128068494Y-66445000D01*
X127159506Y-66445000D01*
X127114534Y-66440571D01*
X127073679Y-66428178D01*
X127036028Y-66408053D01*
X127003029Y-66380971D01*
X126975947Y-66347972D01*
X126955822Y-66310321D01*
X126943429Y-66269466D01*
X126939000Y-66224494D01*
X126939000Y-63315506D01*
X126943429Y-63270534D01*
X126955822Y-63229679D01*
X126975947Y-63192028D01*
X127003029Y-63159029D01*
X127036028Y-63131947D01*
X127073679Y-63111822D01*
X127114534Y-63099429D01*
X127159506Y-63095000D01*
X128068494Y-63095000D01*
X128113466Y-63099429D01*
G37*
G36*
X98691466Y-63099429D02*
G01*
X98732321Y-63111822D01*
X98769972Y-63131947D01*
X98802971Y-63159029D01*
X98830053Y-63192028D01*
X98850178Y-63229679D01*
X98862571Y-63270534D01*
X98867000Y-63315506D01*
X98867000Y-66224494D01*
X98862571Y-66269466D01*
X98850178Y-66310321D01*
X98830053Y-66347972D01*
X98802971Y-66380971D01*
X98769972Y-66408053D01*
X98732321Y-66428178D01*
X98691466Y-66440571D01*
X98646494Y-66445000D01*
X97737506Y-66445000D01*
X97692534Y-66440571D01*
X97651679Y-66428178D01*
X97614028Y-66408053D01*
X97581029Y-66380971D01*
X97553947Y-66347972D01*
X97533822Y-66310321D01*
X97521429Y-66269466D01*
X97517000Y-66224494D01*
X97517000Y-63315506D01*
X97521429Y-63270534D01*
X97533822Y-63229679D01*
X97553947Y-63192028D01*
X97581029Y-63159029D01*
X97614028Y-63131947D01*
X97651679Y-63111822D01*
X97692534Y-63099429D01*
X97737506Y-63095000D01*
X98646494Y-63095000D01*
X98691466Y-63099429D01*
G37*
G36*
X104491466Y-63099429D02*
G01*
X104532321Y-63111822D01*
X104569972Y-63131947D01*
X104602971Y-63159029D01*
X104630053Y-63192028D01*
X104650178Y-63229679D01*
X104662571Y-63270534D01*
X104667000Y-63315506D01*
X104667000Y-66224494D01*
X104662571Y-66269466D01*
X104650178Y-66310321D01*
X104630053Y-66347972D01*
X104602971Y-66380971D01*
X104569972Y-66408053D01*
X104532321Y-66428178D01*
X104491466Y-66440571D01*
X104446494Y-66445000D01*
X103537506Y-66445000D01*
X103492534Y-66440571D01*
X103451679Y-66428178D01*
X103414028Y-66408053D01*
X103381029Y-66380971D01*
X103353947Y-66347972D01*
X103333822Y-66310321D01*
X103321429Y-66269466D01*
X103317000Y-66224494D01*
X103317000Y-63315506D01*
X103321429Y-63270534D01*
X103333822Y-63229679D01*
X103353947Y-63192028D01*
X103381029Y-63159029D01*
X103414028Y-63131947D01*
X103451679Y-63111822D01*
X103492534Y-63099429D01*
X103537506Y-63095000D01*
X104446494Y-63095000D01*
X104491466Y-63099429D01*
G37*
M02*
