G04 #@! TF.GenerationSoftware,KiCad,Pcbnew,(5.1.5)-3*
G04 #@! TF.CreationDate,2021-04-29T22:27:45+02:00*
G04 #@! TF.ProjectId,thermocjromic clock resistors panel,74686572-6d6f-4636-9a72-6f6d69632063,1*
G04 #@! TF.SameCoordinates,Original*
G04 #@! TF.FileFunction,Legend,Top*
G04 #@! TF.FilePolarity,Positive*
%FSLAX46Y46*%
G04 Gerber Fmt 4.6, Leading zero omitted, Abs format (unit mm)*
G04 Created by KiCad (PCBNEW (5.1.5)-3) date 2021-04-29 22:27:45*
%MOMM*%
%LPD*%
G04 APERTURE LIST*
%ADD10C,0.120000*%
%ADD11C,0.150000*%
G04 APERTURE END LIST*
D10*
X139192000Y-126730000D02*
X139192000Y-128000000D01*
X137922000Y-126730000D02*
X139192000Y-126730000D01*
X101982000Y-129042929D02*
X101982000Y-129497071D01*
X102742000Y-129042929D02*
X102742000Y-129497071D01*
X101982000Y-131582929D02*
X101982000Y-131980000D01*
X102742000Y-131582929D02*
X102742000Y-131980000D01*
X101982000Y-140640000D02*
X101982000Y-134640000D01*
X102742000Y-140640000D02*
X101982000Y-140640000D01*
X102742000Y-134640000D02*
X102742000Y-140640000D01*
X103632000Y-131980000D02*
X103632000Y-134640000D01*
X104522000Y-129042929D02*
X104522000Y-129497071D01*
X105282000Y-129042929D02*
X105282000Y-129497071D01*
X104522000Y-131582929D02*
X104522000Y-131980000D01*
X105282000Y-131582929D02*
X105282000Y-131980000D01*
X104522000Y-140640000D02*
X104522000Y-134640000D01*
X105282000Y-140640000D02*
X104522000Y-140640000D01*
X105282000Y-134640000D02*
X105282000Y-140640000D01*
X106172000Y-131980000D02*
X106172000Y-134640000D01*
X107062000Y-129042929D02*
X107062000Y-129497071D01*
X107822000Y-129042929D02*
X107822000Y-129497071D01*
X107062000Y-131582929D02*
X107062000Y-131980000D01*
X107822000Y-131582929D02*
X107822000Y-131980000D01*
X107062000Y-140640000D02*
X107062000Y-134640000D01*
X107822000Y-140640000D02*
X107062000Y-140640000D01*
X107822000Y-134640000D02*
X107822000Y-140640000D01*
X108712000Y-131980000D02*
X108712000Y-134640000D01*
X109602000Y-129042929D02*
X109602000Y-129497071D01*
X110362000Y-129042929D02*
X110362000Y-129497071D01*
X109602000Y-131582929D02*
X109602000Y-131980000D01*
X110362000Y-131582929D02*
X110362000Y-131980000D01*
X109602000Y-140640000D02*
X109602000Y-134640000D01*
X110362000Y-140640000D02*
X109602000Y-140640000D01*
X110362000Y-134640000D02*
X110362000Y-140640000D01*
X111252000Y-131980000D02*
X111252000Y-134640000D01*
X112142000Y-129042929D02*
X112142000Y-129497071D01*
X112902000Y-129042929D02*
X112902000Y-129497071D01*
X112142000Y-131582929D02*
X112142000Y-131980000D01*
X112902000Y-131582929D02*
X112902000Y-131980000D01*
X112142000Y-140640000D02*
X112142000Y-134640000D01*
X112902000Y-140640000D02*
X112142000Y-140640000D01*
X112902000Y-134640000D02*
X112902000Y-140640000D01*
X113792000Y-131980000D02*
X113792000Y-134640000D01*
X114682000Y-129042929D02*
X114682000Y-129497071D01*
X115442000Y-129042929D02*
X115442000Y-129497071D01*
X114682000Y-131582929D02*
X114682000Y-131980000D01*
X115442000Y-131582929D02*
X115442000Y-131980000D01*
X114682000Y-140640000D02*
X114682000Y-134640000D01*
X115442000Y-140640000D02*
X114682000Y-140640000D01*
X115442000Y-134640000D02*
X115442000Y-140640000D01*
X116332000Y-131980000D02*
X116332000Y-134640000D01*
X117222000Y-129042929D02*
X117222000Y-129497071D01*
X117982000Y-129042929D02*
X117982000Y-129497071D01*
X117222000Y-131582929D02*
X117222000Y-131980000D01*
X117982000Y-131582929D02*
X117982000Y-131980000D01*
X117222000Y-140640000D02*
X117222000Y-134640000D01*
X117982000Y-140640000D02*
X117222000Y-140640000D01*
X117982000Y-134640000D02*
X117982000Y-140640000D01*
X118872000Y-131980000D02*
X118872000Y-134640000D01*
X119762000Y-129042929D02*
X119762000Y-129497071D01*
X120522000Y-129042929D02*
X120522000Y-129497071D01*
X119762000Y-131582929D02*
X119762000Y-131980000D01*
X120522000Y-131582929D02*
X120522000Y-131980000D01*
X119762000Y-140640000D02*
X119762000Y-134640000D01*
X120522000Y-140640000D02*
X119762000Y-140640000D01*
X120522000Y-134640000D02*
X120522000Y-140640000D01*
X121412000Y-131980000D02*
X121412000Y-134640000D01*
X122302000Y-129042929D02*
X122302000Y-129497071D01*
X123062000Y-129042929D02*
X123062000Y-129497071D01*
X122302000Y-131582929D02*
X122302000Y-131980000D01*
X123062000Y-131582929D02*
X123062000Y-131980000D01*
X122302000Y-140640000D02*
X122302000Y-134640000D01*
X123062000Y-140640000D02*
X122302000Y-140640000D01*
X123062000Y-134640000D02*
X123062000Y-140640000D01*
X123952000Y-131980000D02*
X123952000Y-134640000D01*
X124842000Y-129042929D02*
X124842000Y-129497071D01*
X125602000Y-129042929D02*
X125602000Y-129497071D01*
X124842000Y-131582929D02*
X124842000Y-131980000D01*
X125602000Y-131582929D02*
X125602000Y-131980000D01*
X124842000Y-140640000D02*
X124842000Y-134640000D01*
X125602000Y-140640000D02*
X124842000Y-140640000D01*
X125602000Y-134640000D02*
X125602000Y-140640000D01*
X126492000Y-131980000D02*
X126492000Y-134640000D01*
X127382000Y-129042929D02*
X127382000Y-129497071D01*
X128142000Y-129042929D02*
X128142000Y-129497071D01*
X127382000Y-131582929D02*
X127382000Y-131980000D01*
X128142000Y-131582929D02*
X128142000Y-131980000D01*
X127382000Y-140640000D02*
X127382000Y-134640000D01*
X128142000Y-140640000D02*
X127382000Y-140640000D01*
X128142000Y-134640000D02*
X128142000Y-140640000D01*
X129032000Y-131980000D02*
X129032000Y-134640000D01*
X129922000Y-129042929D02*
X129922000Y-129497071D01*
X130682000Y-129042929D02*
X130682000Y-129497071D01*
X129922000Y-131582929D02*
X129922000Y-131980000D01*
X130682000Y-131582929D02*
X130682000Y-131980000D01*
X129922000Y-140640000D02*
X129922000Y-134640000D01*
X130682000Y-140640000D02*
X129922000Y-140640000D01*
X130682000Y-134640000D02*
X130682000Y-140640000D01*
X131572000Y-131980000D02*
X131572000Y-134640000D01*
X132462000Y-129042929D02*
X132462000Y-129497071D01*
X133222000Y-129042929D02*
X133222000Y-129497071D01*
X132462000Y-131582929D02*
X132462000Y-131980000D01*
X133222000Y-131582929D02*
X133222000Y-131980000D01*
X132462000Y-140640000D02*
X132462000Y-134640000D01*
X133222000Y-140640000D02*
X132462000Y-140640000D01*
X133222000Y-134640000D02*
X133222000Y-140640000D01*
X134112000Y-131980000D02*
X134112000Y-134640000D01*
X135002000Y-129042929D02*
X135002000Y-129497071D01*
X135762000Y-129042929D02*
X135762000Y-129497071D01*
X135002000Y-131582929D02*
X135002000Y-131980000D01*
X135762000Y-131582929D02*
X135762000Y-131980000D01*
X135002000Y-140640000D02*
X135002000Y-134640000D01*
X135762000Y-140640000D02*
X135002000Y-140640000D01*
X135762000Y-134640000D02*
X135762000Y-140640000D01*
X136652000Y-131980000D02*
X136652000Y-134640000D01*
X137542000Y-129110000D02*
X137542000Y-129497071D01*
X138302000Y-129110000D02*
X138302000Y-129497071D01*
X137542000Y-131582929D02*
X137542000Y-131980000D01*
X138302000Y-131582929D02*
X138302000Y-131980000D01*
X137642000Y-134640000D02*
X137642000Y-140640000D01*
X137762000Y-134640000D02*
X137762000Y-140640000D01*
X137882000Y-134640000D02*
X137882000Y-140640000D01*
X138002000Y-134640000D02*
X138002000Y-140640000D01*
X138122000Y-134640000D02*
X138122000Y-140640000D01*
X138242000Y-134640000D02*
X138242000Y-140640000D01*
X137542000Y-140640000D02*
X137542000Y-134640000D01*
X138302000Y-140640000D02*
X137542000Y-140640000D01*
X138302000Y-134640000D02*
X138302000Y-140640000D01*
X139252000Y-134640000D02*
X139252000Y-131980000D01*
X101032000Y-134640000D02*
X139252000Y-134640000D01*
X101032000Y-131980000D02*
X101032000Y-134640000D01*
X139252000Y-131980000D02*
X101032000Y-131980000D01*
X136196000Y-110215936D02*
X136196000Y-114320064D01*
X139616000Y-110215936D02*
X139616000Y-114320064D01*
X136196000Y-99547936D02*
X136196000Y-103652064D01*
X139616000Y-99547936D02*
X139616000Y-103652064D01*
X134116064Y-115892000D02*
X130011936Y-115892000D01*
X134116064Y-119312000D02*
X130011936Y-119312000D01*
X134116064Y-105224000D02*
X130011936Y-105224000D01*
X134116064Y-108644000D02*
X130011936Y-108644000D01*
X134116064Y-94556000D02*
X130011936Y-94556000D01*
X134116064Y-97976000D02*
X130011936Y-97976000D01*
X124512000Y-110215936D02*
X124512000Y-114320064D01*
X127932000Y-110215936D02*
X127932000Y-114320064D01*
X124512000Y-99547936D02*
X124512000Y-103652064D01*
X127932000Y-99547936D02*
X127932000Y-103652064D01*
X112574000Y-110215936D02*
X112574000Y-114320064D01*
X115994000Y-110215936D02*
X115994000Y-114320064D01*
X112574000Y-99547936D02*
X112574000Y-103652064D01*
X115994000Y-99547936D02*
X115994000Y-103652064D01*
X110494064Y-115892000D02*
X106389936Y-115892000D01*
X110494064Y-119312000D02*
X106389936Y-119312000D01*
X110494064Y-105224000D02*
X106389936Y-105224000D01*
X110494064Y-108644000D02*
X106389936Y-108644000D01*
X110494064Y-94556000D02*
X106389936Y-94556000D01*
X110494064Y-97976000D02*
X106389936Y-97976000D01*
X100890000Y-110215936D02*
X100890000Y-114320064D01*
X104310000Y-110215936D02*
X104310000Y-114320064D01*
X100890000Y-99547936D02*
X100890000Y-103652064D01*
X104310000Y-99547936D02*
X104310000Y-103652064D01*
X128846000Y-78719936D02*
X128846000Y-82824064D01*
X132266000Y-78719936D02*
X132266000Y-82824064D01*
X128846000Y-68051936D02*
X128846000Y-72156064D01*
X132266000Y-68051936D02*
X132266000Y-72156064D01*
X126766064Y-84396000D02*
X122661936Y-84396000D01*
X126766064Y-87816000D02*
X122661936Y-87816000D01*
X126766064Y-73728000D02*
X122661936Y-73728000D01*
X126766064Y-77148000D02*
X122661936Y-77148000D01*
X122661936Y-66480000D02*
X126766064Y-66480000D01*
X122661936Y-63060000D02*
X126766064Y-63060000D01*
X117162000Y-78719936D02*
X117162000Y-82824064D01*
X120582000Y-78719936D02*
X120582000Y-82824064D01*
X117162000Y-68051936D02*
X117162000Y-72156064D01*
X120582000Y-68051936D02*
X120582000Y-72156064D01*
X105224000Y-78719936D02*
X105224000Y-82824064D01*
X108644000Y-78719936D02*
X108644000Y-82824064D01*
X105224000Y-68051936D02*
X105224000Y-72156064D01*
X108644000Y-68051936D02*
X108644000Y-72156064D01*
X103144064Y-84396000D02*
X99039936Y-84396000D01*
X103144064Y-87816000D02*
X99039936Y-87816000D01*
X103144064Y-73728000D02*
X99039936Y-73728000D01*
X103144064Y-77148000D02*
X99039936Y-77148000D01*
X103144064Y-63060000D02*
X99039936Y-63060000D01*
X103144064Y-66480000D02*
X99039936Y-66480000D01*
X93540000Y-78719936D02*
X93540000Y-82824064D01*
X96960000Y-78719936D02*
X96960000Y-82824064D01*
X93540000Y-68051936D02*
X93540000Y-72156064D01*
X96960000Y-68051936D02*
X96960000Y-72156064D01*
D11*
X139644380Y-133988333D02*
X140358666Y-133988333D01*
X140501523Y-134035952D01*
X140596761Y-134131190D01*
X140644380Y-134274047D01*
X140644380Y-134369285D01*
X140644380Y-132988333D02*
X140644380Y-133559761D01*
X140644380Y-133274047D02*
X139644380Y-133274047D01*
X139787238Y-133369285D01*
X139882476Y-133464523D01*
X139930095Y-133559761D01*
X140978380Y-112910857D02*
X140502190Y-113244190D01*
X140978380Y-113482285D02*
X139978380Y-113482285D01*
X139978380Y-113101333D01*
X140026000Y-113006095D01*
X140073619Y-112958476D01*
X140168857Y-112910857D01*
X140311714Y-112910857D01*
X140406952Y-112958476D01*
X140454571Y-113006095D01*
X140502190Y-113101333D01*
X140502190Y-113482285D01*
X139978380Y-112577523D02*
X139978380Y-111958476D01*
X140359333Y-112291809D01*
X140359333Y-112148952D01*
X140406952Y-112053714D01*
X140454571Y-112006095D01*
X140549809Y-111958476D01*
X140787904Y-111958476D01*
X140883142Y-112006095D01*
X140930761Y-112053714D01*
X140978380Y-112148952D01*
X140978380Y-112434666D01*
X140930761Y-112529904D01*
X140883142Y-112577523D01*
X140978380Y-111006095D02*
X140978380Y-111577523D01*
X140978380Y-111291809D02*
X139978380Y-111291809D01*
X140121238Y-111387047D01*
X140216476Y-111482285D01*
X140264095Y-111577523D01*
X140978380Y-102242857D02*
X140502190Y-102576190D01*
X140978380Y-102814285D02*
X139978380Y-102814285D01*
X139978380Y-102433333D01*
X140026000Y-102338095D01*
X140073619Y-102290476D01*
X140168857Y-102242857D01*
X140311714Y-102242857D01*
X140406952Y-102290476D01*
X140454571Y-102338095D01*
X140502190Y-102433333D01*
X140502190Y-102814285D01*
X139978380Y-101909523D02*
X139978380Y-101290476D01*
X140359333Y-101623809D01*
X140359333Y-101480952D01*
X140406952Y-101385714D01*
X140454571Y-101338095D01*
X140549809Y-101290476D01*
X140787904Y-101290476D01*
X140883142Y-101338095D01*
X140930761Y-101385714D01*
X140978380Y-101480952D01*
X140978380Y-101766666D01*
X140930761Y-101861904D01*
X140883142Y-101909523D01*
X139978380Y-100671428D02*
X139978380Y-100576190D01*
X140026000Y-100480952D01*
X140073619Y-100433333D01*
X140168857Y-100385714D01*
X140359333Y-100338095D01*
X140597428Y-100338095D01*
X140787904Y-100385714D01*
X140883142Y-100433333D01*
X140930761Y-100480952D01*
X140978380Y-100576190D01*
X140978380Y-100671428D01*
X140930761Y-100766666D01*
X140883142Y-100814285D01*
X140787904Y-100861904D01*
X140597428Y-100909523D01*
X140359333Y-100909523D01*
X140168857Y-100861904D01*
X140073619Y-100814285D01*
X140026000Y-100766666D01*
X139978380Y-100671428D01*
X131421142Y-120674380D02*
X131087809Y-120198190D01*
X130849714Y-120674380D02*
X130849714Y-119674380D01*
X131230666Y-119674380D01*
X131325904Y-119722000D01*
X131373523Y-119769619D01*
X131421142Y-119864857D01*
X131421142Y-120007714D01*
X131373523Y-120102952D01*
X131325904Y-120150571D01*
X131230666Y-120198190D01*
X130849714Y-120198190D01*
X131802095Y-119769619D02*
X131849714Y-119722000D01*
X131944952Y-119674380D01*
X132183047Y-119674380D01*
X132278285Y-119722000D01*
X132325904Y-119769619D01*
X132373523Y-119864857D01*
X132373523Y-119960095D01*
X132325904Y-120102952D01*
X131754476Y-120674380D01*
X132373523Y-120674380D01*
X132849714Y-120674380D02*
X133040190Y-120674380D01*
X133135428Y-120626761D01*
X133183047Y-120579142D01*
X133278285Y-120436285D01*
X133325904Y-120245809D01*
X133325904Y-119864857D01*
X133278285Y-119769619D01*
X133230666Y-119722000D01*
X133135428Y-119674380D01*
X132944952Y-119674380D01*
X132849714Y-119722000D01*
X132802095Y-119769619D01*
X132754476Y-119864857D01*
X132754476Y-120102952D01*
X132802095Y-120198190D01*
X132849714Y-120245809D01*
X132944952Y-120293428D01*
X133135428Y-120293428D01*
X133230666Y-120245809D01*
X133278285Y-120198190D01*
X133325904Y-120102952D01*
X131421142Y-110006380D02*
X131087809Y-109530190D01*
X130849714Y-110006380D02*
X130849714Y-109006380D01*
X131230666Y-109006380D01*
X131325904Y-109054000D01*
X131373523Y-109101619D01*
X131421142Y-109196857D01*
X131421142Y-109339714D01*
X131373523Y-109434952D01*
X131325904Y-109482571D01*
X131230666Y-109530190D01*
X130849714Y-109530190D01*
X131802095Y-109101619D02*
X131849714Y-109054000D01*
X131944952Y-109006380D01*
X132183047Y-109006380D01*
X132278285Y-109054000D01*
X132325904Y-109101619D01*
X132373523Y-109196857D01*
X132373523Y-109292095D01*
X132325904Y-109434952D01*
X131754476Y-110006380D01*
X132373523Y-110006380D01*
X132944952Y-109434952D02*
X132849714Y-109387333D01*
X132802095Y-109339714D01*
X132754476Y-109244476D01*
X132754476Y-109196857D01*
X132802095Y-109101619D01*
X132849714Y-109054000D01*
X132944952Y-109006380D01*
X133135428Y-109006380D01*
X133230666Y-109054000D01*
X133278285Y-109101619D01*
X133325904Y-109196857D01*
X133325904Y-109244476D01*
X133278285Y-109339714D01*
X133230666Y-109387333D01*
X133135428Y-109434952D01*
X132944952Y-109434952D01*
X132849714Y-109482571D01*
X132802095Y-109530190D01*
X132754476Y-109625428D01*
X132754476Y-109815904D01*
X132802095Y-109911142D01*
X132849714Y-109958761D01*
X132944952Y-110006380D01*
X133135428Y-110006380D01*
X133230666Y-109958761D01*
X133278285Y-109911142D01*
X133325904Y-109815904D01*
X133325904Y-109625428D01*
X133278285Y-109530190D01*
X133230666Y-109482571D01*
X133135428Y-109434952D01*
X131421142Y-99338380D02*
X131087809Y-98862190D01*
X130849714Y-99338380D02*
X130849714Y-98338380D01*
X131230666Y-98338380D01*
X131325904Y-98386000D01*
X131373523Y-98433619D01*
X131421142Y-98528857D01*
X131421142Y-98671714D01*
X131373523Y-98766952D01*
X131325904Y-98814571D01*
X131230666Y-98862190D01*
X130849714Y-98862190D01*
X131802095Y-98433619D02*
X131849714Y-98386000D01*
X131944952Y-98338380D01*
X132183047Y-98338380D01*
X132278285Y-98386000D01*
X132325904Y-98433619D01*
X132373523Y-98528857D01*
X132373523Y-98624095D01*
X132325904Y-98766952D01*
X131754476Y-99338380D01*
X132373523Y-99338380D01*
X132706857Y-98338380D02*
X133373523Y-98338380D01*
X132944952Y-99338380D01*
X129294380Y-112910857D02*
X128818190Y-113244190D01*
X129294380Y-113482285D02*
X128294380Y-113482285D01*
X128294380Y-113101333D01*
X128342000Y-113006095D01*
X128389619Y-112958476D01*
X128484857Y-112910857D01*
X128627714Y-112910857D01*
X128722952Y-112958476D01*
X128770571Y-113006095D01*
X128818190Y-113101333D01*
X128818190Y-113482285D01*
X128389619Y-112529904D02*
X128342000Y-112482285D01*
X128294380Y-112387047D01*
X128294380Y-112148952D01*
X128342000Y-112053714D01*
X128389619Y-112006095D01*
X128484857Y-111958476D01*
X128580095Y-111958476D01*
X128722952Y-112006095D01*
X129294380Y-112577523D01*
X129294380Y-111958476D01*
X128294380Y-111101333D02*
X128294380Y-111291809D01*
X128342000Y-111387047D01*
X128389619Y-111434666D01*
X128532476Y-111529904D01*
X128722952Y-111577523D01*
X129103904Y-111577523D01*
X129199142Y-111529904D01*
X129246761Y-111482285D01*
X129294380Y-111387047D01*
X129294380Y-111196571D01*
X129246761Y-111101333D01*
X129199142Y-111053714D01*
X129103904Y-111006095D01*
X128865809Y-111006095D01*
X128770571Y-111053714D01*
X128722952Y-111101333D01*
X128675333Y-111196571D01*
X128675333Y-111387047D01*
X128722952Y-111482285D01*
X128770571Y-111529904D01*
X128865809Y-111577523D01*
X129294380Y-102242857D02*
X128818190Y-102576190D01*
X129294380Y-102814285D02*
X128294380Y-102814285D01*
X128294380Y-102433333D01*
X128342000Y-102338095D01*
X128389619Y-102290476D01*
X128484857Y-102242857D01*
X128627714Y-102242857D01*
X128722952Y-102290476D01*
X128770571Y-102338095D01*
X128818190Y-102433333D01*
X128818190Y-102814285D01*
X128389619Y-101861904D02*
X128342000Y-101814285D01*
X128294380Y-101719047D01*
X128294380Y-101480952D01*
X128342000Y-101385714D01*
X128389619Y-101338095D01*
X128484857Y-101290476D01*
X128580095Y-101290476D01*
X128722952Y-101338095D01*
X129294380Y-101909523D01*
X129294380Y-101290476D01*
X128294380Y-100385714D02*
X128294380Y-100861904D01*
X128770571Y-100909523D01*
X128722952Y-100861904D01*
X128675333Y-100766666D01*
X128675333Y-100528571D01*
X128722952Y-100433333D01*
X128770571Y-100385714D01*
X128865809Y-100338095D01*
X129103904Y-100338095D01*
X129199142Y-100385714D01*
X129246761Y-100433333D01*
X129294380Y-100528571D01*
X129294380Y-100766666D01*
X129246761Y-100861904D01*
X129199142Y-100909523D01*
X117356380Y-112910857D02*
X116880190Y-113244190D01*
X117356380Y-113482285D02*
X116356380Y-113482285D01*
X116356380Y-113101333D01*
X116404000Y-113006095D01*
X116451619Y-112958476D01*
X116546857Y-112910857D01*
X116689714Y-112910857D01*
X116784952Y-112958476D01*
X116832571Y-113006095D01*
X116880190Y-113101333D01*
X116880190Y-113482285D01*
X116451619Y-112529904D02*
X116404000Y-112482285D01*
X116356380Y-112387047D01*
X116356380Y-112148952D01*
X116404000Y-112053714D01*
X116451619Y-112006095D01*
X116546857Y-111958476D01*
X116642095Y-111958476D01*
X116784952Y-112006095D01*
X117356380Y-112577523D01*
X117356380Y-111958476D01*
X116689714Y-111101333D02*
X117356380Y-111101333D01*
X116308761Y-111339428D02*
X117023047Y-111577523D01*
X117023047Y-110958476D01*
X117356380Y-102242857D02*
X116880190Y-102576190D01*
X117356380Y-102814285D02*
X116356380Y-102814285D01*
X116356380Y-102433333D01*
X116404000Y-102338095D01*
X116451619Y-102290476D01*
X116546857Y-102242857D01*
X116689714Y-102242857D01*
X116784952Y-102290476D01*
X116832571Y-102338095D01*
X116880190Y-102433333D01*
X116880190Y-102814285D01*
X116451619Y-101861904D02*
X116404000Y-101814285D01*
X116356380Y-101719047D01*
X116356380Y-101480952D01*
X116404000Y-101385714D01*
X116451619Y-101338095D01*
X116546857Y-101290476D01*
X116642095Y-101290476D01*
X116784952Y-101338095D01*
X117356380Y-101909523D01*
X117356380Y-101290476D01*
X116356380Y-100957142D02*
X116356380Y-100338095D01*
X116737333Y-100671428D01*
X116737333Y-100528571D01*
X116784952Y-100433333D01*
X116832571Y-100385714D01*
X116927809Y-100338095D01*
X117165904Y-100338095D01*
X117261142Y-100385714D01*
X117308761Y-100433333D01*
X117356380Y-100528571D01*
X117356380Y-100814285D01*
X117308761Y-100909523D01*
X117261142Y-100957142D01*
X107799142Y-120674380D02*
X107465809Y-120198190D01*
X107227714Y-120674380D02*
X107227714Y-119674380D01*
X107608666Y-119674380D01*
X107703904Y-119722000D01*
X107751523Y-119769619D01*
X107799142Y-119864857D01*
X107799142Y-120007714D01*
X107751523Y-120102952D01*
X107703904Y-120150571D01*
X107608666Y-120198190D01*
X107227714Y-120198190D01*
X108180095Y-119769619D02*
X108227714Y-119722000D01*
X108322952Y-119674380D01*
X108561047Y-119674380D01*
X108656285Y-119722000D01*
X108703904Y-119769619D01*
X108751523Y-119864857D01*
X108751523Y-119960095D01*
X108703904Y-120102952D01*
X108132476Y-120674380D01*
X108751523Y-120674380D01*
X109132476Y-119769619D02*
X109180095Y-119722000D01*
X109275333Y-119674380D01*
X109513428Y-119674380D01*
X109608666Y-119722000D01*
X109656285Y-119769619D01*
X109703904Y-119864857D01*
X109703904Y-119960095D01*
X109656285Y-120102952D01*
X109084857Y-120674380D01*
X109703904Y-120674380D01*
X107799142Y-110006380D02*
X107465809Y-109530190D01*
X107227714Y-110006380D02*
X107227714Y-109006380D01*
X107608666Y-109006380D01*
X107703904Y-109054000D01*
X107751523Y-109101619D01*
X107799142Y-109196857D01*
X107799142Y-109339714D01*
X107751523Y-109434952D01*
X107703904Y-109482571D01*
X107608666Y-109530190D01*
X107227714Y-109530190D01*
X108180095Y-109101619D02*
X108227714Y-109054000D01*
X108322952Y-109006380D01*
X108561047Y-109006380D01*
X108656285Y-109054000D01*
X108703904Y-109101619D01*
X108751523Y-109196857D01*
X108751523Y-109292095D01*
X108703904Y-109434952D01*
X108132476Y-110006380D01*
X108751523Y-110006380D01*
X109703904Y-110006380D02*
X109132476Y-110006380D01*
X109418190Y-110006380D02*
X109418190Y-109006380D01*
X109322952Y-109149238D01*
X109227714Y-109244476D01*
X109132476Y-109292095D01*
X107799142Y-99338380D02*
X107465809Y-98862190D01*
X107227714Y-99338380D02*
X107227714Y-98338380D01*
X107608666Y-98338380D01*
X107703904Y-98386000D01*
X107751523Y-98433619D01*
X107799142Y-98528857D01*
X107799142Y-98671714D01*
X107751523Y-98766952D01*
X107703904Y-98814571D01*
X107608666Y-98862190D01*
X107227714Y-98862190D01*
X108180095Y-98433619D02*
X108227714Y-98386000D01*
X108322952Y-98338380D01*
X108561047Y-98338380D01*
X108656285Y-98386000D01*
X108703904Y-98433619D01*
X108751523Y-98528857D01*
X108751523Y-98624095D01*
X108703904Y-98766952D01*
X108132476Y-99338380D01*
X108751523Y-99338380D01*
X109370571Y-98338380D02*
X109465809Y-98338380D01*
X109561047Y-98386000D01*
X109608666Y-98433619D01*
X109656285Y-98528857D01*
X109703904Y-98719333D01*
X109703904Y-98957428D01*
X109656285Y-99147904D01*
X109608666Y-99243142D01*
X109561047Y-99290761D01*
X109465809Y-99338380D01*
X109370571Y-99338380D01*
X109275333Y-99290761D01*
X109227714Y-99243142D01*
X109180095Y-99147904D01*
X109132476Y-98957428D01*
X109132476Y-98719333D01*
X109180095Y-98528857D01*
X109227714Y-98433619D01*
X109275333Y-98386000D01*
X109370571Y-98338380D01*
X105672380Y-112910857D02*
X105196190Y-113244190D01*
X105672380Y-113482285D02*
X104672380Y-113482285D01*
X104672380Y-113101333D01*
X104720000Y-113006095D01*
X104767619Y-112958476D01*
X104862857Y-112910857D01*
X105005714Y-112910857D01*
X105100952Y-112958476D01*
X105148571Y-113006095D01*
X105196190Y-113101333D01*
X105196190Y-113482285D01*
X105672380Y-111958476D02*
X105672380Y-112529904D01*
X105672380Y-112244190D02*
X104672380Y-112244190D01*
X104815238Y-112339428D01*
X104910476Y-112434666D01*
X104958095Y-112529904D01*
X105672380Y-111482285D02*
X105672380Y-111291809D01*
X105624761Y-111196571D01*
X105577142Y-111148952D01*
X105434285Y-111053714D01*
X105243809Y-111006095D01*
X104862857Y-111006095D01*
X104767619Y-111053714D01*
X104720000Y-111101333D01*
X104672380Y-111196571D01*
X104672380Y-111387047D01*
X104720000Y-111482285D01*
X104767619Y-111529904D01*
X104862857Y-111577523D01*
X105100952Y-111577523D01*
X105196190Y-111529904D01*
X105243809Y-111482285D01*
X105291428Y-111387047D01*
X105291428Y-111196571D01*
X105243809Y-111101333D01*
X105196190Y-111053714D01*
X105100952Y-111006095D01*
X105672380Y-102242857D02*
X105196190Y-102576190D01*
X105672380Y-102814285D02*
X104672380Y-102814285D01*
X104672380Y-102433333D01*
X104720000Y-102338095D01*
X104767619Y-102290476D01*
X104862857Y-102242857D01*
X105005714Y-102242857D01*
X105100952Y-102290476D01*
X105148571Y-102338095D01*
X105196190Y-102433333D01*
X105196190Y-102814285D01*
X105672380Y-101290476D02*
X105672380Y-101861904D01*
X105672380Y-101576190D02*
X104672380Y-101576190D01*
X104815238Y-101671428D01*
X104910476Y-101766666D01*
X104958095Y-101861904D01*
X105100952Y-100719047D02*
X105053333Y-100814285D01*
X105005714Y-100861904D01*
X104910476Y-100909523D01*
X104862857Y-100909523D01*
X104767619Y-100861904D01*
X104720000Y-100814285D01*
X104672380Y-100719047D01*
X104672380Y-100528571D01*
X104720000Y-100433333D01*
X104767619Y-100385714D01*
X104862857Y-100338095D01*
X104910476Y-100338095D01*
X105005714Y-100385714D01*
X105053333Y-100433333D01*
X105100952Y-100528571D01*
X105100952Y-100719047D01*
X105148571Y-100814285D01*
X105196190Y-100861904D01*
X105291428Y-100909523D01*
X105481904Y-100909523D01*
X105577142Y-100861904D01*
X105624761Y-100814285D01*
X105672380Y-100719047D01*
X105672380Y-100528571D01*
X105624761Y-100433333D01*
X105577142Y-100385714D01*
X105481904Y-100338095D01*
X105291428Y-100338095D01*
X105196190Y-100385714D01*
X105148571Y-100433333D01*
X105100952Y-100528571D01*
X133628380Y-81414857D02*
X133152190Y-81748190D01*
X133628380Y-81986285D02*
X132628380Y-81986285D01*
X132628380Y-81605333D01*
X132676000Y-81510095D01*
X132723619Y-81462476D01*
X132818857Y-81414857D01*
X132961714Y-81414857D01*
X133056952Y-81462476D01*
X133104571Y-81510095D01*
X133152190Y-81605333D01*
X133152190Y-81986285D01*
X133628380Y-80462476D02*
X133628380Y-81033904D01*
X133628380Y-80748190D02*
X132628380Y-80748190D01*
X132771238Y-80843428D01*
X132866476Y-80938666D01*
X132914095Y-81033904D01*
X132628380Y-79605333D02*
X132628380Y-79795809D01*
X132676000Y-79891047D01*
X132723619Y-79938666D01*
X132866476Y-80033904D01*
X133056952Y-80081523D01*
X133437904Y-80081523D01*
X133533142Y-80033904D01*
X133580761Y-79986285D01*
X133628380Y-79891047D01*
X133628380Y-79700571D01*
X133580761Y-79605333D01*
X133533142Y-79557714D01*
X133437904Y-79510095D01*
X133199809Y-79510095D01*
X133104571Y-79557714D01*
X133056952Y-79605333D01*
X133009333Y-79700571D01*
X133009333Y-79891047D01*
X133056952Y-79986285D01*
X133104571Y-80033904D01*
X133199809Y-80081523D01*
X133628380Y-70746857D02*
X133152190Y-71080190D01*
X133628380Y-71318285D02*
X132628380Y-71318285D01*
X132628380Y-70937333D01*
X132676000Y-70842095D01*
X132723619Y-70794476D01*
X132818857Y-70746857D01*
X132961714Y-70746857D01*
X133056952Y-70794476D01*
X133104571Y-70842095D01*
X133152190Y-70937333D01*
X133152190Y-71318285D01*
X133628380Y-69794476D02*
X133628380Y-70365904D01*
X133628380Y-70080190D02*
X132628380Y-70080190D01*
X132771238Y-70175428D01*
X132866476Y-70270666D01*
X132914095Y-70365904D01*
X132628380Y-68889714D02*
X132628380Y-69365904D01*
X133104571Y-69413523D01*
X133056952Y-69365904D01*
X133009333Y-69270666D01*
X133009333Y-69032571D01*
X133056952Y-68937333D01*
X133104571Y-68889714D01*
X133199809Y-68842095D01*
X133437904Y-68842095D01*
X133533142Y-68889714D01*
X133580761Y-68937333D01*
X133628380Y-69032571D01*
X133628380Y-69270666D01*
X133580761Y-69365904D01*
X133533142Y-69413523D01*
X124071142Y-89178380D02*
X123737809Y-88702190D01*
X123499714Y-89178380D02*
X123499714Y-88178380D01*
X123880666Y-88178380D01*
X123975904Y-88226000D01*
X124023523Y-88273619D01*
X124071142Y-88368857D01*
X124071142Y-88511714D01*
X124023523Y-88606952D01*
X123975904Y-88654571D01*
X123880666Y-88702190D01*
X123499714Y-88702190D01*
X125023523Y-89178380D02*
X124452095Y-89178380D01*
X124737809Y-89178380D02*
X124737809Y-88178380D01*
X124642571Y-88321238D01*
X124547333Y-88416476D01*
X124452095Y-88464095D01*
X125880666Y-88511714D02*
X125880666Y-89178380D01*
X125642571Y-88130761D02*
X125404476Y-88845047D01*
X126023523Y-88845047D01*
X124071142Y-78510380D02*
X123737809Y-78034190D01*
X123499714Y-78510380D02*
X123499714Y-77510380D01*
X123880666Y-77510380D01*
X123975904Y-77558000D01*
X124023523Y-77605619D01*
X124071142Y-77700857D01*
X124071142Y-77843714D01*
X124023523Y-77938952D01*
X123975904Y-77986571D01*
X123880666Y-78034190D01*
X123499714Y-78034190D01*
X125023523Y-78510380D02*
X124452095Y-78510380D01*
X124737809Y-78510380D02*
X124737809Y-77510380D01*
X124642571Y-77653238D01*
X124547333Y-77748476D01*
X124452095Y-77796095D01*
X125356857Y-77510380D02*
X125975904Y-77510380D01*
X125642571Y-77891333D01*
X125785428Y-77891333D01*
X125880666Y-77938952D01*
X125928285Y-77986571D01*
X125975904Y-78081809D01*
X125975904Y-78319904D01*
X125928285Y-78415142D01*
X125880666Y-78462761D01*
X125785428Y-78510380D01*
X125499714Y-78510380D01*
X125404476Y-78462761D01*
X125356857Y-78415142D01*
X124071142Y-62602380D02*
X123737809Y-62126190D01*
X123499714Y-62602380D02*
X123499714Y-61602380D01*
X123880666Y-61602380D01*
X123975904Y-61650000D01*
X124023523Y-61697619D01*
X124071142Y-61792857D01*
X124071142Y-61935714D01*
X124023523Y-62030952D01*
X123975904Y-62078571D01*
X123880666Y-62126190D01*
X123499714Y-62126190D01*
X125023523Y-62602380D02*
X124452095Y-62602380D01*
X124737809Y-62602380D02*
X124737809Y-61602380D01*
X124642571Y-61745238D01*
X124547333Y-61840476D01*
X124452095Y-61888095D01*
X125404476Y-61697619D02*
X125452095Y-61650000D01*
X125547333Y-61602380D01*
X125785428Y-61602380D01*
X125880666Y-61650000D01*
X125928285Y-61697619D01*
X125975904Y-61792857D01*
X125975904Y-61888095D01*
X125928285Y-62030952D01*
X125356857Y-62602380D01*
X125975904Y-62602380D01*
X121944380Y-81414857D02*
X121468190Y-81748190D01*
X121944380Y-81986285D02*
X120944380Y-81986285D01*
X120944380Y-81605333D01*
X120992000Y-81510095D01*
X121039619Y-81462476D01*
X121134857Y-81414857D01*
X121277714Y-81414857D01*
X121372952Y-81462476D01*
X121420571Y-81510095D01*
X121468190Y-81605333D01*
X121468190Y-81986285D01*
X121944380Y-80462476D02*
X121944380Y-81033904D01*
X121944380Y-80748190D02*
X120944380Y-80748190D01*
X121087238Y-80843428D01*
X121182476Y-80938666D01*
X121230095Y-81033904D01*
X121944380Y-79510095D02*
X121944380Y-80081523D01*
X121944380Y-79795809D02*
X120944380Y-79795809D01*
X121087238Y-79891047D01*
X121182476Y-79986285D01*
X121230095Y-80081523D01*
X121944380Y-70746857D02*
X121468190Y-71080190D01*
X121944380Y-71318285D02*
X120944380Y-71318285D01*
X120944380Y-70937333D01*
X120992000Y-70842095D01*
X121039619Y-70794476D01*
X121134857Y-70746857D01*
X121277714Y-70746857D01*
X121372952Y-70794476D01*
X121420571Y-70842095D01*
X121468190Y-70937333D01*
X121468190Y-71318285D01*
X121944380Y-69794476D02*
X121944380Y-70365904D01*
X121944380Y-70080190D02*
X120944380Y-70080190D01*
X121087238Y-70175428D01*
X121182476Y-70270666D01*
X121230095Y-70365904D01*
X120944380Y-69175428D02*
X120944380Y-69080190D01*
X120992000Y-68984952D01*
X121039619Y-68937333D01*
X121134857Y-68889714D01*
X121325333Y-68842095D01*
X121563428Y-68842095D01*
X121753904Y-68889714D01*
X121849142Y-68937333D01*
X121896761Y-68984952D01*
X121944380Y-69080190D01*
X121944380Y-69175428D01*
X121896761Y-69270666D01*
X121849142Y-69318285D01*
X121753904Y-69365904D01*
X121563428Y-69413523D01*
X121325333Y-69413523D01*
X121134857Y-69365904D01*
X121039619Y-69318285D01*
X120992000Y-69270666D01*
X120944380Y-69175428D01*
X110006380Y-80938666D02*
X109530190Y-81272000D01*
X110006380Y-81510095D02*
X109006380Y-81510095D01*
X109006380Y-81129142D01*
X109054000Y-81033904D01*
X109101619Y-80986285D01*
X109196857Y-80938666D01*
X109339714Y-80938666D01*
X109434952Y-80986285D01*
X109482571Y-81033904D01*
X109530190Y-81129142D01*
X109530190Y-81510095D01*
X110006380Y-80462476D02*
X110006380Y-80272000D01*
X109958761Y-80176761D01*
X109911142Y-80129142D01*
X109768285Y-80033904D01*
X109577809Y-79986285D01*
X109196857Y-79986285D01*
X109101619Y-80033904D01*
X109054000Y-80081523D01*
X109006380Y-80176761D01*
X109006380Y-80367238D01*
X109054000Y-80462476D01*
X109101619Y-80510095D01*
X109196857Y-80557714D01*
X109434952Y-80557714D01*
X109530190Y-80510095D01*
X109577809Y-80462476D01*
X109625428Y-80367238D01*
X109625428Y-80176761D01*
X109577809Y-80081523D01*
X109530190Y-80033904D01*
X109434952Y-79986285D01*
X110006380Y-70270666D02*
X109530190Y-70604000D01*
X110006380Y-70842095D02*
X109006380Y-70842095D01*
X109006380Y-70461142D01*
X109054000Y-70365904D01*
X109101619Y-70318285D01*
X109196857Y-70270666D01*
X109339714Y-70270666D01*
X109434952Y-70318285D01*
X109482571Y-70365904D01*
X109530190Y-70461142D01*
X109530190Y-70842095D01*
X109434952Y-69699238D02*
X109387333Y-69794476D01*
X109339714Y-69842095D01*
X109244476Y-69889714D01*
X109196857Y-69889714D01*
X109101619Y-69842095D01*
X109054000Y-69794476D01*
X109006380Y-69699238D01*
X109006380Y-69508761D01*
X109054000Y-69413523D01*
X109101619Y-69365904D01*
X109196857Y-69318285D01*
X109244476Y-69318285D01*
X109339714Y-69365904D01*
X109387333Y-69413523D01*
X109434952Y-69508761D01*
X109434952Y-69699238D01*
X109482571Y-69794476D01*
X109530190Y-69842095D01*
X109625428Y-69889714D01*
X109815904Y-69889714D01*
X109911142Y-69842095D01*
X109958761Y-69794476D01*
X110006380Y-69699238D01*
X110006380Y-69508761D01*
X109958761Y-69413523D01*
X109911142Y-69365904D01*
X109815904Y-69318285D01*
X109625428Y-69318285D01*
X109530190Y-69365904D01*
X109482571Y-69413523D01*
X109434952Y-69508761D01*
X100925333Y-89178380D02*
X100592000Y-88702190D01*
X100353904Y-89178380D02*
X100353904Y-88178380D01*
X100734857Y-88178380D01*
X100830095Y-88226000D01*
X100877714Y-88273619D01*
X100925333Y-88368857D01*
X100925333Y-88511714D01*
X100877714Y-88606952D01*
X100830095Y-88654571D01*
X100734857Y-88702190D01*
X100353904Y-88702190D01*
X101258666Y-88178380D02*
X101925333Y-88178380D01*
X101496761Y-89178380D01*
X100925333Y-78510380D02*
X100592000Y-78034190D01*
X100353904Y-78510380D02*
X100353904Y-77510380D01*
X100734857Y-77510380D01*
X100830095Y-77558000D01*
X100877714Y-77605619D01*
X100925333Y-77700857D01*
X100925333Y-77843714D01*
X100877714Y-77938952D01*
X100830095Y-77986571D01*
X100734857Y-78034190D01*
X100353904Y-78034190D01*
X101782476Y-77510380D02*
X101592000Y-77510380D01*
X101496761Y-77558000D01*
X101449142Y-77605619D01*
X101353904Y-77748476D01*
X101306285Y-77938952D01*
X101306285Y-78319904D01*
X101353904Y-78415142D01*
X101401523Y-78462761D01*
X101496761Y-78510380D01*
X101687238Y-78510380D01*
X101782476Y-78462761D01*
X101830095Y-78415142D01*
X101877714Y-78319904D01*
X101877714Y-78081809D01*
X101830095Y-77986571D01*
X101782476Y-77938952D01*
X101687238Y-77891333D01*
X101496761Y-77891333D01*
X101401523Y-77938952D01*
X101353904Y-77986571D01*
X101306285Y-78081809D01*
X100925333Y-67842380D02*
X100592000Y-67366190D01*
X100353904Y-67842380D02*
X100353904Y-66842380D01*
X100734857Y-66842380D01*
X100830095Y-66890000D01*
X100877714Y-66937619D01*
X100925333Y-67032857D01*
X100925333Y-67175714D01*
X100877714Y-67270952D01*
X100830095Y-67318571D01*
X100734857Y-67366190D01*
X100353904Y-67366190D01*
X101830095Y-66842380D02*
X101353904Y-66842380D01*
X101306285Y-67318571D01*
X101353904Y-67270952D01*
X101449142Y-67223333D01*
X101687238Y-67223333D01*
X101782476Y-67270952D01*
X101830095Y-67318571D01*
X101877714Y-67413809D01*
X101877714Y-67651904D01*
X101830095Y-67747142D01*
X101782476Y-67794761D01*
X101687238Y-67842380D01*
X101449142Y-67842380D01*
X101353904Y-67794761D01*
X101306285Y-67747142D01*
X98322380Y-80938666D02*
X97846190Y-81272000D01*
X98322380Y-81510095D02*
X97322380Y-81510095D01*
X97322380Y-81129142D01*
X97370000Y-81033904D01*
X97417619Y-80986285D01*
X97512857Y-80938666D01*
X97655714Y-80938666D01*
X97750952Y-80986285D01*
X97798571Y-81033904D01*
X97846190Y-81129142D01*
X97846190Y-81510095D01*
X97655714Y-80081523D02*
X98322380Y-80081523D01*
X97274761Y-80319619D02*
X97989047Y-80557714D01*
X97989047Y-79938666D01*
X98322380Y-70270666D02*
X97846190Y-70604000D01*
X98322380Y-70842095D02*
X97322380Y-70842095D01*
X97322380Y-70461142D01*
X97370000Y-70365904D01*
X97417619Y-70318285D01*
X97512857Y-70270666D01*
X97655714Y-70270666D01*
X97750952Y-70318285D01*
X97798571Y-70365904D01*
X97846190Y-70461142D01*
X97846190Y-70842095D01*
X97322380Y-69937333D02*
X97322380Y-69318285D01*
X97703333Y-69651619D01*
X97703333Y-69508761D01*
X97750952Y-69413523D01*
X97798571Y-69365904D01*
X97893809Y-69318285D01*
X98131904Y-69318285D01*
X98227142Y-69365904D01*
X98274761Y-69413523D01*
X98322380Y-69508761D01*
X98322380Y-69794476D01*
X98274761Y-69889714D01*
X98227142Y-69937333D01*
M02*
