<?xml version="1.0" standalone="no"?>
 <!DOCTYPE svg PUBLIC "-//W3C//DTD SVG 1.1//EN" 
 "http://www.w3.org/Graphics/SVG/1.1/DTD/svg11.dtd"> 
<svg xmlns="http://www.w3.org/2000/svg" version="1.1" 
    width="27.94cm" height="21.59cm" viewBox="0 0 110000 85000 ">
<title>SVG Picture created as thermocjromic clock resistors panel-brd.svg date 2021/04/29 21:22:45 </title>
  <desc>Picture generated by PCBNEW </desc>
<g style="fill:#000000; fill-opacity:1;stroke:#000000; stroke-opacity:1;
stroke-linecap:round; stroke-linejoin:round; "
 transform="translate(0 0) scale(1 1)">
</g>
<g style="fill:#000000; fill-opacity:0.0; 
stroke:#000000; stroke-width:-0.000393701; stroke-opacity:1; 
stroke-linecap:round; stroke-linejoin:round;">
</g>
<g style="fill:#000000; fill-opacity:0.0; 
stroke:#000000; stroke-width:39.3701; stroke-opacity:1; 
stroke-linecap:round; stroke-linejoin:round;">
</g>
<g style="fill:#000000; fill-opacity:0.0; 
stroke:#000000; stroke-width:59.0551; stroke-opacity:1; 
stroke-linecap:round; stroke-linejoin:round;">
<rect x="62755.9" y="67677.2" width="42519.7" height="12598.4" rx="0" />
</g>
<g style="fill:#000000; fill-opacity:0.0; 
stroke:#000000; stroke-width:39.3701; stroke-opacity:1; 
stroke-linecap:round; stroke-linejoin:round;">
</g>
<g style="fill:#000000; fill-opacity:0.0; 
stroke:#000000; stroke-width:59.0551; stroke-opacity:1; 
stroke-linecap:round; stroke-linejoin:round;">
<rect x="3937.01" y="3937.01" width="102126" height="77126" rx="0" />
</g>
<g style="fill:#000000; fill-opacity:0.0; 
stroke:#000000; stroke-width:39.3701; stroke-opacity:1; 
stroke-linecap:round; stroke-linejoin:round;">
</g>
<g style="fill:#000000; fill-opacity:0.0; 
stroke:#000000; stroke-width:59.0551; stroke-opacity:1; 
stroke-linecap:round; stroke-linejoin:round;">
<rect x="4724.41" y="4724.41" width="100551" height="75551.2" rx="0" />
</g>
<g style="fill:#000000; fill-opacity:0.0; 
stroke:#000000; stroke-width:39.3701; stroke-opacity:1; 
stroke-linecap:round; stroke-linejoin:round;">
</g>
<g style="fill:#000000; fill-opacity:0.0; 
stroke:#000000; stroke-width:59.0551; stroke-opacity:1; 
stroke-linecap:round; stroke-linejoin:round;">
<path d="M23622 4724
L23622 3937
" />
</g>
<g style="fill:#000000; fill-opacity:0.0; 
stroke:#000000; stroke-width:39.3701; stroke-opacity:1; 
stroke-linecap:round; stroke-linejoin:round;">
</g>
<g style="fill:#000000; fill-opacity:0.0; 
stroke:#000000; stroke-width:59.0551; stroke-opacity:1; 
stroke-linecap:round; stroke-linejoin:round;">
<path d="M43307 4724
L43307 3937
" />
</g>
<g style="fill:#000000; fill-opacity:0.0; 
stroke:#000000; stroke-width:39.3701; stroke-opacity:1; 
stroke-linecap:round; stroke-linejoin:round;">
</g>
<g style="fill:#000000; fill-opacity:0.0; 
stroke:#000000; stroke-width:59.0551; stroke-opacity:1; 
stroke-linecap:round; stroke-linejoin:round;">
<path d="M62992 4724
L62992 3937
" />
</g>
<g style="fill:#000000; fill-opacity:0.0; 
stroke:#000000; stroke-width:39.3701; stroke-opacity:1; 
stroke-linecap:round; stroke-linejoin:round;">
</g>
<g style="fill:#000000; fill-opacity:0.0; 
stroke:#000000; stroke-width:59.0551; stroke-opacity:1; 
stroke-linecap:round; stroke-linejoin:round;">
<path d="M82677 4724
L82677 3937
" />
</g>
<g style="fill:#000000; fill-opacity:0.0; 
stroke:#000000; stroke-width:39.3701; stroke-opacity:1; 
stroke-linecap:round; stroke-linejoin:round;">
</g>
<g style="fill:#000000; fill-opacity:0.0; 
stroke:#000000; stroke-width:59.0551; stroke-opacity:1; 
stroke-linecap:round; stroke-linejoin:round;">
<path d="M102362 4724
L102362 3937
" />
</g>
<g style="fill:#000000; fill-opacity:0.0; 
stroke:#000000; stroke-width:39.3701; stroke-opacity:1; 
stroke-linecap:round; stroke-linejoin:round;">
</g>
<g style="fill:#000000; fill-opacity:0.0; 
stroke:#000000; stroke-width:59.0551; stroke-opacity:1; 
stroke-linecap:round; stroke-linejoin:round;">
<text x="13779.5" y="4586.61"
textLength="564.211" font-size="682.415" lengthAdjust="spacingAndGlyphs"
text-anchor="start" opacity="0">1</text>
<path d="M14199 4562
L13906 4562
" />
<path d="M14052 4562
L14052 4050
L14004 4123
L13955 4172
L13906 4196
" />
</g>
<g style="fill:#000000; fill-opacity:0.0; 
stroke:#000000; stroke-width:39.3701; stroke-opacity:1; 
stroke-linecap:round; stroke-linejoin:round;">
</g>
<g style="fill:#000000; fill-opacity:0.0; 
stroke:#000000; stroke-width:59.0551; stroke-opacity:1; 
stroke-linecap:round; stroke-linejoin:round;">
<text x="33464.6" y="4586.61"
textLength="546.494" font-size="682.415" lengthAdjust="spacingAndGlyphs"
text-anchor="start" opacity="0">2</text>
<path d="M33591 4099
L33615 4074
L33664 4050
L33786 4050
L33835 4074
L33859 4099
L33884 4147
L33884 4196
L33859 4269
L33567 4562
L33884 4562
" />
</g>
<g style="fill:#000000; fill-opacity:0.0; 
stroke:#000000; stroke-width:39.3701; stroke-opacity:1; 
stroke-linecap:round; stroke-linejoin:round;">
</g>
<g style="fill:#000000; fill-opacity:0.0; 
stroke:#000000; stroke-width:59.0551; stroke-opacity:1; 
stroke-linecap:round; stroke-linejoin:round;">
<text x="53149.6" y="4586.61"
textLength="546.494" font-size="682.415" lengthAdjust="spacingAndGlyphs"
text-anchor="start" opacity="0">3</text>
<path d="M53252 4050
L53569 4050
L53398 4245
L53471 4245
L53520 4269
L53544 4294
L53569 4342
L53569 4464
L53544 4513
L53520 4537
L53471 4562
L53325 4562
L53276 4537
L53252 4513
" />
</g>
<g style="fill:#000000; fill-opacity:0.0; 
stroke:#000000; stroke-width:39.3701; stroke-opacity:1; 
stroke-linecap:round; stroke-linejoin:round;">
</g>
<g style="fill:#000000; fill-opacity:0.0; 
stroke:#000000; stroke-width:59.0551; stroke-opacity:1; 
stroke-linecap:round; stroke-linejoin:round;">
<text x="72834.6" y="4586.61"
textLength="546.494" font-size="682.415" lengthAdjust="spacingAndGlyphs"
text-anchor="start" opacity="0">4</text>
<path d="M73205 4221
L73205 4562
" />
<path d="M73083 4026
L72961 4391
L73278 4391
" />
</g>
<g style="fill:#000000; fill-opacity:0.0; 
stroke:#000000; stroke-width:39.3701; stroke-opacity:1; 
stroke-linecap:round; stroke-linejoin:round;">
</g>
<g style="fill:#000000; fill-opacity:0.0; 
stroke:#000000; stroke-width:59.0551; stroke-opacity:1; 
stroke-linecap:round; stroke-linejoin:round;">
<text x="92519.7" y="4586.61"
textLength="546.494" font-size="682.415" lengthAdjust="spacingAndGlyphs"
text-anchor="start" opacity="0">5</text>
<path d="M92914 4050
L92671 4050
L92646 4294
L92671 4269
L92719 4245
L92841 4245
L92890 4269
L92914 4294
L92939 4342
L92939 4464
L92914 4513
L92890 4537
L92841 4562
L92719 4562
L92671 4537
L92646 4513
" />
</g>
<g style="fill:#000000; fill-opacity:0.0; 
stroke:#000000; stroke-width:39.3701; stroke-opacity:1; 
stroke-linecap:round; stroke-linejoin:round;">
</g>
<g style="fill:#000000; fill-opacity:0.0; 
stroke:#000000; stroke-width:59.0551; stroke-opacity:1; 
stroke-linecap:round; stroke-linejoin:round;">
<path d="M23622 80275
L23622 81062
" />
</g>
<g style="fill:#000000; fill-opacity:0.0; 
stroke:#000000; stroke-width:39.3701; stroke-opacity:1; 
stroke-linecap:round; stroke-linejoin:round;">
</g>
<g style="fill:#000000; fill-opacity:0.0; 
stroke:#000000; stroke-width:59.0551; stroke-opacity:1; 
stroke-linecap:round; stroke-linejoin:round;">
<path d="M43307 80275
L43307 81062
" />
</g>
<g style="fill:#000000; fill-opacity:0.0; 
stroke:#000000; stroke-width:39.3701; stroke-opacity:1; 
stroke-linecap:round; stroke-linejoin:round;">
</g>
<g style="fill:#000000; fill-opacity:0.0; 
stroke:#000000; stroke-width:59.0551; stroke-opacity:1; 
stroke-linecap:round; stroke-linejoin:round;">
<path d="M62992 80275
L62992 81062
" />
</g>
<g style="fill:#000000; fill-opacity:0.0; 
stroke:#000000; stroke-width:39.3701; stroke-opacity:1; 
stroke-linecap:round; stroke-linejoin:round;">
</g>
<g style="fill:#000000; fill-opacity:0.0; 
stroke:#000000; stroke-width:59.0551; stroke-opacity:1; 
stroke-linecap:round; stroke-linejoin:round;">
<path d="M82677 80275
L82677 81062
" />
</g>
<g style="fill:#000000; fill-opacity:0.0; 
stroke:#000000; stroke-width:39.3701; stroke-opacity:1; 
stroke-linecap:round; stroke-linejoin:round;">
</g>
<g style="fill:#000000; fill-opacity:0.0; 
stroke:#000000; stroke-width:59.0551; stroke-opacity:1; 
stroke-linecap:round; stroke-linejoin:round;">
<path d="M102362 80275
L102362 81062
" />
</g>
<g style="fill:#000000; fill-opacity:0.0; 
stroke:#000000; stroke-width:39.3701; stroke-opacity:1; 
stroke-linecap:round; stroke-linejoin:round;">
</g>
<g style="fill:#000000; fill-opacity:0.0; 
stroke:#000000; stroke-width:59.0551; stroke-opacity:1; 
stroke-linecap:round; stroke-linejoin:round;">
<text x="13779.5" y="80925.2"
textLength="546.494" font-size="682.415" lengthAdjust="spacingAndGlyphs"
text-anchor="start" opacity="0">1</text>
<path d="M14199 80900
L13906 80900
" />
<path d="M14052 80900
L14052 80389
L14004 80462
L13955 80510
L13906 80535
" />
</g>
<g style="fill:#000000; fill-opacity:0.0; 
stroke:#000000; stroke-width:39.3701; stroke-opacity:1; 
stroke-linecap:round; stroke-linejoin:round;">
</g>
<g style="fill:#000000; fill-opacity:0.0; 
stroke:#000000; stroke-width:59.0551; stroke-opacity:1; 
stroke-linecap:round; stroke-linejoin:round;">
<text x="33464.6" y="80925.2"
textLength="546.494" font-size="682.415" lengthAdjust="spacingAndGlyphs"
text-anchor="start" opacity="0">2</text>
<path d="M33591 80437
L33615 80413
L33664 80389
L33786 80389
L33835 80413
L33859 80437
L33884 80486
L33884 80535
L33859 80608
L33567 80900
L33884 80900
" />
</g>
<g style="fill:#000000; fill-opacity:0.0; 
stroke:#000000; stroke-width:39.3701; stroke-opacity:1; 
stroke-linecap:round; stroke-linejoin:round;">
</g>
<g style="fill:#000000; fill-opacity:0.0; 
stroke:#000000; stroke-width:59.0551; stroke-opacity:1; 
stroke-linecap:round; stroke-linejoin:round;">
<text x="53149.6" y="80925.2"
textLength="546.494" font-size="682.415" lengthAdjust="spacingAndGlyphs"
text-anchor="start" opacity="0">3</text>
<path d="M53252 80389
L53569 80389
L53398 80583
L53471 80583
L53520 80608
L53544 80632
L53569 80681
L53569 80803
L53544 80852
L53520 80876
L53471 80900
L53325 80900
L53276 80876
L53252 80852
" />
</g>
<g style="fill:#000000; fill-opacity:0.0; 
stroke:#000000; stroke-width:39.3701; stroke-opacity:1; 
stroke-linecap:round; stroke-linejoin:round;">
</g>
<g style="fill:#000000; fill-opacity:0.0; 
stroke:#000000; stroke-width:59.0551; stroke-opacity:1; 
stroke-linecap:round; stroke-linejoin:round;">
<text x="72834.6" y="80925.2"
textLength="546.494" font-size="682.415" lengthAdjust="spacingAndGlyphs"
text-anchor="start" opacity="0">4</text>
<path d="M73205 80559
L73205 80900
" />
<path d="M73083 80364
L72961 80730
L73278 80730
" />
</g>
<g style="fill:#000000; fill-opacity:0.0; 
stroke:#000000; stroke-width:39.3701; stroke-opacity:1; 
stroke-linecap:round; stroke-linejoin:round;">
</g>
<g style="fill:#000000; fill-opacity:0.0; 
stroke:#000000; stroke-width:59.0551; stroke-opacity:1; 
stroke-linecap:round; stroke-linejoin:round;">
<text x="92519.7" y="80925.2"
textLength="546.494" font-size="682.415" lengthAdjust="spacingAndGlyphs"
text-anchor="start" opacity="0">5</text>
<path d="M92914 80389
L92671 80389
L92646 80632
L92671 80608
L92719 80583
L92841 80583
L92890 80608
L92914 80632
L92939 80681
L92939 80803
L92914 80852
L92890 80876
L92841 80900
L92719 80900
L92671 80876
L92646 80852
" />
</g>
<g style="fill:#000000; fill-opacity:0.0; 
stroke:#000000; stroke-width:39.3701; stroke-opacity:1; 
stroke-linecap:round; stroke-linejoin:round;">
</g>
<g style="fill:#000000; fill-opacity:0.0; 
stroke:#000000; stroke-width:59.0551; stroke-opacity:1; 
stroke-linecap:round; stroke-linejoin:round;">
<path d="M3937 23622
L4724 23622
" />
</g>
<g style="fill:#000000; fill-opacity:0.0; 
stroke:#000000; stroke-width:39.3701; stroke-opacity:1; 
stroke-linecap:round; stroke-linejoin:round;">
</g>
<g style="fill:#000000; fill-opacity:0.0; 
stroke:#000000; stroke-width:59.0551; stroke-opacity:1; 
stroke-linecap:round; stroke-linejoin:round;">
<path d="M3937 43307
L4724 43307
" />
</g>
<g style="fill:#000000; fill-opacity:0.0; 
stroke:#000000; stroke-width:39.3701; stroke-opacity:1; 
stroke-linecap:round; stroke-linejoin:round;">
</g>
<g style="fill:#000000; fill-opacity:0.0; 
stroke:#000000; stroke-width:59.0551; stroke-opacity:1; 
stroke-linecap:round; stroke-linejoin:round;">
<path d="M3937 62992
L4724 62992
" />
</g>
<g style="fill:#000000; fill-opacity:0.0; 
stroke:#000000; stroke-width:39.3701; stroke-opacity:1; 
stroke-linecap:round; stroke-linejoin:round;">
</g>
<g style="fill:#000000; fill-opacity:0.0; 
stroke:#000000; stroke-width:59.0551; stroke-opacity:1; 
stroke-linecap:round; stroke-linejoin:round;">
<text x="4330.71" y="14035.4"
textLength="497.75" font-size="682.415" lengthAdjust="spacingAndGlyphs"
text-anchor="middle" opacity="0">A</text>
<path d="M4208 13864
L4452 13864
" />
<path d="M4160 14011
L4330 13499
L4501 14011
" />
</g>
<g style="fill:#000000; fill-opacity:0.0; 
stroke:#000000; stroke-width:39.3701; stroke-opacity:1; 
stroke-linecap:round; stroke-linejoin:round;">
</g>
<g style="fill:#000000; fill-opacity:0.0; 
stroke:#000000; stroke-width:59.0551; stroke-opacity:1; 
stroke-linecap:round; stroke-linejoin:round;">
<text x="4330.71" y="33720.5"
textLength="570.866" font-size="682.415" lengthAdjust="spacingAndGlyphs"
text-anchor="middle" opacity="0">B</text>
<path d="M4367 33428
L4440 33452
L4464 33476
L4489 33525
L4489 33598
L4464 33647
L4440 33671
L4391 33696
L4196 33696
L4196 33184
L4367 33184
L4416 33208
L4440 33233
L4464 33281
L4464 33330
L4440 33379
L4416 33403
L4367 33428
L4196 33428
" />
</g>
<g style="fill:#000000; fill-opacity:0.0; 
stroke:#000000; stroke-width:39.3701; stroke-opacity:1; 
stroke-linecap:round; stroke-linejoin:round;">
</g>
<g style="fill:#000000; fill-opacity:0.0; 
stroke:#000000; stroke-width:59.0551; stroke-opacity:1; 
stroke-linecap:round; stroke-linejoin:round;">
<text x="4330.71" y="53405.5"
textLength="570.866" font-size="682.415" lengthAdjust="spacingAndGlyphs"
text-anchor="middle" opacity="0">C</text>
<path d="M4489 53332
L4464 53356
L4391 53381
L4342 53381
L4269 53356
L4221 53308
L4196 53259
L4172 53161
L4172 53088
L4196 52991
L4221 52942
L4269 52893
L4342 52869
L4391 52869
L4464 52893
L4489 52918
" />
</g>
<g style="fill:#000000; fill-opacity:0.0; 
stroke:#000000; stroke-width:39.3701; stroke-opacity:1; 
stroke-linecap:round; stroke-linejoin:round;">
</g>
<g style="fill:#000000; fill-opacity:0.0; 
stroke:#000000; stroke-width:59.0551; stroke-opacity:1; 
stroke-linecap:round; stroke-linejoin:round;">
<text x="4330.71" y="73090.6"
textLength="570.866" font-size="682.415" lengthAdjust="spacingAndGlyphs"
text-anchor="middle" opacity="0">D</text>
<path d="M4196 73066
L4196 72554
L4318 72554
L4391 72578
L4440 72627
L4464 72676
L4489 72773
L4489 72846
L4464 72944
L4440 72993
L4391 73041
L4318 73066
L4196 73066
" />
</g>
<g style="fill:#000000; fill-opacity:0.0; 
stroke:#000000; stroke-width:39.3701; stroke-opacity:1; 
stroke-linecap:round; stroke-linejoin:round;">
</g>
<g style="fill:#000000; fill-opacity:0.0; 
stroke:#000000; stroke-width:59.0551; stroke-opacity:1; 
stroke-linecap:round; stroke-linejoin:round;">
<path d="M106062 23622
L105275 23622
" />
</g>
<g style="fill:#000000; fill-opacity:0.0; 
stroke:#000000; stroke-width:39.3701; stroke-opacity:1; 
stroke-linecap:round; stroke-linejoin:round;">
</g>
<g style="fill:#000000; fill-opacity:0.0; 
stroke:#000000; stroke-width:59.0551; stroke-opacity:1; 
stroke-linecap:round; stroke-linejoin:round;">
<path d="M106062 43307
L105275 43307
" />
</g>
<g style="fill:#000000; fill-opacity:0.0; 
stroke:#000000; stroke-width:39.3701; stroke-opacity:1; 
stroke-linecap:round; stroke-linejoin:round;">
</g>
<g style="fill:#000000; fill-opacity:0.0; 
stroke:#000000; stroke-width:59.0551; stroke-opacity:1; 
stroke-linecap:round; stroke-linejoin:round;">
<path d="M106062 62992
L105275 62992
" />
</g>
<g style="fill:#000000; fill-opacity:0.0; 
stroke:#000000; stroke-width:39.3701; stroke-opacity:1; 
stroke-linecap:round; stroke-linejoin:round;">
</g>
<g style="fill:#000000; fill-opacity:0.0; 
stroke:#000000; stroke-width:59.0551; stroke-opacity:1; 
stroke-linecap:round; stroke-linejoin:round;">
<text x="105669" y="14035.4"
textLength="497.75" font-size="682.415" lengthAdjust="spacingAndGlyphs"
text-anchor="middle" opacity="0">A</text>
<path d="M105547 13864
L105791 13864
" />
<path d="M105498 14011
L105669 13499
L105839 14011
" />
</g>
<g style="fill:#000000; fill-opacity:0.0; 
stroke:#000000; stroke-width:39.3701; stroke-opacity:1; 
stroke-linecap:round; stroke-linejoin:round;">
</g>
<g style="fill:#000000; fill-opacity:0.0; 
stroke:#000000; stroke-width:59.0551; stroke-opacity:1; 
stroke-linecap:round; stroke-linejoin:round;">
<text x="105669" y="33720.5"
textLength="570.866" font-size="682.415" lengthAdjust="spacingAndGlyphs"
text-anchor="middle" opacity="0">B</text>
<path d="M105705 33428
L105778 33452
L105803 33476
L105827 33525
L105827 33598
L105803 33647
L105778 33671
L105730 33696
L105535 33696
L105535 33184
L105705 33184
L105754 33208
L105778 33233
L105803 33281
L105803 33330
L105778 33379
L105754 33403
L105705 33428
L105535 33428
" />
</g>
<g style="fill:#000000; fill-opacity:0.0; 
stroke:#000000; stroke-width:39.3701; stroke-opacity:1; 
stroke-linecap:round; stroke-linejoin:round;">
</g>
<g style="fill:#000000; fill-opacity:0.0; 
stroke:#000000; stroke-width:59.0551; stroke-opacity:1; 
stroke-linecap:round; stroke-linejoin:round;">
<text x="105669" y="53405.5"
textLength="570.866" font-size="682.415" lengthAdjust="spacingAndGlyphs"
text-anchor="middle" opacity="0">C</text>
<path d="M105827 53332
L105803 53356
L105730 53381
L105681 53381
L105608 53356
L105559 53308
L105535 53259
L105510 53161
L105510 53088
L105535 52991
L105559 52942
L105608 52893
L105681 52869
L105730 52869
L105803 52893
L105827 52918
" />
</g>
<g style="fill:#000000; fill-opacity:0.0; 
stroke:#000000; stroke-width:39.3701; stroke-opacity:1; 
stroke-linecap:round; stroke-linejoin:round;">
</g>
<g style="fill:#000000; fill-opacity:0.0; 
stroke:#000000; stroke-width:59.0551; stroke-opacity:1; 
stroke-linecap:round; stroke-linejoin:round;">
<text x="105669" y="73090.6"
textLength="570.866" font-size="682.415" lengthAdjust="spacingAndGlyphs"
text-anchor="middle" opacity="0">D</text>
<path d="M105535 73066
L105535 72554
L105657 72554
L105730 72578
L105778 72627
L105803 72676
L105827 72773
L105827 72846
L105803 72944
L105778 72993
L105730 73041
L105657 73066
L105535 73066
" />
</g>
<g style="fill:#000000; fill-opacity:0.0; 
stroke:#000000; stroke-width:39.3701; stroke-opacity:1; 
stroke-linecap:round; stroke-linejoin:round;">
</g>
<g style="fill:#000000; fill-opacity:0.0; 
stroke:#000000; stroke-width:59.0551; stroke-opacity:1; 
stroke-linecap:round; stroke-linejoin:round;">
<text x="71811" y="78641.7"
textLength="2758.72" font-size="787.402" lengthAdjust="spacingAndGlyphs"
text-anchor="start" opacity="0">Date: </text>
<path d="M71981 78613
L71981 78023
L72121 78023
L72206 78051
L72262 78107
L72290 78163
L72318 78276
L72318 78360
L72290 78473
L72262 78529
L72206 78585
L72121 78613
L71981 78613
" />
<path d="M72824 78613
L72824 78304
L72796 78248
L72740 78219
L72627 78219
L72571 78248
" />
<path d="M72824 78585
L72768 78613
L72627 78613
L72571 78585
L72543 78529
L72543 78473
L72571 78416
L72627 78388
L72768 78388
L72824 78360
" />
<path d="M73021 78219
L73246 78219
" />
<path d="M73106 78023
L73106 78529
L73134 78585
L73190 78613
L73246 78613
" />
<path d="M73668 78585
L73612 78613
L73499 78613
L73443 78585
L73415 78529
L73415 78304
L73443 78248
L73499 78219
L73612 78219
L73668 78248
L73696 78304
L73696 78360
L73415 78416
" />
<path d="M73949 78557
L73977 78585
L73949 78613
L73921 78585
L73949 78557
L73949 78613
" />
<path d="M73949 78248
L73977 78276
L73949 78304
L73921 78276
L73949 78248
L73949 78304
" />
</g>
<g style="fill:#000000; fill-opacity:0.0; 
stroke:#000000; stroke-width:39.3701; stroke-opacity:1; 
stroke-linecap:round; stroke-linejoin:round;">
</g>
<g style="fill:#000000; fill-opacity:0.0; 
stroke:#000000; stroke-width:59.0551; stroke-opacity:1; 
stroke-linecap:round; stroke-linejoin:round;">
<path d="M62755 78897
L105275 78897
" />
</g>
<g style="fill:#000000; fill-opacity:0.0; 
stroke:#000000; stroke-width:39.3701; stroke-opacity:1; 
stroke-linecap:round; stroke-linejoin:round;">
</g>
<g style="fill:#000000; fill-opacity:0.0; 
stroke:#000000; stroke-width:59.0551; stroke-opacity:1; 
stroke-linecap:round; stroke-linejoin:round;">
<text x="63149.6" y="79744.1"
textLength="13529.2" font-size="787.402" lengthAdjust="spacingAndGlyphs"
text-anchor="start" opacity="0">KiCad E.D.A.  kicad (5.1.5)-3</text>
<path d="M63319 79715
L63319 79125
" />
<path d="M63657 79715
L63404 79378
" />
<path d="M63657 79125
L63319 79462
" />
<path d="M63910 79715
L63910 79322
" />
<path d="M63910 79125
L63882 79153
L63910 79181
L63938 79153
L63910 79125
L63910 79181
" />
<path d="M64528 79659
L64500 79687
L64416 79715
L64360 79715
L64275 79687
L64219 79631
L64191 79575
L64163 79462
L64163 79378
L64191 79266
L64219 79209
L64275 79153
L64360 79125
L64416 79125
L64500 79153
L64528 79181
" />
<path d="M65035 79715
L65035 79406
L65007 79350
L64950 79322
L64838 79322
L64782 79350
" />
<path d="M65035 79687
L64978 79715
L64838 79715
L64782 79687
L64753 79631
L64753 79575
L64782 79519
L64838 79491
L64978 79491
L65035 79462
" />
<path d="M65569 79715
L65569 79125
" />
<path d="M65569 79687
L65513 79715
L65400 79715
L65344 79687
L65316 79659
L65288 79603
L65288 79434
L65316 79378
L65344 79350
L65400 79322
L65513 79322
L65569 79350
" />
<path d="M66300 79406
L66497 79406
" />
<path d="M66581 79715
L66300 79715
L66300 79125
L66581 79125
" />
<path d="M66834 79659
L66863 79687
L66834 79715
L66806 79687
L66834 79659
L66834 79715
" />
<path d="M67116 79715
L67116 79125
L67256 79125
L67341 79153
L67397 79209
L67425 79266
L67453 79378
L67453 79462
L67425 79575
L67397 79631
L67341 79687
L67256 79715
L67116 79715
" />
<path d="M67706 79659
L67734 79687
L67706 79715
L67678 79687
L67706 79659
L67706 79715
" />
<path d="M67959 79547
L68241 79547
" />
<path d="M67903 79715
L68100 79125
L68297 79715
" />
<path d="M68494 79659
L68522 79687
L68494 79715
L68465 79687
L68494 79659
L68494 79715
" />
<path d="M69675 79715
L69675 79125
" />
<path d="M69731 79491
L69900 79715
" />
<path d="M69900 79322
L69675 79547
" />
<path d="M70153 79715
L70153 79322
" />
<path d="M70153 79125
L70125 79153
L70153 79181
L70181 79153
L70153 79125
L70153 79181
" />
<path d="M70687 79687
L70631 79715
L70518 79715
L70462 79687
L70434 79659
L70406 79603
L70406 79434
L70434 79378
L70462 79350
L70518 79322
L70631 79322
L70687 79350
" />
<path d="M71193 79715
L71193 79406
L71165 79350
L71109 79322
L70996 79322
L70940 79350
" />
<path d="M71193 79687
L71137 79715
L70996 79715
L70940 79687
L70912 79631
L70912 79575
L70940 79519
L70996 79491
L71137 79491
L71193 79462
" />
<path d="M71728 79715
L71728 79125
" />
<path d="M71728 79687
L71671 79715
L71559 79715
L71503 79687
L71474 79659
L71446 79603
L71446 79434
L71474 79378
L71503 79350
L71559 79322
L71671 79322
L71728 79350
" />
<path d="M72627 79940
L72599 79912
L72543 79828
L72515 79772
L72487 79687
L72459 79547
L72459 79434
L72487 79294
L72515 79209
L72543 79153
L72599 79069
L72627 79041
" />
<path d="M73134 79125
L72852 79125
L72824 79406
L72852 79378
L72909 79350
L73049 79350
L73106 79378
L73134 79406
L73162 79462
L73162 79603
L73134 79659
L73106 79687
L73049 79715
L72909 79715
L72852 79687
L72824 79659
" />
<path d="M73415 79659
L73443 79687
L73415 79715
L73387 79687
L73415 79659
L73415 79715
" />
<path d="M74005 79715
L73668 79715
" />
<path d="M73837 79715
L73837 79125
L73780 79209
L73724 79266
L73668 79294
" />
<path d="M74258 79659
L74287 79687
L74258 79715
L74230 79687
L74258 79659
L74258 79715
" />
<path d="M74821 79125
L74540 79125
L74512 79406
L74540 79378
L74596 79350
L74737 79350
L74793 79378
L74821 79406
L74849 79462
L74849 79603
L74821 79659
L74793 79687
L74737 79715
L74596 79715
L74540 79687
L74512 79659
" />
<path d="M75046 79940
L75074 79912
L75130 79828
L75158 79772
L75187 79687
L75215 79547
L75215 79434
L75187 79294
L75158 79209
L75130 79153
L75074 79069
L75046 79041
" />
<path d="M75496 79491
L75946 79491
" />
<path d="M76171 79125
L76536 79125
L76339 79350
L76424 79350
L76480 79378
L76508 79406
L76536 79462
L76536 79603
L76508 79659
L76480 79687
L76424 79715
L76255 79715
L76199 79687
L76171 79659
" />
</g>
<g style="fill:#000000; fill-opacity:0.0; 
stroke:#000000; stroke-width:39.3701; stroke-opacity:1; 
stroke-linecap:round; stroke-linejoin:round;">
</g>
<g style="fill:#000000; fill-opacity:0.0; 
stroke:#000000; stroke-width:59.0551; stroke-opacity:1; 
stroke-linecap:round; stroke-linejoin:round;">
<path d="M62755 77716
L105275 77716
" />
</g>
<g style="fill:#000000; fill-opacity:0.0; 
stroke:#000000; stroke-width:39.3701; stroke-opacity:1; 
stroke-linecap:round; stroke-linejoin:round;">
</g>
<g style="fill:#000000; fill-opacity:0.0; 
stroke:#000000; stroke-width:118.11; stroke-opacity:1; 
stroke-linecap:round; stroke-linejoin:round;">
<text x="96614.2" y="78641.7"
textLength="2899.33" font-size="787.402" lengthAdjust="spacingAndGlyphs"
text-anchor="start" opacity="0">Rev: 1</text>
<path d="M97169 78613
L96972 78332
" />
<path d="M96831 78613
L96831 78023
L97056 78023
L97112 78051
L97140 78079
L97169 78135
L97169 78219
L97140 78276
L97112 78304
L97056 78332
L96831 78332
" />
<path d="M97647 78585
L97590 78613
L97478 78613
L97422 78585
L97393 78529
L97393 78304
L97422 78248
L97478 78219
L97590 78219
L97647 78248
L97675 78304
L97675 78360
L97393 78416
" />
<path d="M97872 78219
L98012 78613
L98153 78219
" />
<path d="M98378 78557
L98406 78585
L98378 78613
L98350 78585
L98378 78557
L98378 78613
" />
<path d="M98378 78248
L98406 78276
L98378 78304
L98350 78276
L98378 78248
L98378 78304
" />
<path d="M99418 78613
L99081 78613
" />
<path d="M99250 78613
L99250 78023
L99193 78107
L99137 78163
L99081 78191
" />
</g>
<g style="fill:#000000; fill-opacity:0.0; 
stroke:#000000; stroke-width:39.3701; stroke-opacity:1; 
stroke-linecap:round; stroke-linejoin:round;">
</g>
<g style="fill:#000000; fill-opacity:0.0; 
stroke:#000000; stroke-width:59.0551; stroke-opacity:1; 
stroke-linecap:round; stroke-linejoin:round;">
<text x="63149.6" y="78641.7"
textLength="6424.63" font-size="787.402" lengthAdjust="spacingAndGlyphs"
text-anchor="start" opacity="0">Size: USLetter</text>
<path d="M63291 78585
L63375 78613
L63516 78613
L63572 78585
L63600 78557
L63629 78501
L63629 78444
L63600 78388
L63572 78360
L63516 78332
L63404 78304
L63347 78276
L63319 78248
L63291 78191
L63291 78135
L63319 78079
L63347 78051
L63404 78023
L63544 78023
L63629 78051
" />
<path d="M63882 78613
L63882 78219
" />
<path d="M63882 78023
L63854 78051
L63882 78079
L63910 78051
L63882 78023
L63882 78079
" />
<path d="M64107 78219
L64416 78219
L64107 78613
L64416 78613
" />
<path d="M64866 78585
L64810 78613
L64697 78613
L64641 78585
L64613 78529
L64613 78304
L64641 78248
L64697 78219
L64810 78219
L64866 78248
L64894 78304
L64894 78360
L64613 78416
" />
<path d="M65147 78557
L65175 78585
L65147 78613
L65119 78585
L65147 78557
L65147 78613
" />
<path d="M65147 78248
L65175 78276
L65147 78304
L65119 78276
L65147 78248
L65147 78304
" />
<path d="M65878 78023
L65878 78501
L65906 78557
L65935 78585
L65991 78613
L66103 78613
L66160 78585
L66188 78557
L66216 78501
L66216 78023
" />
<path d="M66469 78585
L66553 78613
L66694 78613
L66750 78585
L66778 78557
L66806 78501
L66806 78444
L66778 78388
L66750 78360
L66694 78332
L66581 78304
L66525 78276
L66497 78248
L66469 78191
L66469 78135
L66497 78079
L66525 78051
L66581 78023
L66722 78023
L66806 78051
" />
<path d="M67341 78613
L67059 78613
L67059 78023
" />
<path d="M67762 78585
L67706 78613
L67594 78613
L67537 78585
L67509 78529
L67509 78304
L67537 78248
L67594 78219
L67706 78219
L67762 78248
L67791 78304
L67791 78360
L67509 78416
" />
<path d="M67959 78219
L68184 78219
" />
<path d="M68044 78023
L68044 78529
L68072 78585
L68128 78613
L68184 78613
" />
<path d="M68297 78219
L68522 78219
" />
<path d="M68381 78023
L68381 78529
L68409 78585
L68465 78613
L68522 78613
" />
<path d="M68944 78585
L68887 78613
L68775 78613
L68719 78585
L68690 78529
L68690 78304
L68719 78248
L68775 78219
L68887 78219
L68944 78248
L68972 78304
L68972 78360
L68690 78416
" />
<path d="M69225 78613
L69225 78219
" />
<path d="M69225 78332
L69253 78276
L69281 78248
L69337 78219
L69393 78219
" />
</g>
<g style="fill:#000000; fill-opacity:0.0; 
stroke:#000000; stroke-width:39.3701; stroke-opacity:1; 
stroke-linecap:round; stroke-linejoin:round;">
</g>
<g style="fill:#000000; fill-opacity:0.0; 
stroke:#000000; stroke-width:59.0551; stroke-opacity:1; 
stroke-linecap:round; stroke-linejoin:round;">
<text x="96614.2" y="79744.1"
textLength="3349.27" font-size="787.402" lengthAdjust="spacingAndGlyphs"
text-anchor="start" opacity="0">Id: 1/1</text>
<path d="M96784 79715
L96784 79125
" />
<path d="M97318 79715
L97318 79125
" />
<path d="M97318 79687
L97262 79715
L97149 79715
L97093 79687
L97065 79659
L97037 79603
L97037 79434
L97065 79378
L97093 79350
L97149 79322
L97262 79322
L97318 79350
" />
<path d="M97599 79659
L97627 79687
L97599 79715
L97571 79687
L97599 79659
L97599 79715
" />
<path d="M97599 79350
L97627 79378
L97599 79406
L97571 79378
L97599 79350
L97599 79406
" />
<path d="M98640 79715
L98302 79715
" />
<path d="M98471 79715
L98471 79125
L98415 79209
L98359 79266
L98302 79294
" />
<path d="M99315 79097
L98809 79856
" />
<path d="M99821 79715
L99483 79715
" />
<path d="M99652 79715
L99652 79125
L99596 79209
L99540 79266
L99483 79294
" />
</g>
<g style="fill:#000000; fill-opacity:0.0; 
stroke:#000000; stroke-width:39.3701; stroke-opacity:1; 
stroke-linecap:round; stroke-linejoin:round;">
</g>
<g style="fill:#000000; fill-opacity:0.0; 
stroke:#000000; stroke-width:59.0551; stroke-opacity:1; 
stroke-linecap:round; stroke-linejoin:round;">
<path d="M62755 76141
L105275 76141
" />
</g>
<g style="fill:#000000; fill-opacity:0.0; 
stroke:#000000; stroke-width:39.3701; stroke-opacity:1; 
stroke-linecap:round; stroke-linejoin:round;">
</g>
<g style="fill:#000000; fill-opacity:0.0; 
stroke:#000000; stroke-width:157.48; stroke-opacity:1; 
stroke-linecap:round; stroke-linejoin:round;">
<text x="63149.6" y="77244.1"
textLength="3701.14" font-size="1049.87" lengthAdjust="spacingAndGlyphs"
text-anchor="start" opacity="0">Title: </text>
<path d="M63430 76419
L63880 76419
" />
<path d="M63556 77206
L63655 76419
" />
<path d="M64044 77206
L64109 76681
" />
<path d="M64142 76419
L64100 76456
L64133 76494
L64175 76456
L64142 76419
L64133 76494
" />
<path d="M64372 76681
L64672 76681
" />
<path d="M64517 76419
L64433 77094
L64461 77169
L64531 77206
L64606 77206
" />
<path d="M64981 77206
L64911 77169
L64883 77094
L64967 76419
" />
<path d="M65586 77169
L65506 77206
L65356 77206
L65286 77169
L65257 77094
L65295 76794
L65342 76719
L65422 76681
L65571 76681
L65642 76719
L65670 76794
L65661 76869
L65276 76944
" />
<path d="M65965 77131
L65998 77169
L65956 77206
L65923 77169
L65965 77131
L65956 77206
" />
<path d="M66017 76719
L66050 76756
L66007 76794
L65975 76756
L66017 76719
L66007 76794
" />
</g>
<g style="fill:#000000; fill-opacity:0.0; 
stroke:#000000; stroke-width:39.3701; stroke-opacity:1; 
stroke-linecap:round; stroke-linejoin:round;">
</g>
<g style="fill:#000000; fill-opacity:0.0; 
stroke:#000000; stroke-width:59.0551; stroke-opacity:1; 
stroke-linecap:round; stroke-linejoin:round;">
<text x="63149.6" y="75728.3"
textLength="23433.1" font-size="787.402" lengthAdjust="spacingAndGlyphs"
text-anchor="start" opacity="0">File: thermocjromic clock resistors panel.kicad_pcb</text>
<path d="M63516 75390
L63319 75390
" />
<path d="M63319 75700
L63319 75109
L63600 75109
" />
<path d="M63825 75700
L63825 75306
" />
<path d="M63825 75109
L63797 75137
L63825 75165
L63854 75137
L63825 75109
L63825 75165
" />
<path d="M64191 75700
L64135 75672
L64107 75615
L64107 75109
" />
<path d="M64641 75672
L64585 75700
L64472 75700
L64416 75672
L64388 75615
L64388 75390
L64416 75334
L64472 75306
L64585 75306
L64641 75334
L64669 75390
L64669 75447
L64388 75503
" />
<path d="M64922 75643
L64950 75672
L64922 75700
L64894 75672
L64922 75643
L64922 75700
" />
<path d="M64922 75334
L64950 75362
L64922 75390
L64894 75362
L64922 75334
L64922 75390
" />
<path d="M65569 75306
L65794 75306
" />
<path d="M65653 75109
L65653 75615
L65681 75672
L65738 75700
L65794 75700
" />
<path d="M65991 75700
L65991 75109
" />
<path d="M66244 75700
L66244 75390
L66216 75334
L66160 75306
L66075 75306
L66019 75334
L65991 75362
" />
<path d="M66750 75672
L66694 75700
L66581 75700
L66525 75672
L66497 75615
L66497 75390
L66525 75334
L66581 75306
L66694 75306
L66750 75334
L66778 75390
L66778 75447
L66497 75503
" />
<path d="M67031 75700
L67031 75306
" />
<path d="M67031 75419
L67059 75362
L67088 75334
L67144 75306
L67200 75306
" />
<path d="M67397 75700
L67397 75306
" />
<path d="M67397 75362
L67425 75334
L67481 75306
L67566 75306
L67622 75334
L67650 75390
L67650 75700
" />
<path d="M67650 75390
L67678 75334
L67734 75306
L67819 75306
L67875 75334
L67903 75390
L67903 75700
" />
<path d="M68269 75700
L68212 75672
L68184 75643
L68156 75587
L68156 75419
L68184 75362
L68212 75334
L68269 75306
L68353 75306
L68409 75334
L68437 75362
L68465 75419
L68465 75587
L68437 75643
L68409 75672
L68353 75700
L68269 75700
" />
<path d="M68972 75672
L68915 75700
L68803 75700
L68747 75672
L68719 75643
L68690 75587
L68690 75419
L68719 75362
L68747 75334
L68803 75306
L68915 75306
L68972 75334
" />
<path d="M69225 75306
L69225 75812
L69197 75868
L69140 75897
L69112 75897
" />
<path d="M69225 75109
L69197 75137
L69225 75165
L69253 75137
L69225 75109
L69225 75165
" />
<path d="M69506 75700
L69506 75306
" />
<path d="M69506 75419
L69534 75362
L69562 75334
L69618 75306
L69675 75306
" />
<path d="M69956 75700
L69900 75672
L69872 75643
L69843 75587
L69843 75419
L69872 75362
L69900 75334
L69956 75306
L70040 75306
L70097 75334
L70125 75362
L70153 75419
L70153 75587
L70125 75643
L70097 75672
L70040 75700
L69956 75700
" />
<path d="M70406 75700
L70406 75306
" />
<path d="M70406 75362
L70434 75334
L70490 75306
L70575 75306
L70631 75334
L70659 75390
L70659 75700
" />
<path d="M70659 75390
L70687 75334
L70743 75306
L70828 75306
L70884 75334
L70912 75390
L70912 75700
" />
<path d="M71193 75700
L71193 75306
" />
<path d="M71193 75109
L71165 75137
L71193 75165
L71221 75137
L71193 75109
L71193 75165
" />
<path d="M71728 75672
L71671 75700
L71559 75700
L71503 75672
L71474 75643
L71446 75587
L71446 75419
L71474 75362
L71503 75334
L71559 75306
L71671 75306
L71728 75334
" />
<path d="M72684 75672
L72627 75700
L72515 75700
L72459 75672
L72431 75643
L72402 75587
L72402 75419
L72431 75362
L72459 75334
L72515 75306
L72627 75306
L72684 75334
" />
<path d="M73021 75700
L72965 75672
L72937 75615
L72937 75109
" />
<path d="M73330 75700
L73274 75672
L73246 75643
L73218 75587
L73218 75419
L73246 75362
L73274 75334
L73330 75306
L73415 75306
L73471 75334
L73499 75362
L73527 75419
L73527 75587
L73499 75643
L73471 75672
L73415 75700
L73330 75700
" />
<path d="M74034 75672
L73977 75700
L73865 75700
L73809 75672
L73780 75643
L73752 75587
L73752 75419
L73780 75362
L73809 75334
L73865 75306
L73977 75306
L74034 75334
" />
<path d="M74287 75700
L74287 75109
" />
<path d="M74343 75475
L74512 75700
" />
<path d="M74512 75306
L74287 75531
" />
<path d="M75215 75700
L75215 75306
" />
<path d="M75215 75419
L75243 75362
L75271 75334
L75327 75306
L75383 75306
" />
<path d="M75805 75672
L75749 75700
L75636 75700
L75580 75672
L75552 75615
L75552 75390
L75580 75334
L75636 75306
L75749 75306
L75805 75334
L75833 75390
L75833 75447
L75552 75503
" />
<path d="M76058 75672
L76115 75700
L76227 75700
L76283 75672
L76311 75615
L76311 75587
L76283 75531
L76227 75503
L76143 75503
L76086 75475
L76058 75419
L76058 75390
L76086 75334
L76143 75306
L76227 75306
L76283 75334
" />
<path d="M76564 75700
L76564 75306
" />
<path d="M76564 75109
L76536 75137
L76564 75165
L76593 75137
L76564 75109
L76564 75165
" />
<path d="M76818 75672
L76874 75700
L76986 75700
L77043 75672
L77071 75615
L77071 75587
L77043 75531
L76986 75503
L76902 75503
L76846 75475
L76818 75419
L76818 75390
L76846 75334
L76902 75306
L76986 75306
L77043 75334
" />
<path d="M77239 75306
L77464 75306
" />
<path d="M77324 75109
L77324 75615
L77352 75672
L77408 75700
L77464 75700
" />
<path d="M77746 75700
L77689 75672
L77661 75643
L77633 75587
L77633 75419
L77661 75362
L77689 75334
L77746 75306
L77830 75306
L77886 75334
L77914 75362
L77942 75419
L77942 75587
L77914 75643
L77886 75672
L77830 75700
L77746 75700
" />
<path d="M78196 75700
L78196 75306
" />
<path d="M78196 75419
L78224 75362
L78252 75334
L78308 75306
L78364 75306
" />
<path d="M78533 75672
L78589 75700
L78702 75700
L78758 75672
L78786 75615
L78786 75587
L78758 75531
L78702 75503
L78617 75503
L78561 75475
L78533 75419
L78533 75390
L78561 75334
L78617 75306
L78702 75306
L78758 75334
" />
<path d="M79489 75306
L79489 75897
" />
<path d="M79489 75334
L79545 75306
L79658 75306
L79714 75334
L79742 75362
L79770 75419
L79770 75587
L79742 75643
L79714 75672
L79658 75700
L79545 75700
L79489 75672
" />
<path d="M80276 75700
L80276 75390
L80248 75334
L80192 75306
L80080 75306
L80023 75334
" />
<path d="M80276 75672
L80220 75700
L80080 75700
L80023 75672
L79995 75615
L79995 75559
L80023 75503
L80080 75475
L80220 75475
L80276 75447
" />
<path d="M80558 75306
L80558 75700
" />
<path d="M80558 75362
L80586 75334
L80642 75306
L80726 75306
L80783 75334
L80811 75390
L80811 75700
" />
<path d="M81317 75672
L81261 75700
L81148 75700
L81092 75672
L81064 75615
L81064 75390
L81092 75334
L81148 75306
L81261 75306
L81317 75334
L81345 75390
L81345 75447
L81064 75503
" />
<path d="M81683 75700
L81626 75672
L81598 75615
L81598 75109
" />
<path d="M81908 75643
L81936 75672
L81908 75700
L81879 75672
L81908 75643
L81908 75700
" />
<path d="M82189 75700
L82189 75109
" />
<path d="M82245 75475
L82414 75700
" />
<path d="M82414 75306
L82189 75531
" />
<path d="M82667 75700
L82667 75306
" />
<path d="M82667 75109
L82639 75137
L82667 75165
L82695 75137
L82667 75109
L82667 75165
" />
<path d="M83201 75672
L83145 75700
L83032 75700
L82976 75672
L82948 75643
L82920 75587
L82920 75419
L82948 75362
L82976 75334
L83032 75306
L83145 75306
L83201 75334
" />
<path d="M83707 75700
L83707 75390
L83679 75334
L83623 75306
L83510 75306
L83454 75334
" />
<path d="M83707 75672
L83651 75700
L83510 75700
L83454 75672
L83426 75615
L83426 75559
L83454 75503
L83510 75475
L83651 75475
L83707 75447
" />
<path d="M84242 75700
L84242 75109
" />
<path d="M84242 75672
L84185 75700
L84073 75700
L84017 75672
L83989 75643
L83960 75587
L83960 75419
L83989 75362
L84017 75334
L84073 75306
L84185 75306
L84242 75334
" />
<path d="M84382 75756
L84832 75756
" />
<path d="M84973 75306
L84973 75897
" />
<path d="M84973 75334
L85029 75306
L85142 75306
L85198 75334
L85226 75362
L85254 75419
L85254 75587
L85226 75643
L85198 75672
L85142 75700
L85029 75700
L84973 75672
" />
<path d="M85760 75672
L85704 75700
L85591 75700
L85535 75672
L85507 75643
L85479 75587
L85479 75419
L85507 75362
L85535 75334
L85591 75306
L85704 75306
L85760 75334
" />
<path d="M86013 75700
L86013 75109
" />
<path d="M86013 75334
L86070 75306
L86182 75306
L86238 75334
L86266 75362
L86294 75419
L86294 75587
L86266 75643
L86238 75672
L86182 75700
L86070 75700
L86013 75672
" />
</g>
<g style="fill:#000000; fill-opacity:0.0; 
stroke:#000000; stroke-width:39.3701; stroke-opacity:1; 
stroke-linecap:round; stroke-linejoin:round;">
</g>
<g style="fill:#000000; fill-opacity:0.0; 
stroke:#000000; stroke-width:59.0551; stroke-opacity:1; 
stroke-linecap:round; stroke-linejoin:round;">
<path d="M62755 73779
L105275 73779
" />
</g>
<g style="fill:#000000; fill-opacity:0.0; 
stroke:#000000; stroke-width:39.3701; stroke-opacity:1; 
stroke-linecap:round; stroke-linejoin:round;">
</g>
<g style="fill:#000000; fill-opacity:0.0; 
stroke:#000000; stroke-width:59.0551; stroke-opacity:1; 
stroke-linecap:round; stroke-linejoin:round;">
<text x="63149.6" y="74665.4"
textLength="3236.78" font-size="787.402" lengthAdjust="spacingAndGlyphs"
text-anchor="start" opacity="0">Sheet: </text>
<path d="M63291 74609
L63375 74637
L63516 74637
L63572 74609
L63600 74580
L63629 74524
L63629 74468
L63600 74412
L63572 74384
L63516 74356
L63404 74327
L63347 74299
L63319 74271
L63291 74215
L63291 74159
L63319 74102
L63347 74074
L63404 74046
L63544 74046
L63629 74074
" />
<path d="M63882 74637
L63882 74046
" />
<path d="M64135 74637
L64135 74327
L64107 74271
L64050 74243
L63966 74243
L63910 74271
L63882 74299
" />
<path d="M64641 74609
L64585 74637
L64472 74637
L64416 74609
L64388 74552
L64388 74327
L64416 74271
L64472 74243
L64585 74243
L64641 74271
L64669 74327
L64669 74384
L64388 74440
" />
<path d="M65147 74609
L65091 74637
L64978 74637
L64922 74609
L64894 74552
L64894 74327
L64922 74271
L64978 74243
L65091 74243
L65147 74271
L65175 74327
L65175 74384
L64894 74440
" />
<path d="M65344 74243
L65569 74243
" />
<path d="M65428 74046
L65428 74552
L65456 74609
L65513 74637
L65569 74637
" />
<path d="M65766 74580
L65794 74609
L65766 74637
L65738 74609
L65766 74580
L65766 74637
" />
<path d="M65766 74271
L65794 74299
L65766 74327
L65738 74299
L65766 74271
L65766 74327
" />
</g>
<g style="fill:#000000; fill-opacity:0.0; 
stroke:#000000; stroke-width:39.3701; stroke-opacity:1; 
stroke-linecap:round; stroke-linejoin:round;">
</g>
<g style="fill:#000000; fill-opacity:0.0; 
stroke:#000000; stroke-width:59.0551; stroke-opacity:1; 
stroke-linecap:round; stroke-linejoin:round;">
<path d="M70629 77716
L70629 78897
" />
</g>
<g style="fill:#000000; fill-opacity:0.0; 
stroke:#000000; stroke-width:39.3701; stroke-opacity:1; 
stroke-linecap:round; stroke-linejoin:round;">
</g>
<g style="fill:#000000; fill-opacity:0.0; 
stroke:#000000; stroke-width:59.0551; stroke-opacity:1; 
stroke-linecap:round; stroke-linejoin:round;">
<path d="M95826 77716
L95826 80275
" />
</g>
<g style="fill:#000000; fill-opacity:0.0; 
stroke:#000000; stroke-width:39.3701; stroke-opacity:1; 
stroke-linecap:round; stroke-linejoin:round;">
<rect x="48933.1" y="64944.7" width="12683.3" height="13333.3" rx="0" />
</g>
<g style="fill:#848484; fill-opacity:0.0; 
stroke:#848484; stroke-width:39.3701; stroke-opacity:1; 
stroke-linecap:round; stroke-linejoin:round;">
<path d="M40174 52984
L40174 55346
" />
<path d="M40425 55346
L40174 55346
" />
<path d="M40425 52984
L40425 55346
" />
<path d="M40174 50267
L40174 51984
" />
<path d="M40425 50267
L40174 50267
" />
<path d="M40425 50267
L40425 51984
" />
<path d="M41174 52984
L41174 55346
" />
<path d="M41425 55346
L41174 55346
" />
<path d="M41425 52984
L41425 55346
" />
<path d="M41174 50267
L41174 51984
" />
<path d="M41425 50267
L41174 50267
" />
<path d="M41425 50267
L41425 51984
" />
<path d="M42174 52984
L42174 55346
" />
<path d="M42425 55346
L42174 55346
" />
<path d="M42425 52984
L42425 55346
" />
<path d="M42174 50267
L42174 51984
" />
<path d="M42425 50267
L42174 50267
" />
<path d="M42425 50267
L42425 51984
" />
<path d="M43174 52984
L43174 55346
" />
<path d="M43425 55346
L43174 55346
" />
<path d="M43425 52984
L43425 55346
" />
<path d="M43174 50267
L43174 51984
" />
<path d="M43425 50267
L43174 50267
" />
<path d="M43425 50267
L43425 51984
" />
<path d="M44174 52984
L44174 55346
" />
<path d="M44425 55346
L44174 55346
" />
<path d="M44425 52984
L44425 55346
" />
<path d="M44174 50267
L44174 51984
" />
<path d="M44425 50267
L44174 50267
" />
<path d="M44425 50267
L44425 51984
" />
<path d="M45174 52984
L45174 55346
" />
<path d="M45425 55346
L45174 55346
" />
<path d="M45425 52984
L45425 55346
" />
<path d="M45174 50267
L45174 51984
" />
<path d="M45425 50267
L45174 50267
" />
<path d="M45425 50267
L45425 51984
" />
<path d="M46174 52984
L46174 55346
" />
<path d="M46425 55346
L46174 55346
" />
<path d="M46425 52984
L46425 55346
" />
<path d="M46174 50267
L46174 51984
" />
<path d="M46425 50267
L46174 50267
" />
<path d="M46425 50267
L46425 51984
" />
<path d="M47174 52984
L47174 55346
" />
<path d="M47425 55346
L47174 55346
" />
<path d="M47425 52984
L47425 55346
" />
<path d="M47174 50267
L47174 51984
" />
<path d="M47425 50267
L47174 50267
" />
<path d="M47425 50267
L47425 51984
" />
<path d="M48174 52984
L48174 55346
" />
<path d="M48425 55346
L48174 55346
" />
<path d="M48425 52984
L48425 55346
" />
<path d="M48174 50267
L48174 51984
" />
<path d="M48425 50267
L48174 50267
" />
<path d="M48425 50267
L48425 51984
" />
<path d="M49174 52984
L49174 55346
" />
<path d="M49425 55346
L49174 55346
" />
<path d="M49425 52984
L49425 55346
" />
<path d="M49174 50267
L49174 51984
" />
<path d="M49425 50267
L49174 50267
" />
<path d="M49425 50267
L49425 51984
" />
<path d="M50174 52984
L50174 55346
" />
<path d="M50425 55346
L50174 55346
" />
<path d="M50425 52984
L50425 55346
" />
<path d="M50174 50267
L50174 51984
" />
<path d="M50425 50267
L50174 50267
" />
<path d="M50425 50267
L50425 51984
" />
<path d="M51174 52984
L51174 55346
" />
<path d="M51425 55346
L51174 55346
" />
<path d="M51425 52984
L51425 55346
" />
<path d="M51174 50267
L51174 51984
" />
<path d="M51425 50267
L51174 50267
" />
<path d="M51425 50267
L51425 51984
" />
<path d="M52174 52984
L52174 55346
" />
<path d="M52425 55346
L52174 55346
" />
<path d="M52425 52984
L52425 55346
" />
<path d="M52174 50267
L52174 51984
" />
<path d="M52425 50267
L52174 50267
" />
<path d="M52425 50267
L52425 51984
" />
<path d="M53174 52984
L53174 55346
" />
<path d="M53425 55346
L53174 55346
" />
<path d="M53425 52984
L53425 55346
" />
<path d="M53174 50267
L53174 51984
" />
<path d="M53425 50267
L53174 50267
" />
<path d="M53425 50267
L53425 51984
" />
<path d="M54174 52984
L54174 55346
" />
<path d="M54425 55346
L54174 55346
" />
<path d="M54425 52984
L54425 55346
" />
<path d="M54174 50267
L54174 51984
" />
<path d="M54425 50267
L54174 50267
" />
<path d="M54425 50267
L54425 51984
" />
<path d="M54550 51984
L54800 52234
" />
<path d="M39800 51984
L54550 51984
" />
<path d="M39800 52984
L39800 51984
" />
<path d="M54800 52984
L39800 52984
" />
<path d="M54800 52234
L54800 52984
" />
<path d="M53663 45440
L53663 42959
" />
<path d="M54923 45440
L53663 45440
" />
<path d="M54923 42959
L54923 45440
" />
<path d="M53663 42959
L54923 42959
" />
<path d="M53663 41240
L53663 38759
" />
<path d="M54923 41240
L53663 41240
" />
<path d="M54923 38759
L54923 41240
" />
<path d="M53663 38759
L54923 38759
" />
<path d="M50753 45670
L53233 45670
" />
<path d="M50753 46929
L50753 45670
" />
<path d="M53233 46929
L50753 46929
" />
<path d="M53233 45670
L53233 46929
" />
<path d="M50753 41470
L53233 41470
" />
<path d="M50753 42729
L50753 41470
" />
<path d="M53233 42729
L50753 42729
" />
<path d="M53233 41470
L53233 42729
" />
<path d="M50753 37270
L53233 37270
" />
<path d="M50753 38529
L50753 37270
" />
<path d="M53233 38529
L50753 38529
" />
<path d="M53233 37270
L53233 38529
" />
<path d="M49063 45440
L49063 42959
" />
<path d="M50323 45440
L49063 45440
" />
<path d="M50323 42959
L50323 45440
" />
<path d="M49063 42959
L50323 42959
" />
<path d="M49063 41240
L49063 38759
" />
<path d="M50323 41240
L49063 41240
" />
<path d="M50323 38759
L50323 41240
" />
<path d="M49063 38759
L50323 38759
" />
<path d="M44363 45440
L44363 42959
" />
<path d="M45623 45440
L44363 45440
" />
<path d="M45623 42959
L45623 45440
" />
<path d="M44363 42959
L45623 42959
" />
<path d="M44363 41240
L44363 38759
" />
<path d="M45623 41240
L44363 41240
" />
<path d="M45623 38759
L45623 41240
" />
<path d="M44363 38759
L45623 38759
" />
<path d="M41453 45670
L43933 45670
" />
<path d="M41453 46929
L41453 45670
" />
<path d="M43933 46929
L41453 46929
" />
<path d="M43933 45670
L43933 46929
" />
<path d="M41453 41470
L43933 41470
" />
<path d="M41453 42729
L41453 41470
" />
<path d="M43933 42729
L41453 42729
" />
<path d="M43933 41470
L43933 42729
" />
<path d="M41453 37270
L43933 37270
" />
<path d="M41453 38529
L41453 37270
" />
<path d="M43933 38529
L41453 38529
" />
<path d="M43933 37270
L43933 38529
" />
<path d="M39763 45440
L39763 42959
" />
<path d="M41023 45440
L39763 45440
" />
<path d="M41023 42959
L41023 45440
" />
<path d="M39763 42959
L41023 42959
" />
<path d="M39763 41240
L39763 38759
" />
<path d="M41023 41240
L39763 41240
" />
<path d="M41023 38759
L41023 41240
" />
<path d="M39763 38759
L41023 38759
" />
<path d="M50770 33040
L50770 30559
" />
<path d="M52029 33040
L50770 33040
" />
<path d="M52029 30559
L52029 33040
" />
<path d="M50770 30559
L52029 30559
" />
<path d="M50770 28840
L50770 26359
" />
<path d="M52029 28840
L50770 28840
" />
<path d="M52029 26359
L52029 28840
" />
<path d="M50770 26359
L52029 26359
" />
<path d="M47859 33270
L50340 33270
" />
<path d="M47859 34529
L47859 33270
" />
<path d="M50340 34529
L47859 34529
" />
<path d="M50340 33270
L50340 34529
" />
<path d="M47859 29070
L50340 29070
" />
<path d="M47859 30329
L47859 29070
" />
<path d="M50340 30329
L47859 30329
" />
<path d="M50340 29070
L50340 30329
" />
<path d="M50340 26129
L47859 26129
" />
<path d="M50340 24870
L50340 26129
" />
<path d="M47859 24870
L50340 24870
" />
<path d="M47859 26129
L47859 24870
" />
<path d="M46170 33040
L46170 30559
" />
<path d="M47429 33040
L46170 33040
" />
<path d="M47429 30559
L47429 33040
" />
<path d="M46170 30559
L47429 30559
" />
<path d="M46170 28840
L46170 26359
" />
<path d="M47429 28840
L46170 28840
" />
<path d="M47429 26359
L47429 28840
" />
<path d="M46170 26359
L47429 26359
" />
<path d="M41470 33040
L41470 30559
" />
<path d="M42729 33040
L41470 33040
" />
<path d="M42729 30559
L42729 33040
" />
<path d="M41470 30559
L42729 30559
" />
<path d="M41470 28840
L41470 26359
" />
<path d="M42729 28840
L41470 28840
" />
<path d="M42729 26359
L42729 28840
" />
<path d="M41470 26359
L42729 26359
" />
<path d="M38559 33270
L41040 33270
" />
<path d="M38559 34529
L38559 33270
" />
<path d="M41040 34529
L38559 34529
" />
<path d="M41040 33270
L41040 34529
" />
<path d="M38559 29070
L41040 29070
" />
<path d="M38559 30329
L38559 29070
" />
<path d="M41040 30329
L38559 30329
" />
<path d="M41040 29070
L41040 30329
" />
<path d="M38559 24870
L41040 24870
" />
<path d="M38559 26129
L38559 24870
" />
<path d="M41040 26129
L38559 26129
" />
<path d="M41040 24870
L41040 26129
" />
<path d="M36870 33040
L36870 30559
" />
<path d="M38129 33040
L36870 33040
" />
<path d="M38129 30559
L38129 33040
" />
<path d="M36870 30559
L38129 30559
" />
<path d="M36870 28840
L36870 26359
" />
<path d="M38129 28840
L36870 28840
" />
<path d="M38129 26359
L38129 28840
" />
<path d="M36870 26359
L38129 26359
" />
<g >
</g>
<g >
</g>
<g >
</g>
<g >
</g>
<g >
</g>
<g >
</g>
<g >
</g>
<g >
</g>
<g >
</g>
<g >
</g>
<g >
</g>
<g >
</g>
<g >
</g>
<g >
</g>
<g >
</g>
<g >
</g>
<g >
</g>
<g >
</g>
<g >
</g>
<g >
</g>
<g >
</g>
<g >
</g>
<g >
</g>
<g >
</g>
<g >
</g>
<g >
</g>
<g >
</g>
<g >
</g>
<g >
</g>
</g>
<g style="fill:#848484; fill-opacity:0.0; 
stroke:#848484; stroke-width:39.3701; stroke-opacity:1; 
stroke-linecap:round; stroke-linejoin:round;">
</g>
<g style="fill:#848484; fill-opacity:0.0; 
stroke:#848484; stroke-width:59.0551; stroke-opacity:1; 
stroke-linecap:round; stroke-linejoin:round;">
<g transform="rotate(-90 39406.3 52620.1)">
<text x="39406.3" y="52816.9"
textLength="6714.47" font-size="524.934" lengthAdjust="spacingAndGlyphs"
text-anchor="middle" opacity="0">Conn_02x15_Odd_Even</text>
</g>
<path d="M39546 55629
L39565 55647
L39584 55704
L39584 55741
L39565 55797
L39528 55835
L39490 55854
L39415 55872
L39359 55872
L39284 55854
L39246 55835
L39209 55797
L39190 55741
L39190 55704
L39209 55647
L39228 55629
" />
<path d="M39584 55404
L39565 55441
L39546 55460
L39509 55479
L39396 55479
L39359 55460
L39340 55441
L39321 55404
L39321 55347
L39340 55310
L39359 55291
L39396 55272
L39509 55272
L39546 55291
L39565 55310
L39584 55347
L39584 55404
" />
<path d="M39321 55104
L39584 55104
" />
<path d="M39359 55104
L39340 55085
L39321 55047
L39321 54991
L39340 54954
L39378 54935
L39584 54935
" />
<path d="M39321 54747
L39584 54747
" />
<path d="M39359 54747
L39340 54729
L39321 54691
L39321 54635
L39340 54597
L39378 54579
L39584 54579
" />
<path d="M39621 54485
L39621 54185
" />
<path d="M39190 54016
L39190 53979
L39209 53941
L39228 53923
L39265 53904
L39340 53885
L39434 53885
L39509 53904
L39546 53923
L39565 53941
L39584 53979
L39584 54016
L39565 54054
L39546 54073
L39509 54091
L39434 54110
L39340 54110
L39265 54091
L39228 54073
L39209 54054
L39190 54016
" />
<path d="M39228 53735
L39209 53716
L39190 53679
L39190 53585
L39209 53548
L39228 53529
L39265 53510
L39303 53510
L39359 53529
L39584 53754
L39584 53510
" />
<path d="M39584 53379
L39321 53173
" />
<path d="M39321 53379
L39584 53173
" />
<path d="M39584 52816
L39584 53041
" />
<path d="M39584 52929
L39190 52929
L39246 52966
L39284 53004
L39303 53041
" />
<path d="M39190 52460
L39190 52648
L39378 52666
L39359 52648
L39340 52610
L39340 52516
L39359 52479
L39378 52460
L39415 52441
L39509 52441
L39546 52460
L39565 52479
L39584 52516
L39584 52610
L39565 52648
L39546 52666
" />
<path d="M39621 52366
L39621 52067
" />
<path d="M39190 51898
L39190 51823
L39209 51785
L39246 51748
L39321 51729
L39453 51729
L39528 51748
L39565 51785
L39584 51823
L39584 51898
L39565 51935
L39528 51973
L39453 51992
L39321 51992
L39246 51973
L39209 51935
L39190 51898
" />
<path d="M39584 51392
L39190 51392
" />
<path d="M39565 51392
L39584 51429
L39584 51504
L39565 51542
L39546 51560
L39509 51579
L39396 51579
L39359 51560
L39340 51542
L39321 51504
L39321 51429
L39340 51392
" />
<path d="M39584 51035
L39190 51035
" />
<path d="M39565 51035
L39584 51073
L39584 51148
L39565 51185
L39546 51204
L39509 51223
L39396 51223
L39359 51204
L39340 51185
L39321 51148
L39321 51073
L39340 51035
" />
<path d="M39621 50942
L39621 50642
" />
<path d="M39378 50548
L39378 50417
" />
<path d="M39584 50360
L39584 50548
L39190 50548
L39190 50360
" />
<path d="M39321 50229
L39584 50136
L39321 50042
" />
<path d="M39565 49742
L39584 49779
L39584 49854
L39565 49892
L39528 49911
L39378 49911
L39340 49892
L39321 49854
L39321 49779
L39340 49742
L39378 49723
L39415 49723
L39453 49911
" />
<path d="M39321 49554
L39584 49554
" />
<path d="M39359 49554
L39340 49536
L39321 49498
L39321 49442
L39340 49404
L39378 49386
L39584 49386
" />
<text x="47300" y="52681.1"
textLength="751.687" font-size="524.934" lengthAdjust="spacingAndGlyphs"
text-anchor="middle" opacity="0">J1</text>
<path d="M47168 52268
L47168 52549
L47150 52606
L47112 52643
L47056 52662
L47018 52662
" />
<path d="M47562 52662
L47337 52662
" />
<path d="M47449 52662
L47449 52268
L47412 52324
L47374 52362
L47337 52381
" />
<g transform="rotate(-90 53262.2 44200)">
<text x="53262.2" y="44396.9"
textLength="1220.38" font-size="524.934" lengthAdjust="spacingAndGlyphs"
text-anchor="middle" opacity="0">33R</text>
</g>
<path d="M53046 44715
L53046 44471
L53196 44603
L53196 44546
L53215 44509
L53234 44490
L53271 44471
L53365 44471
L53402 44490
L53421 44509
L53440 44546
L53440 44659
L53421 44696
L53402 44715
" />
<path d="M53046 44340
L53046 44096
L53196 44228
L53196 44171
L53215 44134
L53234 44115
L53271 44096
L53365 44096
L53402 44115
L53421 44134
L53440 44171
L53440 44284
L53421 44321
L53402 44340
" />
<path d="M53440 43703
L53252 43834
" />
<path d="M53440 43928
L53046 43928
L53046 43778
L53065 43740
L53084 43721
L53121 43703
L53177 43703
L53215 43721
L53234 43740
L53252 43778
L53252 43928
" />
<g transform="rotate(-90 54293.7 44200)">
<text x="54293.7" y="44396.9"
textLength="1220.38" font-size="524.934" lengthAdjust="spacingAndGlyphs"
text-anchor="middle" opacity="0">R31</text>
</g>
<path d="M54471 44453
L54284 44584
" />
<path d="M54471 44678
L54078 44678
L54078 44528
L54096 44490
L54115 44471
L54153 44453
L54209 44453
L54246 44471
L54265 44490
L54284 44528
L54284 44678
" />
<path d="M54078 44321
L54078 44078
L54228 44209
L54228 44153
L54246 44115
L54265 44096
L54303 44078
L54396 44078
L54434 44096
L54453 44115
L54471 44153
L54471 44265
L54453 44303
L54434 44321
" />
<path d="M54471 43703
L54471 43928
" />
<path d="M54471 43815
L54078 43815
L54134 43853
L54171 43890
L54190 43928
" />
<g transform="rotate(-90 53262.2 40000)">
<text x="53262.2" y="40196.9"
textLength="1220.38" font-size="524.934" lengthAdjust="spacingAndGlyphs"
text-anchor="middle" opacity="0">33R</text>
</g>
<path d="M53046 40515
L53046 40271
L53196 40403
L53196 40346
L53215 40309
L53234 40290
L53271 40271
L53365 40271
L53402 40290
L53421 40309
L53440 40346
L53440 40459
L53421 40496
L53402 40515
" />
<path d="M53046 40140
L53046 39896
L53196 40028
L53196 39971
L53215 39934
L53234 39915
L53271 39896
L53365 39896
L53402 39915
L53421 39934
L53440 39971
L53440 40084
L53421 40121
L53402 40140
" />
<path d="M53440 39503
L53252 39634
" />
<path d="M53440 39728
L53046 39728
L53046 39578
L53065 39540
L53084 39521
L53121 39503
L53177 39503
L53215 39521
L53234 39540
L53252 39578
L53252 39728
" />
<g transform="rotate(-90 54293.7 40000)">
<text x="54293.7" y="40196.9"
textLength="1220.38" font-size="524.934" lengthAdjust="spacingAndGlyphs"
text-anchor="middle" opacity="0">R30</text>
</g>
<path d="M54471 40253
L54284 40384
" />
<path d="M54471 40478
L54078 40478
L54078 40328
L54096 40290
L54115 40271
L54153 40253
L54209 40253
L54246 40271
L54265 40290
L54284 40328
L54284 40478
" />
<path d="M54078 40121
L54078 39878
L54228 40009
L54228 39953
L54246 39915
L54265 39896
L54303 39878
L54396 39878
L54434 39896
L54453 39915
L54471 39953
L54471 40065
L54453 40103
L54434 40121
" />
<path d="M54078 39634
L54078 39596
L54096 39559
L54115 39540
L54153 39521
L54228 39503
L54321 39503
L54396 39521
L54434 39540
L54453 39559
L54471 39596
L54471 39634
L54453 39671
L54434 39690
L54396 39709
L54321 39728
L54228 39728
L54153 39709
L54115 39690
L54096 39671
L54078 39634
" />
<text x="51993.7" y="45465.4"
textLength="1220.38" font-size="524.934" lengthAdjust="spacingAndGlyphs"
text-anchor="middle" opacity="0">33R</text>
<path d="M51478 45052
L51721 45052
L51590 45202
L51646 45202
L51684 45221
L51703 45240
L51721 45277
L51721 45371
L51703 45409
L51684 45427
L51646 45446
L51534 45446
L51496 45427
L51478 45409
" />
<path d="M51853 45052
L52096 45052
L51965 45202
L52021 45202
L52059 45221
L52078 45240
L52096 45277
L52096 45371
L52078 45409
L52059 45427
L52021 45446
L51909 45446
L51871 45427
L51853 45409
" />
<path d="M52490 45446
L52359 45259
" />
<path d="M52265 45446
L52265 45052
L52415 45052
L52453 45071
L52471 45090
L52490 45127
L52490 45184
L52471 45221
L52453 45240
L52415 45259
L52265 45259
" />
<text x="51993.7" y="46496.9"
textLength="1220.38" font-size="524.934" lengthAdjust="spacingAndGlyphs"
text-anchor="middle" opacity="0">R29</text>
<path d="M51740 46478
L51609 46290
" />
<path d="M51515 46478
L51515 46084
L51665 46084
L51703 46103
L51721 46121
L51740 46159
L51740 46215
L51721 46253
L51703 46271
L51665 46290
L51515 46290
" />
<path d="M51890 46121
L51909 46103
L51946 46084
L52040 46084
L52078 46103
L52096 46121
L52115 46159
L52115 46196
L52096 46253
L51871 46478
L52115 46478
" />
<path d="M52303 46478
L52378 46478
L52415 46459
L52434 46440
L52471 46384
L52490 46309
L52490 46159
L52471 46121
L52453 46103
L52415 46084
L52340 46084
L52303 46103
L52284 46121
L52265 46159
L52265 46253
L52284 46290
L52303 46309
L52340 46328
L52415 46328
L52453 46309
L52471 46290
L52490 46253
" />
<text x="51993.7" y="41265.4"
textLength="1220.38" font-size="524.934" lengthAdjust="spacingAndGlyphs"
text-anchor="middle" opacity="0">33R</text>
<path d="M51478 40852
L51721 40852
L51590 41002
L51646 41002
L51684 41021
L51703 41040
L51721 41077
L51721 41171
L51703 41209
L51684 41227
L51646 41246
L51534 41246
L51496 41227
L51478 41209
" />
<path d="M51853 40852
L52096 40852
L51965 41002
L52021 41002
L52059 41021
L52078 41040
L52096 41077
L52096 41171
L52078 41209
L52059 41227
L52021 41246
L51909 41246
L51871 41227
L51853 41209
" />
<path d="M52490 41246
L52359 41059
" />
<path d="M52265 41246
L52265 40852
L52415 40852
L52453 40871
L52471 40890
L52490 40927
L52490 40984
L52471 41021
L52453 41040
L52415 41059
L52265 41059
" />
<text x="51993.7" y="42296.9"
textLength="1220.38" font-size="524.934" lengthAdjust="spacingAndGlyphs"
text-anchor="middle" opacity="0">R28</text>
<path d="M51740 42278
L51609 42090
" />
<path d="M51515 42278
L51515 41884
L51665 41884
L51703 41903
L51721 41921
L51740 41959
L51740 42015
L51721 42053
L51703 42071
L51665 42090
L51515 42090
" />
<path d="M51890 41921
L51909 41903
L51946 41884
L52040 41884
L52078 41903
L52096 41921
L52115 41959
L52115 41996
L52096 42053
L51871 42278
L52115 42278
" />
<path d="M52340 42053
L52303 42034
L52284 42015
L52265 41978
L52265 41959
L52284 41921
L52303 41903
L52340 41884
L52415 41884
L52453 41903
L52471 41921
L52490 41959
L52490 41978
L52471 42015
L52453 42034
L52415 42053
L52340 42053
L52303 42071
L52284 42090
L52265 42128
L52265 42203
L52284 42240
L52303 42259
L52340 42278
L52415 42278
L52453 42259
L52471 42240
L52490 42203
L52490 42128
L52471 42090
L52453 42071
L52415 42053
" />
<text x="51993.7" y="37065.4"
textLength="1220.38" font-size="524.934" lengthAdjust="spacingAndGlyphs"
text-anchor="middle" opacity="0">33R</text>
<path d="M51478 36652
L51721 36652
L51590 36802
L51646 36802
L51684 36821
L51703 36840
L51721 36877
L51721 36971
L51703 37009
L51684 37027
L51646 37046
L51534 37046
L51496 37027
L51478 37009
" />
<path d="M51853 36652
L52096 36652
L51965 36802
L52021 36802
L52059 36821
L52078 36840
L52096 36877
L52096 36971
L52078 37009
L52059 37027
L52021 37046
L51909 37046
L51871 37027
L51853 37009
" />
<path d="M52490 37046
L52359 36859
" />
<path d="M52265 37046
L52265 36652
L52415 36652
L52453 36671
L52471 36690
L52490 36727
L52490 36784
L52471 36821
L52453 36840
L52415 36859
L52265 36859
" />
<text x="51993.7" y="38096.9"
textLength="1220.38" font-size="524.934" lengthAdjust="spacingAndGlyphs"
text-anchor="middle" opacity="0">R27</text>
<path d="M51740 38078
L51609 37890
" />
<path d="M51515 38078
L51515 37684
L51665 37684
L51703 37703
L51721 37721
L51740 37759
L51740 37815
L51721 37853
L51703 37871
L51665 37890
L51515 37890
" />
<path d="M51890 37721
L51909 37703
L51946 37684
L52040 37684
L52078 37703
L52096 37721
L52115 37759
L52115 37796
L52096 37853
L51871 38078
L52115 38078
" />
<path d="M52246 37684
L52509 37684
L52340 38078
" />
<g transform="rotate(-90 48662.2 44200)">
<text x="48662.2" y="44396.9"
textLength="1220.38" font-size="524.934" lengthAdjust="spacingAndGlyphs"
text-anchor="middle" opacity="0">33R</text>
</g>
<path d="M48446 44715
L48446 44471
L48596 44603
L48596 44546
L48615 44509
L48634 44490
L48671 44471
L48765 44471
L48802 44490
L48821 44509
L48840 44546
L48840 44659
L48821 44696
L48802 44715
" />
<path d="M48446 44340
L48446 44096
L48596 44228
L48596 44171
L48615 44134
L48634 44115
L48671 44096
L48765 44096
L48802 44115
L48821 44134
L48840 44171
L48840 44284
L48821 44321
L48802 44340
" />
<path d="M48840 43703
L48652 43834
" />
<path d="M48840 43928
L48446 43928
L48446 43778
L48465 43740
L48484 43721
L48521 43703
L48577 43703
L48615 43721
L48634 43740
L48652 43778
L48652 43928
" />
<g transform="rotate(-90 49693.7 44200)">
<text x="49693.7" y="44396.9"
textLength="1220.38" font-size="524.934" lengthAdjust="spacingAndGlyphs"
text-anchor="middle" opacity="0">R26</text>
</g>
<path d="M49871 44453
L49684 44584
" />
<path d="M49871 44678
L49478 44678
L49478 44528
L49496 44490
L49515 44471
L49553 44453
L49609 44453
L49646 44471
L49665 44490
L49684 44528
L49684 44678
" />
<path d="M49515 44303
L49496 44284
L49478 44246
L49478 44153
L49496 44115
L49515 44096
L49553 44078
L49590 44078
L49646 44096
L49871 44321
L49871 44078
" />
<path d="M49478 43740
L49478 43815
L49496 43853
L49515 43871
L49571 43909
L49646 43928
L49796 43928
L49834 43909
L49853 43890
L49871 43853
L49871 43778
L49853 43740
L49834 43721
L49796 43703
L49703 43703
L49665 43721
L49646 43740
L49628 43778
L49628 43853
L49646 43890
L49665 43909
L49703 43928
" />
<g transform="rotate(-90 48662.2 40000)">
<text x="48662.2" y="40196.9"
textLength="1220.38" font-size="524.934" lengthAdjust="spacingAndGlyphs"
text-anchor="middle" opacity="0">33R</text>
</g>
<path d="M48446 40515
L48446 40271
L48596 40403
L48596 40346
L48615 40309
L48634 40290
L48671 40271
L48765 40271
L48802 40290
L48821 40309
L48840 40346
L48840 40459
L48821 40496
L48802 40515
" />
<path d="M48446 40140
L48446 39896
L48596 40028
L48596 39971
L48615 39934
L48634 39915
L48671 39896
L48765 39896
L48802 39915
L48821 39934
L48840 39971
L48840 40084
L48821 40121
L48802 40140
" />
<path d="M48840 39503
L48652 39634
" />
<path d="M48840 39728
L48446 39728
L48446 39578
L48465 39540
L48484 39521
L48521 39503
L48577 39503
L48615 39521
L48634 39540
L48652 39578
L48652 39728
" />
<g transform="rotate(-90 49693.7 40000)">
<text x="49693.7" y="40196.9"
textLength="1220.38" font-size="524.934" lengthAdjust="spacingAndGlyphs"
text-anchor="middle" opacity="0">R25</text>
</g>
<path d="M49871 40253
L49684 40384
" />
<path d="M49871 40478
L49478 40478
L49478 40328
L49496 40290
L49515 40271
L49553 40253
L49609 40253
L49646 40271
L49665 40290
L49684 40328
L49684 40478
" />
<path d="M49515 40103
L49496 40084
L49478 40046
L49478 39953
L49496 39915
L49515 39896
L49553 39878
L49590 39878
L49646 39896
L49871 40121
L49871 39878
" />
<path d="M49478 39521
L49478 39709
L49665 39728
L49646 39709
L49628 39671
L49628 39578
L49646 39540
L49665 39521
L49703 39503
L49796 39503
L49834 39521
L49853 39540
L49871 39578
L49871 39671
L49853 39709
L49834 39728
" />
<g transform="rotate(-90 43962.2 44200)">
<text x="43962.2" y="44396.9"
textLength="1220.38" font-size="524.934" lengthAdjust="spacingAndGlyphs"
text-anchor="middle" opacity="0">33R</text>
</g>
<path d="M43746 44715
L43746 44471
L43896 44603
L43896 44546
L43915 44509
L43934 44490
L43971 44471
L44065 44471
L44102 44490
L44121 44509
L44140 44546
L44140 44659
L44121 44696
L44102 44715
" />
<path d="M43746 44340
L43746 44096
L43896 44228
L43896 44171
L43915 44134
L43934 44115
L43971 44096
L44065 44096
L44102 44115
L44121 44134
L44140 44171
L44140 44284
L44121 44321
L44102 44340
" />
<path d="M44140 43703
L43952 43834
" />
<path d="M44140 43928
L43746 43928
L43746 43778
L43765 43740
L43784 43721
L43821 43703
L43877 43703
L43915 43721
L43934 43740
L43952 43778
L43952 43928
" />
<g transform="rotate(-90 44993.7 44200)">
<text x="44993.7" y="44396.9"
textLength="1220.38" font-size="524.934" lengthAdjust="spacingAndGlyphs"
text-anchor="middle" opacity="0">R24</text>
</g>
<path d="M45171 44453
L44984 44584
" />
<path d="M45171 44678
L44778 44678
L44778 44528
L44796 44490
L44815 44471
L44853 44453
L44909 44453
L44946 44471
L44965 44490
L44984 44528
L44984 44678
" />
<path d="M44815 44303
L44796 44284
L44778 44246
L44778 44153
L44796 44115
L44815 44096
L44853 44078
L44890 44078
L44946 44096
L45171 44321
L45171 44078
" />
<path d="M44909 43740
L45171 43740
" />
<path d="M44759 43834
L45040 43928
L45040 43684
" />
<g transform="rotate(-90 43962.2 40000)">
<text x="43962.2" y="40196.9"
textLength="1220.38" font-size="524.934" lengthAdjust="spacingAndGlyphs"
text-anchor="middle" opacity="0">33R</text>
</g>
<path d="M43746 40515
L43746 40271
L43896 40403
L43896 40346
L43915 40309
L43934 40290
L43971 40271
L44065 40271
L44102 40290
L44121 40309
L44140 40346
L44140 40459
L44121 40496
L44102 40515
" />
<path d="M43746 40140
L43746 39896
L43896 40028
L43896 39971
L43915 39934
L43934 39915
L43971 39896
L44065 39896
L44102 39915
L44121 39934
L44140 39971
L44140 40084
L44121 40121
L44102 40140
" />
<path d="M44140 39503
L43952 39634
" />
<path d="M44140 39728
L43746 39728
L43746 39578
L43765 39540
L43784 39521
L43821 39503
L43877 39503
L43915 39521
L43934 39540
L43952 39578
L43952 39728
" />
<g transform="rotate(-90 44993.7 40000)">
<text x="44993.7" y="40196.9"
textLength="1220.38" font-size="524.934" lengthAdjust="spacingAndGlyphs"
text-anchor="middle" opacity="0">R23</text>
</g>
<path d="M45171 40253
L44984 40384
" />
<path d="M45171 40478
L44778 40478
L44778 40328
L44796 40290
L44815 40271
L44853 40253
L44909 40253
L44946 40271
L44965 40290
L44984 40328
L44984 40478
" />
<path d="M44815 40103
L44796 40084
L44778 40046
L44778 39953
L44796 39915
L44815 39896
L44853 39878
L44890 39878
L44946 39896
L45171 40121
L45171 39878
" />
<path d="M44778 39746
L44778 39503
L44928 39634
L44928 39578
L44946 39540
L44965 39521
L45003 39503
L45096 39503
L45134 39521
L45153 39540
L45171 39578
L45171 39690
L45153 39728
L45134 39746
" />
<text x="42693.7" y="45465.4"
textLength="1220.38" font-size="524.934" lengthAdjust="spacingAndGlyphs"
text-anchor="middle" opacity="0">33R</text>
<path d="M42178 45052
L42421 45052
L42290 45202
L42346 45202
L42384 45221
L42403 45240
L42421 45277
L42421 45371
L42403 45409
L42384 45427
L42346 45446
L42234 45446
L42196 45427
L42178 45409
" />
<path d="M42553 45052
L42796 45052
L42665 45202
L42721 45202
L42759 45221
L42778 45240
L42796 45277
L42796 45371
L42778 45409
L42759 45427
L42721 45446
L42609 45446
L42571 45427
L42553 45409
" />
<path d="M43190 45446
L43059 45259
" />
<path d="M42965 45446
L42965 45052
L43115 45052
L43153 45071
L43171 45090
L43190 45127
L43190 45184
L43171 45221
L43153 45240
L43115 45259
L42965 45259
" />
<text x="42693.7" y="46496.9"
textLength="1220.38" font-size="524.934" lengthAdjust="spacingAndGlyphs"
text-anchor="middle" opacity="0">R22</text>
<path d="M42440 46478
L42309 46290
" />
<path d="M42215 46478
L42215 46084
L42365 46084
L42403 46103
L42421 46121
L42440 46159
L42440 46215
L42421 46253
L42403 46271
L42365 46290
L42215 46290
" />
<path d="M42590 46121
L42609 46103
L42646 46084
L42740 46084
L42778 46103
L42796 46121
L42815 46159
L42815 46196
L42796 46253
L42571 46478
L42815 46478
" />
<path d="M42965 46121
L42984 46103
L43021 46084
L43115 46084
L43153 46103
L43171 46121
L43190 46159
L43190 46196
L43171 46253
L42946 46478
L43190 46478
" />
<text x="42693.7" y="41265.4"
textLength="1220.38" font-size="524.934" lengthAdjust="spacingAndGlyphs"
text-anchor="middle" opacity="0">33R</text>
<path d="M42178 40852
L42421 40852
L42290 41002
L42346 41002
L42384 41021
L42403 41040
L42421 41077
L42421 41171
L42403 41209
L42384 41227
L42346 41246
L42234 41246
L42196 41227
L42178 41209
" />
<path d="M42553 40852
L42796 40852
L42665 41002
L42721 41002
L42759 41021
L42778 41040
L42796 41077
L42796 41171
L42778 41209
L42759 41227
L42721 41246
L42609 41246
L42571 41227
L42553 41209
" />
<path d="M43190 41246
L43059 41059
" />
<path d="M42965 41246
L42965 40852
L43115 40852
L43153 40871
L43171 40890
L43190 40927
L43190 40984
L43171 41021
L43153 41040
L43115 41059
L42965 41059
" />
<text x="42693.7" y="42296.9"
textLength="1220.38" font-size="524.934" lengthAdjust="spacingAndGlyphs"
text-anchor="middle" opacity="0">R21</text>
<path d="M42440 42278
L42309 42090
" />
<path d="M42215 42278
L42215 41884
L42365 41884
L42403 41903
L42421 41921
L42440 41959
L42440 42015
L42421 42053
L42403 42071
L42365 42090
L42215 42090
" />
<path d="M42590 41921
L42609 41903
L42646 41884
L42740 41884
L42778 41903
L42796 41921
L42815 41959
L42815 41996
L42796 42053
L42571 42278
L42815 42278
" />
<path d="M43190 42278
L42965 42278
" />
<path d="M43078 42278
L43078 41884
L43040 41940
L43003 41978
L42965 41996
" />
<text x="42693.7" y="37065.4"
textLength="1220.38" font-size="524.934" lengthAdjust="spacingAndGlyphs"
text-anchor="middle" opacity="0">33R</text>
<path d="M42178 36652
L42421 36652
L42290 36802
L42346 36802
L42384 36821
L42403 36840
L42421 36877
L42421 36971
L42403 37009
L42384 37027
L42346 37046
L42234 37046
L42196 37027
L42178 37009
" />
<path d="M42553 36652
L42796 36652
L42665 36802
L42721 36802
L42759 36821
L42778 36840
L42796 36877
L42796 36971
L42778 37009
L42759 37027
L42721 37046
L42609 37046
L42571 37027
L42553 37009
" />
<path d="M43190 37046
L43059 36859
" />
<path d="M42965 37046
L42965 36652
L43115 36652
L43153 36671
L43171 36690
L43190 36727
L43190 36784
L43171 36821
L43153 36840
L43115 36859
L42965 36859
" />
<text x="42693.7" y="38096.9"
textLength="1220.38" font-size="524.934" lengthAdjust="spacingAndGlyphs"
text-anchor="middle" opacity="0">R20</text>
<path d="M42440 38078
L42309 37890
" />
<path d="M42215 38078
L42215 37684
L42365 37684
L42403 37703
L42421 37721
L42440 37759
L42440 37815
L42421 37853
L42403 37871
L42365 37890
L42215 37890
" />
<path d="M42590 37721
L42609 37703
L42646 37684
L42740 37684
L42778 37703
L42796 37721
L42815 37759
L42815 37796
L42796 37853
L42571 38078
L42815 38078
" />
<path d="M43059 37684
L43096 37684
L43134 37703
L43153 37721
L43171 37759
L43190 37834
L43190 37928
L43171 38003
L43153 38040
L43134 38059
L43096 38078
L43059 38078
L43021 38059
L43003 38040
L42984 38003
L42965 37928
L42965 37834
L42984 37759
L43003 37721
L43021 37703
L43059 37684
" />
<g transform="rotate(-90 39362.2 44200)">
<text x="39362.2" y="44396.9"
textLength="1220.38" font-size="524.934" lengthAdjust="spacingAndGlyphs"
text-anchor="middle" opacity="0">33R</text>
</g>
<path d="M39146 44715
L39146 44471
L39296 44603
L39296 44546
L39315 44509
L39334 44490
L39371 44471
L39465 44471
L39502 44490
L39521 44509
L39540 44546
L39540 44659
L39521 44696
L39502 44715
" />
<path d="M39146 44340
L39146 44096
L39296 44228
L39296 44171
L39315 44134
L39334 44115
L39371 44096
L39465 44096
L39502 44115
L39521 44134
L39540 44171
L39540 44284
L39521 44321
L39502 44340
" />
<path d="M39540 43703
L39352 43834
" />
<path d="M39540 43928
L39146 43928
L39146 43778
L39165 43740
L39184 43721
L39221 43703
L39277 43703
L39315 43721
L39334 43740
L39352 43778
L39352 43928
" />
<g transform="rotate(-90 40393.7 44200)">
<text x="40393.7" y="44396.9"
textLength="1220.38" font-size="524.934" lengthAdjust="spacingAndGlyphs"
text-anchor="middle" opacity="0">R19</text>
</g>
<path d="M40571 44453
L40384 44584
" />
<path d="M40571 44678
L40178 44678
L40178 44528
L40196 44490
L40215 44471
L40253 44453
L40309 44453
L40346 44471
L40365 44490
L40384 44528
L40384 44678
" />
<path d="M40571 44078
L40571 44303
" />
<path d="M40571 44190
L40178 44190
L40234 44228
L40271 44265
L40290 44303
" />
<path d="M40571 43890
L40571 43815
L40553 43778
L40534 43759
L40478 43721
L40403 43703
L40253 43703
L40215 43721
L40196 43740
L40178 43778
L40178 43853
L40196 43890
L40215 43909
L40253 43928
L40346 43928
L40384 43909
L40403 43890
L40421 43853
L40421 43778
L40403 43740
L40384 43721
L40346 43703
" />
<g transform="rotate(-90 39362.2 40000)">
<text x="39362.2" y="40196.9"
textLength="1220.38" font-size="524.934" lengthAdjust="spacingAndGlyphs"
text-anchor="middle" opacity="0">33R</text>
</g>
<path d="M39146 40515
L39146 40271
L39296 40403
L39296 40346
L39315 40309
L39334 40290
L39371 40271
L39465 40271
L39502 40290
L39521 40309
L39540 40346
L39540 40459
L39521 40496
L39502 40515
" />
<path d="M39146 40140
L39146 39896
L39296 40028
L39296 39971
L39315 39934
L39334 39915
L39371 39896
L39465 39896
L39502 39915
L39521 39934
L39540 39971
L39540 40084
L39521 40121
L39502 40140
" />
<path d="M39540 39503
L39352 39634
" />
<path d="M39540 39728
L39146 39728
L39146 39578
L39165 39540
L39184 39521
L39221 39503
L39277 39503
L39315 39521
L39334 39540
L39352 39578
L39352 39728
" />
<g transform="rotate(-90 40393.7 40000)">
<text x="40393.7" y="40196.9"
textLength="1220.38" font-size="524.934" lengthAdjust="spacingAndGlyphs"
text-anchor="middle" opacity="0">R18</text>
</g>
<path d="M40571 40253
L40384 40384
" />
<path d="M40571 40478
L40178 40478
L40178 40328
L40196 40290
L40215 40271
L40253 40253
L40309 40253
L40346 40271
L40365 40290
L40384 40328
L40384 40478
" />
<path d="M40571 39878
L40571 40103
" />
<path d="M40571 39990
L40178 39990
L40234 40028
L40271 40065
L40290 40103
" />
<path d="M40346 39653
L40328 39690
L40309 39709
L40271 39728
L40253 39728
L40215 39709
L40196 39690
L40178 39653
L40178 39578
L40196 39540
L40215 39521
L40253 39503
L40271 39503
L40309 39521
L40328 39540
L40346 39578
L40346 39653
L40365 39690
L40384 39709
L40421 39728
L40496 39728
L40534 39709
L40553 39690
L40571 39653
L40571 39578
L40553 39540
L40534 39521
L40496 39503
L40421 39503
L40384 39521
L40365 39540
L40346 39578
" />
<g transform="rotate(-90 50368.5 31800)">
<text x="50368.5" y="31996.9"
textLength="1220.38" font-size="524.934" lengthAdjust="spacingAndGlyphs"
text-anchor="middle" opacity="0">33R</text>
</g>
<path d="M50152 32315
L50152 32071
L50302 32203
L50302 32146
L50321 32109
L50340 32090
L50377 32071
L50471 32071
L50509 32090
L50527 32109
L50546 32146
L50546 32259
L50527 32296
L50509 32315
" />
<path d="M50152 31940
L50152 31696
L50302 31828
L50302 31771
L50321 31734
L50340 31715
L50377 31696
L50471 31696
L50509 31715
L50527 31734
L50546 31771
L50546 31884
L50527 31921
L50509 31940
" />
<path d="M50546 31303
L50359 31434
" />
<path d="M50546 31528
L50152 31528
L50152 31378
L50171 31340
L50190 31321
L50227 31303
L50284 31303
L50321 31321
L50340 31340
L50359 31378
L50359 31528
" />
<g transform="rotate(-90 51400 31800)">
<text x="51400" y="31996.9"
textLength="1220.38" font-size="524.934" lengthAdjust="spacingAndGlyphs"
text-anchor="middle" opacity="0">R16</text>
</g>
<path d="M51578 32053
L51390 32184
" />
<path d="M51578 32278
L51184 32278
L51184 32128
L51203 32090
L51221 32071
L51259 32053
L51315 32053
L51353 32071
L51371 32090
L51390 32128
L51390 32278
" />
<path d="M51578 31678
L51578 31903
" />
<path d="M51578 31790
L51184 31790
L51240 31828
L51278 31865
L51296 31903
" />
<path d="M51184 31340
L51184 31415
L51203 31453
L51221 31471
L51278 31509
L51353 31528
L51503 31528
L51540 31509
L51559 31490
L51578 31453
L51578 31378
L51559 31340
L51540 31321
L51503 31303
L51409 31303
L51371 31321
L51353 31340
L51334 31378
L51334 31453
L51353 31490
L51371 31509
L51409 31528
" />
<g transform="rotate(-90 50368.5 27600)">
<text x="50368.5" y="27796.9"
textLength="1220.38" font-size="524.934" lengthAdjust="spacingAndGlyphs"
text-anchor="middle" opacity="0">33R</text>
</g>
<path d="M50152 28115
L50152 27871
L50302 28003
L50302 27946
L50321 27909
L50340 27890
L50377 27871
L50471 27871
L50509 27890
L50527 27909
L50546 27946
L50546 28059
L50527 28096
L50509 28115
" />
<path d="M50152 27740
L50152 27496
L50302 27628
L50302 27571
L50321 27534
L50340 27515
L50377 27496
L50471 27496
L50509 27515
L50527 27534
L50546 27571
L50546 27684
L50527 27721
L50509 27740
" />
<path d="M50546 27103
L50359 27234
" />
<path d="M50546 27328
L50152 27328
L50152 27178
L50171 27140
L50190 27121
L50227 27103
L50284 27103
L50321 27121
L50340 27140
L50359 27178
L50359 27328
" />
<g transform="rotate(-90 51400 27600)">
<text x="51400" y="27796.9"
textLength="1220.38" font-size="524.934" lengthAdjust="spacingAndGlyphs"
text-anchor="middle" opacity="0">R15</text>
</g>
<path d="M51578 27853
L51390 27984
" />
<path d="M51578 28078
L51184 28078
L51184 27928
L51203 27890
L51221 27871
L51259 27853
L51315 27853
L51353 27871
L51371 27890
L51390 27928
L51390 28078
" />
<path d="M51578 27478
L51578 27703
" />
<path d="M51578 27590
L51184 27590
L51240 27628
L51278 27665
L51296 27703
" />
<path d="M51184 27121
L51184 27309
L51371 27328
L51353 27309
L51334 27271
L51334 27178
L51353 27140
L51371 27121
L51409 27103
L51503 27103
L51540 27121
L51559 27140
L51578 27178
L51578 27271
L51559 27309
L51540 27328
" />
<text x="49100" y="33065.4"
textLength="1220.38" font-size="524.934" lengthAdjust="spacingAndGlyphs"
text-anchor="middle" opacity="0">33R</text>
<path d="M48584 32652
L48828 32652
L48696 32802
L48753 32802
L48790 32821
L48809 32840
L48828 32877
L48828 32971
L48809 33009
L48790 33027
L48753 33046
L48640 33046
L48603 33027
L48584 33009
" />
<path d="M48959 32652
L49203 32652
L49071 32802
L49128 32802
L49165 32821
L49184 32840
L49203 32877
L49203 32971
L49184 33009
L49165 33027
L49128 33046
L49015 33046
L48978 33027
L48959 33009
" />
<path d="M49596 33046
L49465 32859
" />
<path d="M49371 33046
L49371 32652
L49521 32652
L49559 32671
L49578 32690
L49596 32727
L49596 32784
L49578 32821
L49559 32840
L49521 32859
L49371 32859
" />
<text x="49100" y="34096.9"
textLength="1220.38" font-size="524.934" lengthAdjust="spacingAndGlyphs"
text-anchor="middle" opacity="0">R14</text>
<path d="M48846 34078
L48715 33890
" />
<path d="M48621 34078
L48621 33684
L48771 33684
L48809 33703
L48828 33721
L48846 33759
L48846 33815
L48828 33853
L48809 33871
L48771 33890
L48621 33890
" />
<path d="M49221 34078
L48996 34078
" />
<path d="M49109 34078
L49109 33684
L49071 33740
L49034 33778
L48996 33796
" />
<path d="M49559 33815
L49559 34078
" />
<path d="M49465 33665
L49371 33946
L49615 33946
" />
<text x="49100" y="28865.4"
textLength="1220.38" font-size="524.934" lengthAdjust="spacingAndGlyphs"
text-anchor="middle" opacity="0">33R</text>
<path d="M48584 28452
L48828 28452
L48696 28602
L48753 28602
L48790 28621
L48809 28640
L48828 28677
L48828 28771
L48809 28809
L48790 28827
L48753 28846
L48640 28846
L48603 28827
L48584 28809
" />
<path d="M48959 28452
L49203 28452
L49071 28602
L49128 28602
L49165 28621
L49184 28640
L49203 28677
L49203 28771
L49184 28809
L49165 28827
L49128 28846
L49015 28846
L48978 28827
L48959 28809
" />
<path d="M49596 28846
L49465 28659
" />
<path d="M49371 28846
L49371 28452
L49521 28452
L49559 28471
L49578 28490
L49596 28527
L49596 28584
L49578 28621
L49559 28640
L49521 28659
L49371 28659
" />
<text x="49100" y="29896.9"
textLength="1220.38" font-size="524.934" lengthAdjust="spacingAndGlyphs"
text-anchor="middle" opacity="0">R13</text>
<path d="M48846 29878
L48715 29690
" />
<path d="M48621 29878
L48621 29484
L48771 29484
L48809 29503
L48828 29521
L48846 29559
L48846 29615
L48828 29653
L48809 29671
L48771 29690
L48621 29690
" />
<path d="M49221 29878
L48996 29878
" />
<path d="M49109 29878
L49109 29484
L49071 29540
L49034 29578
L48996 29596
" />
<path d="M49353 29484
L49596 29484
L49465 29634
L49521 29634
L49559 29653
L49578 29671
L49596 29709
L49596 29803
L49578 29840
L49559 29859
L49521 29878
L49409 29878
L49371 29859
L49353 29840
" />
<text x="49100" y="26728.3"
textLength="1220.38" font-size="524.934" lengthAdjust="spacingAndGlyphs"
text-anchor="middle" opacity="0">33R</text>
<path d="M48584 26315
L48828 26315
L48696 26465
L48753 26465
L48790 26484
L48809 26503
L48828 26540
L48828 26634
L48809 26672
L48790 26690
L48753 26709
L48640 26709
L48603 26690
L48584 26672
" />
<path d="M48959 26315
L49203 26315
L49071 26465
L49128 26465
L49165 26484
L49184 26503
L49203 26540
L49203 26634
L49184 26672
L49165 26690
L49128 26709
L49015 26709
L48978 26690
L48959 26672
" />
<path d="M49596 26709
L49465 26522
" />
<path d="M49371 26709
L49371 26315
L49521 26315
L49559 26334
L49578 26353
L49596 26390
L49596 26447
L49578 26484
L49559 26503
L49521 26522
L49371 26522
" />
<text x="49100" y="25696.9"
textLength="1220.38" font-size="524.934" lengthAdjust="spacingAndGlyphs"
text-anchor="middle" opacity="0">R12</text>
<path d="M48846 25678
L48715 25490
" />
<path d="M48621 25678
L48621 25284
L48771 25284
L48809 25303
L48828 25321
L48846 25359
L48846 25415
L48828 25453
L48809 25471
L48771 25490
L48621 25490
" />
<path d="M49221 25678
L48996 25678
" />
<path d="M49109 25678
L49109 25284
L49071 25340
L49034 25378
L48996 25396
" />
<path d="M49371 25321
L49390 25303
L49428 25284
L49521 25284
L49559 25303
L49578 25321
L49596 25359
L49596 25396
L49578 25453
L49353 25678
L49596 25678
" />
<g transform="rotate(-90 45768.5 31800)">
<text x="45768.5" y="31996.9"
textLength="1220.38" font-size="524.934" lengthAdjust="spacingAndGlyphs"
text-anchor="middle" opacity="0">33R</text>
</g>
<path d="M45552 32315
L45552 32071
L45702 32203
L45702 32146
L45721 32109
L45740 32090
L45777 32071
L45871 32071
L45909 32090
L45927 32109
L45946 32146
L45946 32259
L45927 32296
L45909 32315
" />
<path d="M45552 31940
L45552 31696
L45702 31828
L45702 31771
L45721 31734
L45740 31715
L45777 31696
L45871 31696
L45909 31715
L45927 31734
L45946 31771
L45946 31884
L45927 31921
L45909 31940
" />
<path d="M45946 31303
L45759 31434
" />
<path d="M45946 31528
L45552 31528
L45552 31378
L45571 31340
L45590 31321
L45627 31303
L45684 31303
L45721 31321
L45740 31340
L45759 31378
L45759 31528
" />
<g transform="rotate(-90 46800 31800)">
<text x="46800" y="31996.9"
textLength="1220.38" font-size="524.934" lengthAdjust="spacingAndGlyphs"
text-anchor="middle" opacity="0">R11</text>
</g>
<path d="M46978 32053
L46790 32184
" />
<path d="M46978 32278
L46584 32278
L46584 32128
L46603 32090
L46621 32071
L46659 32053
L46715 32053
L46753 32071
L46771 32090
L46790 32128
L46790 32278
" />
<path d="M46978 31678
L46978 31903
" />
<path d="M46978 31790
L46584 31790
L46640 31828
L46678 31865
L46696 31903
" />
<path d="M46978 31303
L46978 31528
" />
<path d="M46978 31415
L46584 31415
L46640 31453
L46678 31490
L46696 31528
" />
<g transform="rotate(-90 45768.5 27600)">
<text x="45768.5" y="27796.9"
textLength="1220.38" font-size="524.934" lengthAdjust="spacingAndGlyphs"
text-anchor="middle" opacity="0">33R</text>
</g>
<path d="M45552 28115
L45552 27871
L45702 28003
L45702 27946
L45721 27909
L45740 27890
L45777 27871
L45871 27871
L45909 27890
L45927 27909
L45946 27946
L45946 28059
L45927 28096
L45909 28115
" />
<path d="M45552 27740
L45552 27496
L45702 27628
L45702 27571
L45721 27534
L45740 27515
L45777 27496
L45871 27496
L45909 27515
L45927 27534
L45946 27571
L45946 27684
L45927 27721
L45909 27740
" />
<path d="M45946 27103
L45759 27234
" />
<path d="M45946 27328
L45552 27328
L45552 27178
L45571 27140
L45590 27121
L45627 27103
L45684 27103
L45721 27121
L45740 27140
L45759 27178
L45759 27328
" />
<g transform="rotate(-90 46800 27600)">
<text x="46800" y="27796.9"
textLength="1220.38" font-size="524.934" lengthAdjust="spacingAndGlyphs"
text-anchor="middle" opacity="0">R10</text>
</g>
<path d="M46978 27853
L46790 27984
" />
<path d="M46978 28078
L46584 28078
L46584 27928
L46603 27890
L46621 27871
L46659 27853
L46715 27853
L46753 27871
L46771 27890
L46790 27928
L46790 28078
" />
<path d="M46978 27478
L46978 27703
" />
<path d="M46978 27590
L46584 27590
L46640 27628
L46678 27665
L46696 27703
" />
<path d="M46584 27234
L46584 27196
L46603 27159
L46621 27140
L46659 27121
L46734 27103
L46828 27103
L46903 27121
L46940 27140
L46959 27159
L46978 27196
L46978 27234
L46959 27271
L46940 27290
L46903 27309
L46828 27328
L46734 27328
L46659 27309
L46621 27290
L46603 27271
L46584 27234
" />
<g transform="rotate(-90 41068.5 31800)">
<text x="41068.5" y="31996.9"
textLength="1220.38" font-size="524.934" lengthAdjust="spacingAndGlyphs"
text-anchor="middle" opacity="0">33R</text>
</g>
<path d="M40852 32315
L40852 32071
L41002 32203
L41002 32146
L41021 32109
L41040 32090
L41077 32071
L41171 32071
L41209 32090
L41227 32109
L41246 32146
L41246 32259
L41227 32296
L41209 32315
" />
<path d="M40852 31940
L40852 31696
L41002 31828
L41002 31771
L41021 31734
L41040 31715
L41077 31696
L41171 31696
L41209 31715
L41227 31734
L41246 31771
L41246 31884
L41227 31921
L41209 31940
" />
<path d="M41246 31303
L41059 31434
" />
<path d="M41246 31528
L40852 31528
L40852 31378
L40871 31340
L40890 31321
L40927 31303
L40984 31303
L41021 31321
L41040 31340
L41059 31378
L41059 31528
" />
<g transform="rotate(-90 42100 31800)">
<text x="42100" y="31996.9"
textLength="845.426" font-size="524.934" lengthAdjust="spacingAndGlyphs"
text-anchor="middle" opacity="0">R9</text>
</g>
<path d="M42278 31865
L42090 31996
" />
<path d="M42278 32090
L41884 32090
L41884 31940
L41903 31903
L41921 31884
L41959 31865
L42015 31865
L42053 31884
L42071 31903
L42090 31940
L42090 32090
" />
<path d="M42278 31678
L42278 31603
L42259 31565
L42240 31546
L42184 31509
L42109 31490
L41959 31490
L41921 31509
L41903 31528
L41884 31565
L41884 31640
L41903 31678
L41921 31696
L41959 31715
L42053 31715
L42090 31696
L42109 31678
L42128 31640
L42128 31565
L42109 31528
L42090 31509
L42053 31490
" />
<g transform="rotate(-90 41068.5 27600)">
<text x="41068.5" y="27796.9"
textLength="1220.38" font-size="524.934" lengthAdjust="spacingAndGlyphs"
text-anchor="middle" opacity="0">33R</text>
</g>
<path d="M40852 28115
L40852 27871
L41002 28003
L41002 27946
L41021 27909
L41040 27890
L41077 27871
L41171 27871
L41209 27890
L41227 27909
L41246 27946
L41246 28059
L41227 28096
L41209 28115
" />
<path d="M40852 27740
L40852 27496
L41002 27628
L41002 27571
L41021 27534
L41040 27515
L41077 27496
L41171 27496
L41209 27515
L41227 27534
L41246 27571
L41246 27684
L41227 27721
L41209 27740
" />
<path d="M41246 27103
L41059 27234
" />
<path d="M41246 27328
L40852 27328
L40852 27178
L40871 27140
L40890 27121
L40927 27103
L40984 27103
L41021 27121
L41040 27140
L41059 27178
L41059 27328
" />
<g transform="rotate(-90 42100 27600)">
<text x="42100" y="27796.9"
textLength="845.426" font-size="524.934" lengthAdjust="spacingAndGlyphs"
text-anchor="middle" opacity="0">R8</text>
</g>
<path d="M42278 27665
L42090 27796
" />
<path d="M42278 27890
L41884 27890
L41884 27740
L41903 27703
L41921 27684
L41959 27665
L42015 27665
L42053 27684
L42071 27703
L42090 27740
L42090 27890
" />
<path d="M42053 27440
L42034 27478
L42015 27496
L41978 27515
L41959 27515
L41921 27496
L41903 27478
L41884 27440
L41884 27365
L41903 27328
L41921 27309
L41959 27290
L41978 27290
L42015 27309
L42034 27328
L42053 27365
L42053 27440
L42071 27478
L42090 27496
L42128 27515
L42203 27515
L42240 27496
L42259 27478
L42278 27440
L42278 27365
L42259 27328
L42240 27309
L42203 27290
L42128 27290
L42090 27309
L42071 27328
L42053 27365
" />
<text x="39800" y="33065.4"
textLength="1220.38" font-size="524.934" lengthAdjust="spacingAndGlyphs"
text-anchor="middle" opacity="0">33R</text>
<path d="M39284 32652
L39528 32652
L39396 32802
L39453 32802
L39490 32821
L39509 32840
L39528 32877
L39528 32971
L39509 33009
L39490 33027
L39453 33046
L39340 33046
L39303 33027
L39284 33009
" />
<path d="M39659 32652
L39903 32652
L39771 32802
L39828 32802
L39865 32821
L39884 32840
L39903 32877
L39903 32971
L39884 33009
L39865 33027
L39828 33046
L39715 33046
L39678 33027
L39659 33009
" />
<path d="M40296 33046
L40165 32859
" />
<path d="M40071 33046
L40071 32652
L40221 32652
L40259 32671
L40278 32690
L40296 32727
L40296 32784
L40278 32821
L40259 32840
L40221 32859
L40071 32859
" />
<text x="39800" y="34096.9"
textLength="845.426" font-size="524.934" lengthAdjust="spacingAndGlyphs"
text-anchor="middle" opacity="0">R7</text>
<path d="M39734 34078
L39603 33890
" />
<path d="M39509 34078
L39509 33684
L39659 33684
L39696 33703
L39715 33721
L39734 33759
L39734 33815
L39715 33853
L39696 33871
L39659 33890
L39509 33890
" />
<path d="M39865 33684
L40128 33684
L39959 34078
" />
<text x="39800" y="28865.4"
textLength="1220.38" font-size="524.934" lengthAdjust="spacingAndGlyphs"
text-anchor="middle" opacity="0">33R</text>
<path d="M39284 28452
L39528 28452
L39396 28602
L39453 28602
L39490 28621
L39509 28640
L39528 28677
L39528 28771
L39509 28809
L39490 28827
L39453 28846
L39340 28846
L39303 28827
L39284 28809
" />
<path d="M39659 28452
L39903 28452
L39771 28602
L39828 28602
L39865 28621
L39884 28640
L39903 28677
L39903 28771
L39884 28809
L39865 28827
L39828 28846
L39715 28846
L39678 28827
L39659 28809
" />
<path d="M40296 28846
L40165 28659
" />
<path d="M40071 28846
L40071 28452
L40221 28452
L40259 28471
L40278 28490
L40296 28527
L40296 28584
L40278 28621
L40259 28640
L40221 28659
L40071 28659
" />
<text x="39800" y="29896.9"
textLength="845.426" font-size="524.934" lengthAdjust="spacingAndGlyphs"
text-anchor="middle" opacity="0">R6</text>
<path d="M39734 29878
L39603 29690
" />
<path d="M39509 29878
L39509 29484
L39659 29484
L39696 29503
L39715 29521
L39734 29559
L39734 29615
L39715 29653
L39696 29671
L39659 29690
L39509 29690
" />
<path d="M40071 29484
L39996 29484
L39959 29503
L39940 29521
L39903 29578
L39884 29653
L39884 29803
L39903 29840
L39921 29859
L39959 29878
L40034 29878
L40071 29859
L40090 29840
L40109 29803
L40109 29709
L40090 29671
L40071 29653
L40034 29634
L39959 29634
L39921 29653
L39903 29671
L39884 29709
" />
<text x="39800" y="24665.4"
textLength="1220.38" font-size="524.934" lengthAdjust="spacingAndGlyphs"
text-anchor="middle" opacity="0">33R</text>
<path d="M39284 24252
L39528 24252
L39396 24402
L39453 24402
L39490 24421
L39509 24440
L39528 24477
L39528 24571
L39509 24609
L39490 24627
L39453 24646
L39340 24646
L39303 24627
L39284 24609
" />
<path d="M39659 24252
L39903 24252
L39771 24402
L39828 24402
L39865 24421
L39884 24440
L39903 24477
L39903 24571
L39884 24609
L39865 24627
L39828 24646
L39715 24646
L39678 24627
L39659 24609
" />
<path d="M40296 24646
L40165 24459
" />
<path d="M40071 24646
L40071 24252
L40221 24252
L40259 24271
L40278 24290
L40296 24327
L40296 24384
L40278 24421
L40259 24440
L40221 24459
L40071 24459
" />
<text x="39800" y="25696.9"
textLength="845.426" font-size="524.934" lengthAdjust="spacingAndGlyphs"
text-anchor="middle" opacity="0">R5</text>
<path d="M39734 25678
L39603 25490
" />
<path d="M39509 25678
L39509 25284
L39659 25284
L39696 25303
L39715 25321
L39734 25359
L39734 25415
L39715 25453
L39696 25471
L39659 25490
L39509 25490
" />
<path d="M40090 25284
L39903 25284
L39884 25471
L39903 25453
L39940 25434
L40034 25434
L40071 25453
L40090 25471
L40109 25509
L40109 25603
L40090 25640
L40071 25659
L40034 25678
L39940 25678
L39903 25659
L39884 25640
" />
<g transform="rotate(-90 36468.5 31800)">
<text x="36468.5" y="31996.9"
textLength="1220.38" font-size="524.934" lengthAdjust="spacingAndGlyphs"
text-anchor="middle" opacity="0">33R</text>
</g>
<path d="M36252 32315
L36252 32071
L36402 32203
L36402 32146
L36421 32109
L36440 32090
L36477 32071
L36571 32071
L36609 32090
L36627 32109
L36646 32146
L36646 32259
L36627 32296
L36609 32315
" />
<path d="M36252 31940
L36252 31696
L36402 31828
L36402 31771
L36421 31734
L36440 31715
L36477 31696
L36571 31696
L36609 31715
L36627 31734
L36646 31771
L36646 31884
L36627 31921
L36609 31940
" />
<path d="M36646 31303
L36459 31434
" />
<path d="M36646 31528
L36252 31528
L36252 31378
L36271 31340
L36290 31321
L36327 31303
L36384 31303
L36421 31321
L36440 31340
L36459 31378
L36459 31528
" />
<g transform="rotate(-90 37500 31800)">
<text x="37500" y="31996.9"
textLength="845.426" font-size="524.934" lengthAdjust="spacingAndGlyphs"
text-anchor="middle" opacity="0">R4</text>
</g>
<path d="M37678 31865
L37490 31996
" />
<path d="M37678 32090
L37284 32090
L37284 31940
L37303 31903
L37321 31884
L37359 31865
L37415 31865
L37453 31884
L37471 31903
L37490 31940
L37490 32090
" />
<path d="M37415 31528
L37678 31528
" />
<path d="M37265 31621
L37546 31715
L37546 31471
" />
<g transform="rotate(-90 36468.5 27600)">
<text x="36468.5" y="27796.9"
textLength="1220.38" font-size="524.934" lengthAdjust="spacingAndGlyphs"
text-anchor="middle" opacity="0">33R</text>
</g>
<path d="M36252 28115
L36252 27871
L36402 28003
L36402 27946
L36421 27909
L36440 27890
L36477 27871
L36571 27871
L36609 27890
L36627 27909
L36646 27946
L36646 28059
L36627 28096
L36609 28115
" />
<path d="M36252 27740
L36252 27496
L36402 27628
L36402 27571
L36421 27534
L36440 27515
L36477 27496
L36571 27496
L36609 27515
L36627 27534
L36646 27571
L36646 27684
L36627 27721
L36609 27740
" />
<path d="M36646 27103
L36459 27234
" />
<path d="M36646 27328
L36252 27328
L36252 27178
L36271 27140
L36290 27121
L36327 27103
L36384 27103
L36421 27121
L36440 27140
L36459 27178
L36459 27328
" />
<g transform="rotate(-90 37500 27600)">
<text x="37500" y="27796.9"
textLength="845.426" font-size="524.934" lengthAdjust="spacingAndGlyphs"
text-anchor="middle" opacity="0">R3</text>
</g>
<path d="M37678 27665
L37490 27796
" />
<path d="M37678 27890
L37284 27890
L37284 27740
L37303 27703
L37321 27684
L37359 27665
L37415 27665
L37453 27684
L37471 27703
L37490 27740
L37490 27890
" />
<path d="M37284 27534
L37284 27290
L37434 27421
L37434 27365
L37453 27328
L37471 27309
L37509 27290
L37603 27290
L37640 27309
L37659 27328
L37678 27365
L37678 27478
L37659 27515
L37640 27534
" />
<g >
</g>
</g>
<g style="fill:#000000; fill-opacity:0.0; 
stroke:#000000; stroke-width:59.0551; stroke-opacity:1; 
stroke-linecap:round; stroke-linejoin:round;">
</g>
<g style="fill:#C2C200; fill-opacity:0.0; 
stroke:#C2C200; stroke-width:59.0551; stroke-opacity:1; 
stroke-linecap:round; stroke-linejoin:round;">
</g>
<g style="fill:#C2C200; fill-opacity:0.0; 
stroke:#C2C200; stroke-width:39.3701; stroke-opacity:1; 
stroke-linecap:round; stroke-linejoin:round;">
<path d="M38385 52952
L38385 52165
" />
<path d="M56102 52165
L56102 52952
" />
<path d="M53149 23622
L53149 36417
" />
<path d="M35433 23622
L53149 23622
" />
<path d="M35433 36417
L35433 23622
" />
<path d="M38385 36417
L35433 36417
" />
<path d="M38385 52165
L38385 36417
" />
<path d="M56102 52952
L38385 52952
" />
<path d="M56102 36417
L56102 52165
" />
<path d="M53149 36417
L56102 36417
" />
<g >
</g>
<g >
</g>
<g >
</g>
<g >
</g>
<g >
</g>
<g >
</g>
<g >
</g>
<g >
</g>
<g >
</g>
<g >
</g>
<g >
</g>
<g >
</g>
<g >
</g>
<g >
</g>
<g >
</g>
<g >
</g>
<g >
</g>
<g >
</g>
<g >
</g>
<g >
</g>
<g >
</g>
<g >
</g>
<g >
</g>
<g >
</g>
<g >
</g>
<g >
</g>
<g >
</g>
<g >
</g>
<g >
</g>
<g >
</g>
</g> 
</svg>
